Exo-ThinItalic.ufo
<glyph name=".notdef" format="2">
  <advance width="651"/>
  <unicode hex="0000"/>
  <outline>
    <contour>
      <point x="90" y="0" type="line"/>
      <point x="621" y="0" type="line"/>
      <point x="621" y="531" type="line"/>
      <point x="90" y="531" type="line"/>
    </contour>
    <contour>
      <point x="523" y="115" type="line"/>
      <point x="373" y="265" type="line"/>
      <point x="523" y="415" type="line"/>
      <point x="506" y="432" type="line"/>
      <point x="356" y="282" type="line"/>
      <point x="206" y="432" type="line"/>
      <point x="189" y="415" type="line"/>
      <point x="339" y="265" type="line"/>
      <point x="189" y="115" type="line"/>
      <point x="206" y="98" type="line"/>
      <point x="356" y="248" type="line"/>
      <point x="506" y="98" type="line"/>
    </contour>
    <contour>
      <point x="114" y="24" type="line"/>
      <point x="114" y="507" type="line"/>
      <point x="597" y="507" type="line"/>
      <point x="597" y="24" type="line"/>
    </contour>
  </outline>
</glyph>
<glyph name="numbersign" format="1">
  <advance width="654"/>
  <unicode hex="0023"/>
  <note>
    GF Latin Plus glyph
  </note>
  <outline>
    <contour>
      <point x="261" y="261" type="line"/>
      <point x="326" y="467" type="line"/>
      <point x="511" y="467" type="line"/>
      <point x="446" y="261" type="line"/>
    </contour>
    <contour>
      <point x="67" y="249" type="line"/>
      <point x="244" y="249" type="line"/>
      <point x="166" y="0" type="line"/>
      <point x="178" y="0" type="line"/>
      <point x="256" y="249" type="line"/>
      <point x="442" y="249" type="line"/>
      <point x="364" y="0" type="line"/>
      <point x="376" y="0" type="line"/>
      <point x="454" y="249" type="line"/>
      <point x="632" y="249" type="line"/>
      <point x="636" y="261" type="line"/>
      <point x="458" y="261" type="line"/>
      <point x="523" y="467" type="line"/>
      <point x="702" y="467" type="line"/>
      <point x="706" y="479" type="line"/>
      <point x="528" y="479" type="line"/>
      <point x="608" y="732" type="line"/>
      <point x="596" y="732" type="line"/>
      <point x="516" y="479" type="line"/>
      <point x="330" y="479" type="line"/>
      <point x="411" y="732" type="line"/>
      <point x="399" y="732" type="line"/>
      <point x="318" y="479" type="line"/>
      <point x="140" y="479" type="line"/>
      <point x="135" y="467" type="line"/>
      <point x="314" y="467" type="line"/>
      <point x="249" y="261" type="line"/>
      <point x="71" y="261" type="line"/>
    </contour>
  </outline>
</glyph>
<glyph name="dollar" format="2">
  <advance width="609"/>
  <unicode hex="0024"/>
  <note>
GF Latin Plus glyph
</note>
  <outline>
    <contour>
      <point x="403" y="733" type="line"/>
      <point x="421" y="732" type="line"/>
      <point x="435" y="824" type="line"/>
      <point x="417" y="824" type="line"/>
    </contour>
    <contour>
      <point x="273" y="-88" type="line"/>
      <point x="291" y="-88" type="line"/>
      <point x="305" y="2" type="line"/>
      <point x="287" y="3" type="line"/>
    </contour>
    <component base="S"/>
  </outline>
</glyph>
<glyph name="percent" format="1">
  <advance width="954"/>
  <unicode hex="0025"/>
  <note>
    GF Latin Plus glyph
  </note>
  <outline>
    <contour>
      <point x="577" y="128" type="curve" smooth="yes"/>
      <point x="598" y="261" type="line" smooth="yes"/>
      <point x="612" y="350"/>
      <point x="650" y="370"/>
      <point x="729" y="370" type="curve" smooth="yes"/>
      <point x="830" y="370" type="line" smooth="yes"/>
      <point x="901" y="370"/>
      <point x="927" y="349"/>
      <point x="927" y="298" type="curve" smooth="yes"/>
      <point x="927" y="287"/>
      <point x="925" y="275"/>
      <point x="923" y="261" type="curve" smooth="yes"/>
      <point x="902" y="128" type="line" smooth="yes"/>
      <point x="888" y="39"/>
      <point x="849" y="19"/>
      <point x="772" y="19" type="curve" smooth="yes"/>
      <point x="671" y="19" type="line" smooth="yes"/>
      <point x="605" y="19"/>
      <point x="574" y="35"/>
      <point x="574" y="92" type="curve" smooth="yes"/>
      <point x="574" y="103"/>
      <point x="575" y="115"/>
    </contour>
    <contour>
      <point x="561" y="128" type="line" smooth="yes"/>
      <point x="559" y="114"/>
      <point x="558" y="100"/>
      <point x="558" y="88" type="curve" smooth="yes"/>
      <point x="558" y="31"/>
      <point x="587" y="3"/>
      <point x="668" y="3" type="curve" smooth="yes"/>
      <point x="769" y="3" type="line" smooth="yes"/>
      <point x="870" y="3"/>
      <point x="905" y="43"/>
      <point x="918" y="128" type="curve" smooth="yes"/>
      <point x="939" y="261" type="line" smooth="yes"/>
      <point x="942" y="275"/>
      <point x="943" y="289"/>
      <point x="943" y="301" type="curve" smooth="yes"/>
      <point x="943" y="358"/>
      <point x="913" y="386"/>
      <point x="832" y="386" type="curve" smooth="yes"/>
      <point x="731" y="386" type="line" smooth="yes"/>
      <point x="630" y="386"/>
      <point x="595" y="346"/>
      <point x="582" y="261" type="curve" smooth="yes"/>
    </contour>
    <contour>
      <point x="242" y="0" type="line"/>
      <point x="263" y="0" type="line"/>
      <point x="817" y="732" type="line"/>
      <point x="796" y="732" type="line"/>
    </contour>
    <contour>
      <point x="148" y="474" type="curve" smooth="yes"/>
      <point x="169" y="607" type="line" smooth="yes"/>
      <point x="183" y="696"/>
      <point x="220" y="716"/>
      <point x="299" y="716" type="curve" smooth="yes"/>
      <point x="400" y="716" type="line" smooth="yes"/>
      <point x="471" y="716"/>
      <point x="497" y="695"/>
      <point x="497" y="644" type="curve" smooth="yes"/>
      <point x="497" y="633"/>
      <point x="496" y="621"/>
      <point x="494" y="607" type="curve" smooth="yes"/>
      <point x="473" y="474" type="line" smooth="yes"/>
      <point x="459" y="385"/>
      <point x="420" y="365"/>
      <point x="343" y="365" type="curve" smooth="yes"/>
      <point x="242" y="365" type="line" smooth="yes"/>
      <point x="176" y="365"/>
      <point x="145" y="381"/>
      <point x="145" y="438" type="curve" smooth="yes"/>
      <point x="145" y="449"/>
      <point x="146" y="461"/>
    </contour>
    <contour>
      <point x="132" y="474" type="line" smooth="yes"/>
      <point x="130" y="460"/>
      <point x="129" y="446"/>
      <point x="129" y="434" type="curve" smooth="yes"/>
      <point x="129" y="377"/>
      <point x="158" y="349"/>
      <point x="239" y="349" type="curve" smooth="yes"/>
      <point x="340" y="349" type="line" smooth="yes"/>
      <point x="441" y="349"/>
      <point x="476" y="389"/>
      <point x="489" y="474" type="curve" smooth="yes"/>
      <point x="510" y="607" type="line" smooth="yes"/>
      <point x="512" y="621"/>
      <point x="514" y="635"/>
      <point x="514" y="647" type="curve" smooth="yes"/>
      <point x="514" y="704"/>
      <point x="484" y="732"/>
      <point x="403" y="732" type="curve" smooth="yes"/>
      <point x="302" y="732" type="line" smooth="yes"/>
      <point x="201" y="732"/>
      <point x="167" y="692"/>
      <point x="153" y="607" type="curve" smooth="yes"/>
    </contour>
  </outline>
</glyph>
<glyph name="ampersand" format="2">
  <advance width="653"/>
  <unicode hex="0026"/>
  <note>
GF Latin Plus glyph
</note>
  <outline>
    <contour>
      <point x="223" y="18" type="curve" smooth="yes"/>
      <point x="136.32653061224488" y="18.0"/>
      <point x="86" y="70"/>
      <point x="86" y="154" type="curve" smooth="yes"/>
      <point x="86" y="254"/>
      <point x="113.53037038900274" y="316.68649941314675"/>
      <point x="231" y="383" type="curve" smooth="yes"/>
      <point x="293" y="418" type="line"/>
      <point x="461" y="130" type="line"/>
      <point x="418" y="95" type="line" smooth="yes"/>
      <point x="340.3019097754462" y="31.757368421874794"/>
      <point x="282.0571428571429" y="18.0"/>
    </contour>
    <contour>
      <point x="218" y="-6" type="curve" smooth="yes"/>
      <point x="287.2686567164179" y="-6.0"/>
      <point x="352.4410167617964" y="13.752813409437096"/>
      <point x="439" y="83" type="curve" smooth="yes"/>
      <point x="474" y="111" type="line"/>
      <point x="538" y="0" type="line"/>
      <point x="567" y="0" type="line"/>
      <point x="493" y="125" type="line"/>
      <point x="585" y="201" type="line"/>
      <point x="668" y="286" type="line"/>
      <point x="660" y="295" type="line"/>
      <point x="480" y="144" type="line"/>
      <point x="286" y="481" type="line" smooth="yes"/>
      <point x="261" y="525"/>
      <point x="253" y="562"/>
      <point x="253" y="597" type="curve" smooth="yes"/>
      <point x="253" y="684"/>
      <point x="317" y="710"/>
      <point x="408" y="710" type="curve" smooth="yes"/>
      <point x="538" y="710" type="line"/>
      <point x="541" y="726" type="line"/>
      <point x="506.26613107559035" y="728.6050401693308"/>
      <point x="479.4039735099338" y="732.0"/>
      <point x="410" y="732" type="curve" smooth="yes"/>
      <point x="301.0" y="732.0"/>
      <point x="229" y="689"/>
      <point x="229" y="595" type="curve" smooth="yes"/>
      <point x="229" y="558"/>
      <point x="239.4822863861799" y="514.3648242023468"/>
      <point x="265" y="469" type="curve" smooth="yes"/>
      <point x="283" y="437" type="line"/>
      <point x="213" y="395" type="line" smooth="yes"/>
      <point x="99.24989742343662" y="326.749938454062"/>
      <point x="61" y="260"/>
      <point x="61" y="152" type="curve" smooth="yes"/>
      <point x="61" y="54"/>
      <point x="124.92814371257485" y="-6.0"/>
    </contour>
  </outline>
</glyph>
<glyph name="quotesingle" format="2">
  <advance width="113"/>
  <unicode hex="0027"/>
  <note>
GF Latin Plus glyph
</note>
  <outline>
    <contour>
      <point x="151" y="673" type="line"/>
      <point x="133" y="515" type="line"/>
      <point x="145" y="515" type="line"/>
      <point x="176" y="673" type="line"/>
      <point x="186" y="740" type="line"/>
      <point x="161" y="740" type="line"/>
    </contour>
  </outline>
</glyph>
<glyph name="parenright" format="2">
  <advance width="314"/>
  <unicode hex="0029"/>
  <note>
GF Latin Plus glyph
</note>
  <outline>
    <contour>
      <point x="-6" y="-210" type="curve"/>
      <point x="21" y="-210" type="line"/>
      <point x="204" y="14"/>
      <point x="277" y="245"/>
      <point x="277" y="474" type="curve" smooth="yes"/>
      <point x="277" y="605"/>
      <point x="257" y="726"/>
      <point x="190" y="860" type="curve"/>
      <point x="163" y="860" type="line"/>
      <point x="230" y="724"/>
      <point x="252" y="602"/>
      <point x="252" y="469" type="curve" smooth="yes"/>
      <point x="252" y="242"/>
      <point x="175" y="12"/>
    </contour>
  </outline>
</glyph>
<glyph name="hyphen" format="2">
  <advance width="331"/>
  <unicode hex="002D"/>
  <note>
GF Latin Plus glyph
</note>
  <outline>
    <contour>
      <point x="68" y="278" type="line"/>
      <point x="352" y="278" type="line"/>
      <point x="356" y="302" type="line"/>
      <point x="72" y="302" type="line"/>
    </contour>
  </outline>
</glyph>
<glyph name="period" format="2">
  <advance width="172"/>
  <unicode hex="002E"/>
  <note>
GF Latin Plus glyph
</note>
  <outline>
    <contour>
      <point x="71" y="12" type="line" smooth="yes"/>
      <point x="71" y="11"/>
      <point x="71" y="11"/>
      <point x="71" y="10" type="curve" smooth="yes"/>
      <point x="71" y="4"/>
      <point x="75" y="0"/>
      <point x="81" y="0" type="curve" smooth="yes"/>
      <point x="92" y="0" type="line" smooth="yes"/>
      <point x="99" y="0"/>
      <point x="105" y="4"/>
      <point x="106" y="12" type="curve" smooth="yes"/>
      <point x="116" y="74" type="line" smooth="yes"/>
      <point x="116" y="75"/>
      <point x="116" y="76"/>
      <point x="116" y="77" type="curve" smooth="yes"/>
      <point x="116" y="82"/>
      <point x="113" y="86"/>
      <point x="106" y="86" type="curve" smooth="yes"/>
      <point x="95" y="86" type="line" smooth="yes"/>
      <point x="87" y="86"/>
      <point x="82" y="82"/>
      <point x="81" y="74" type="curve" smooth="yes"/>
    </contour>
  </outline>
</glyph>
<glyph name="slash" format="2">
  <advance width="354"/>
  <unicode hex="002F"/>
  <note>
GF Latin Plus glyph
</note>
  <outline>
    <contour>
      <point x="16" y="-72" type="line"/>
      <point x="35" y="-72" type="line"/>
      <point x="449" y="770" type="line"/>
      <point x="430" y="770" type="line"/>
    </contour>
  </outline>
</glyph>
<glyph name="zero" format="2">
  <advance width="662"/>
  <unicode hex="0030"/>
  <note>
GF Latin Plus glyph
</note>
  <outline>
    <contour>
      <point x="144" y="162" type="curve" smooth="yes"/>
      <point x="209" y="576" type="line" smooth="yes"/>
      <point x="223" y="664"/>
      <point x="290" y="716"/>
      <point x="379" y="716" type="curve" smooth="yes"/>
      <point x="513" y="716" type="line" smooth="yes"/>
      <point x="597" y="716"/>
      <point x="638" y="678"/>
      <point x="638" y="609" type="curve" smooth="yes"/>
      <point x="638" y="599"/>
      <point x="637" y="588"/>
      <point x="635" y="576" type="curve" smooth="yes"/>
      <point x="570" y="162" type="line" smooth="yes"/>
      <point x="556" y="77"/>
      <point x="507" y="22"/>
      <point x="403" y="22" type="curve" smooth="yes"/>
      <point x="269" y="22" type="line" smooth="yes"/>
      <point x="190" y="22"/>
      <point x="141" y="60"/>
      <point x="141" y="132" type="curve" smooth="yes"/>
      <point x="141" y="141"/>
      <point x="142" y="151"/>
    </contour>
    <contour>
      <point x="120" y="162" type="line" smooth="yes"/>
      <point x="118" y="149"/>
      <point x="117" y="137"/>
      <point x="117" y="126" type="curve" smooth="yes"/>
      <point x="117" y="34"/>
      <point x="185" y="0"/>
      <point x="266" y="0" type="curve" smooth="yes"/>
      <point x="400" y="0" type="line" smooth="yes"/>
      <point x="499" y="0"/>
      <point x="575" y="43"/>
      <point x="594" y="162" type="curve" smooth="yes"/>
      <point x="659" y="576" type="line" smooth="yes"/>
      <point x="661" y="589"/>
      <point x="662" y="601"/>
      <point x="662" y="613" type="curve" smooth="yes"/>
      <point x="662" y="685"/>
      <point x="622" y="738"/>
      <point x="517" y="738" type="curve" smooth="yes"/>
      <point x="383" y="738" type="line" smooth="yes"/>
      <point x="288" y="738"/>
      <point x="202" y="684"/>
      <point x="185" y="576" type="curve" smooth="yes"/>
    </contour>
  </outline>
</glyph>
<glyph name="one" format="2">
  <advance width="354"/>
  <unicode hex="0031"/>
  <note>
GF Latin Plus glyph
</note>
  <outline>
    <contour>
      <point x="156" y="644" type="line"/>
      <point x="334" y="705" type="line"/>
      <point x="222" y="0" type="line"/>
      <point x="246" y="0" type="line"/>
      <point x="362" y="732" type="line"/>
      <point x="338" y="732" type="line"/>
      <point x="159" y="660" type="line"/>
    </contour>
  </outline>
</glyph>
<glyph name="two" format="2">
  <advance width="598"/>
  <unicode hex="0032"/>
  <note>
GF Latin Plus glyph
</note>
  <outline>
    <contour>
      <point x="207" y="716" type="line"/>
      <point x="400" y="716" type="line" smooth="yes"/>
      <point x="540" y="716"/>
      <point x="579" y="666"/>
      <point x="579" y="598" type="curve" smooth="yes"/>
      <point x="579" y="519"/>
      <point x="523.0602306328615" y="418.5931739328202"/>
      <point x="380" y="295" type="curve" smooth="yes"/>
      <point x="64" y="22" type="line"/>
      <point x="61" y="0" type="line"/>
      <point x="541" y="0" type="line"/>
      <point x="545" y="24" type="line"/>
      <point x="101" y="24" type="line"/>
      <point x="394" y="281" type="line" smooth="yes"/>
      <point x="538.9839805515637" y="408.1702491527368"/>
      <point x="603" y="515"/>
      <point x="603" y="598" type="curve" smooth="yes"/>
      <point x="603" y="679"/>
      <point x="554" y="738"/>
      <point x="412" y="738" type="curve" smooth="yes"/>
      <point x="344" y="738"/>
      <point x="268" y="734"/>
      <point x="210" y="732" type="curve"/>
    </contour>
  </outline>
</glyph>
<glyph name="three" format="2">
  <advance width="590"/>
  <unicode hex="0033"/>
  <note>
GF Latin Plus glyph
</note>
  <outline>
    <contour>
      <point x="193" y="716" type="line"/>
      <point x="405" y="716" type="line" smooth="yes"/>
      <point x="504" y="716"/>
      <point x="556" y="673"/>
      <point x="556" y="601" type="curve" smooth="yes"/>
      <point x="556" y="592"/>
      <point x="556" y="583"/>
      <point x="543" y="504" type="curve" smooth="yes"/>
      <point x="529" y="419"/>
      <point x="464" y="386"/>
      <point x="383" y="383" type="curve" smooth="yes"/>
      <point x="188" y="377" type="line"/>
      <point x="185" y="363" type="line"/>
      <point x="378" y="356" type="line" smooth="yes"/>
      <point x="439" y="354"/>
      <point x="514" y="328"/>
      <point x="514" y="247" type="curve" smooth="yes"/>
      <point x="514" y="238"/>
      <point x="509" y="203"/>
      <point x="501" y="161" type="curve" smooth="yes"/>
      <point x="479" y="45"/>
      <point x="392" y="16"/>
      <point x="303" y="16" type="curve" smooth="yes"/>
      <point x="51" y="16" type="line"/>
      <point x="48" y="0" type="line"/>
      <point x="106" y="-4"/>
      <point x="196" y="-6"/>
      <point x="301" y="-6" type="curve" smooth="yes"/>
      <point x="427" y="-6"/>
      <point x="508" y="51"/>
      <point x="525" y="161" type="curve" smooth="yes"/>
      <point x="532" y="203"/>
      <point x="538" y="237"/>
      <point x="538" y="249" type="curve" smooth="yes"/>
      <point x="538" y="335"/>
      <point x="460" y="365"/>
      <point x="429" y="370" type="curve"/>
      <point x="459" y="372"/>
      <point x="550" y="400"/>
      <point x="567" y="504" type="curve" smooth="yes"/>
      <point x="580" y="584"/>
      <point x="580" y="595"/>
      <point x="580" y="605" type="curve" smooth="yes"/>
      <point x="580" y="681"/>
      <point x="532" y="738"/>
      <point x="415" y="738" type="curve" smooth="yes"/>
      <point x="316" y="738"/>
      <point x="245" y="736"/>
      <point x="196" y="732" type="curve"/>
    </contour>
  </outline>
</glyph>
<glyph name="four" format="2">
  <advance width="575"/>
  <unicode hex="0034"/>
  <note>
GF Latin Plus glyph
</note>
  <outline>
    <contour>
      <point x="66" y="235" type="line"/>
      <point x="73" y="212" type="line"/>
      <point x="438" y="212" type="line"/>
      <point x="404" y="2" type="line"/>
      <point x="428" y="2" type="line"/>
      <point x="462" y="212" type="line"/>
      <point x="583" y="218" type="line"/>
      <point x="585" y="234" type="line"/>
      <point x="465" y="234" type="line"/>
      <point x="511" y="527" type="line"/>
      <point x="495" y="527" type="line"/>
      <point x="479" y="472" type="line"/>
      <point x="441" y="234" type="line"/>
      <point x="91" y="234" type="line"/>
      <point x="477" y="732" type="line"/>
      <point x="452" y="732" type="line"/>
    </contour>
  </outline>
</glyph>
<glyph name="five" format="2">
  <advance width="649"/>
  <unicode hex="0035"/>
  <note>
GF Latin Plus glyph
</note>
  <outline>
    <contour>
      <point x="133" y="2" type="line"/>
      <point x="187.7209735729004" y="-3.2955780877000374"/>
      <point x="269.6205533596838" y="-4.0"/>
      <point x="356" y="-4" type="curve" smooth="yes"/>
      <point x="473" y="-4"/>
      <point x="579" y="55"/>
      <point x="596" y="166" type="curve" smooth="yes"/>
      <point x="614" y="275" type="line" smooth="yes"/>
      <point x="615" y="287"/>
      <point x="616" y="298"/>
      <point x="616" y="309" type="curve" smooth="yes"/>
      <point x="616" y="387"/>
      <point x="559.6455696202531" y="441"/>
      <point x="457" y="441" type="curve" smooth="yes"/>
      <point x="364" y="441" type="line" smooth="yes"/>
      <point x="286" y="441"/>
      <point x="236" y="407"/>
      <point x="219" y="375" type="curve"/>
      <point x="288" y="710" type="line"/>
      <point x="661" y="710" type="line"/>
      <point x="665" y="732" type="line"/>
      <point x="270" y="732" type="line"/>
      <point x="183" y="312" type="line"/>
      <point x="205" y="312" type="line"/>
      <point x="230" y="386"/>
      <point x="282" y="419"/>
      <point x="358" y="419" type="curve" smooth="yes"/>
      <point x="453" y="419" type="line" smooth="yes"/>
      <point x="545.6666666666666" y="419"/>
      <point x="592" y="377"/>
      <point x="592" y="307" type="curve" smooth="yes"/>
      <point x="592" y="297"/>
      <point x="591" y="285"/>
      <point x="589" y="273" type="curve" smooth="yes"/>
      <point x="573" y="168" type="line" smooth="yes"/>
      <point x="557" y="68"/>
      <point x="460" y="18"/>
      <point x="358" y="18" type="curve" smooth="yes"/>
      <point x="136" y="18" type="line"/>
    </contour>
  </outline>
</glyph>
<glyph name="six" format="1">
  <advance width="636"/>
  <unicode hex="0036"/>
  <note>
    GF Latin Plus glyph
  </note>
  <outline>
    <contour>
      <point x="170" y="369" type="curve"/>
      <point x="403" y="369" type="line" smooth="yes"/>
      <point x="507" y="369"/>
      <point x="575" y="354"/>
      <point x="575" y="276" type="curve" smooth="yes"/>
      <point x="575" y="268"/>
      <point x="574" y="259"/>
      <point x="572" y="249" type="curve" smooth="yes"/>
      <point x="556" y="146" type="line" smooth="yes"/>
      <point x="540" y="42"/>
      <point x="470" y="21"/>
      <point x="398" y="21" type="curve" smooth="yes"/>
      <point x="279" y="21" type="line" smooth="yes"/>
      <point x="203" y="21"/>
      <point x="155" y="61"/>
      <point x="155" y="201" type="curve" smooth="yes"/>
      <point x="155" y="246"/>
      <point x="160" y="301"/>
    </contour>
    <contour>
      <point x="223" y="738"/>
      <point x="132" y="467"/>
      <point x="132" y="204" type="curve" smooth="yes"/>
      <point x="132" y="42"/>
      <point x="191" y="-1"/>
      <point x="276" y="-1" type="curve" smooth="yes"/>
      <point x="395" y="-1" type="line" smooth="yes"/>
      <point x="479" y="-1"/>
      <point x="562" y="36"/>
      <point x="579" y="148" type="curve" smooth="yes"/>
      <point x="595" y="249" type="line" smooth="yes"/>
      <point x="597" y="260"/>
      <point x="598" y="270"/>
      <point x="598" y="279" type="curve" smooth="yes"/>
      <point x="598" y="371"/>
      <point x="517" y="391"/>
      <point x="406" y="391" type="curve" smooth="yes"/>
      <point x="359" y="391"/>
      <point x="245" y="389"/>
      <point x="173" y="385" type="curve"/>
      <point x="209" y="610"/>
      <point x="322" y="716"/>
      <point x="437" y="716" type="curve" smooth="yes"/>
      <point x="625" y="716" type="line"/>
      <point x="628" y="732" type="line"/>
      <point x="576" y="734"/>
      <point x="500" y="738"/>
      <point x="450" y="738" type="curve" smooth="yes"/>
    </contour>
  </outline>
</glyph>
<glyph name="seven" format="2">
  <advance width="535"/>
  <unicode hex="0037"/>
  <note>
GF Latin Plus glyph
</note>
  <outline>
    <contour>
      <point x="162" y="708" type="line"/>
      <point x="578" y="708" type="line"/>
      <point x="178" y="0" type="line"/>
      <point x="206" y="0" type="line"/>
      <point x="606" y="709" type="line"/>
      <point x="594" y="732" type="line"/>
      <point x="166" y="732" type="line"/>
    </contour>
  </outline>
</glyph>
<glyph name="less" format="2">
  <advance width="609"/>
  <unicode hex="003C"/>
  <note>
GF Latin Plus glyph
</note>
  <outline>
    <contour>
      <point x="134" y="336" type="line"/>
      <point x="528" y="200" type="line"/>
      <point x="531" y="220" type="line"/>
      <point x="156" y="347" type="line"/>
      <point x="571" y="476" type="line"/>
      <point x="574" y="496" type="line"/>
      <point x="138" y="360" type="line"/>
    </contour>
  </outline>
</glyph>
<glyph name="at" format="2">
  <advance width="901"/>
  <unicode hex="0040"/>
  <note>
GF Latin Plus glyph
</note>
  <outline>
    <contour>
      <point x="267.0" y="396.0"/>
      <point x="378.3413654618474" y="523.0"/>
      <point x="506" y="523" type="curve" smooth="yes"/>
      <point x="566.4756097560976" y="523.0"/>
      <point x="614.8644526481368" y="514.2372633214998"/>
      <point x="680" y="479" type="curve"/>
      <point x="621" y="79" type="line"/>
      <point x="546.1102563817585" y="23.33870406752323"/>
      <point x="466.1720930232558" y="18.0"/>
      <point x="402" y="18" type="curve" smooth="yes"/>
      <point x="335" y="18"/>
      <point x="267" y="46"/>
      <point x="267" y="179" type="curve" smooth="yes"/>
    </contour>
    <contour>
      <point x="64" y="9" type="line" smooth="yes"/>
      <point x="62" y="-3"/>
      <point x="61" y="-15"/>
      <point x="61" y="-26" type="curve" smooth="yes"/>
      <point x="61" y="-115"/>
      <point x="119" y="-179"/>
      <point x="211" y="-179" type="curve" smooth="yes"/>
      <point x="309" y="-179" type="line" smooth="yes"/>
      <point x="435" y="-179"/>
      <point x="549" y="-176"/>
      <point x="599" y="-169" type="curve"/>
      <point x="601" y="-155" type="line"/>
      <point x="217" y="-155" type="line" smooth="yes"/>
      <point x="141" y="-155"/>
      <point x="85" y="-110"/>
      <point x="85" y="-26" type="curve" smooth="yes"/>
      <point x="85" y="-15"/>
      <point x="86" y="-3"/>
      <point x="88" y="9" type="curve" smooth="yes"/>
      <point x="170" y="521" type="line" smooth="yes"/>
      <point x="183" y="604"/>
      <point x="230" y="675"/>
      <point x="350" y="675" type="curve" smooth="yes"/>
      <point x="744" y="675" type="line" smooth="yes"/>
      <point x="815" y="675"/>
      <point x="865" y="650"/>
      <point x="865" y="564" type="curve" smooth="yes"/>
      <point x="865" y="551"/>
      <point x="863" y="537"/>
      <point x="861" y="521" type="curve" smooth="yes"/>
      <point x="808" y="167" type="line" smooth="yes"/>
      <point x="788.0955995153919" y="34.05362695186284"/>
      <point x="683.9028571428571" y="22.0"/>
      <point x="637" y="22" type="curve"/>
      <point x="704" y="482" type="line"/>
      <point x="658.3008959818707" y="526.6604880177173"/>
      <point x="581.8947368421052" y="545.0"/>
      <point x="504" y="545" type="curve" smooth="yes"/>
      <point x="361.4612546125461" y="545.0"/>
      <point x="243.0" y="409.0"/>
      <point x="243" y="176" type="curve" smooth="yes"/>
      <point x="243" y="35"/>
      <point x="315" y="-6"/>
      <point x="404" y="-6" type="curve" smooth="yes"/>
      <point x="468.188679245283" y="-6.0"/>
      <point x="583.6944573127171" y="22.660508125241137"/>
      <point x="620" y="63" type="curve"/>
      <point x="618" y="0" type="line"/>
      <point x="647" y="0" type="line" smooth="yes"/>
      <point x="787.952380952381" y="0"/>
      <point x="826.7672260077878" y="132.04901899541272"/>
      <point x="832" y="167" type="curve" smooth="yes"/>
      <point x="885" y="521" type="line" smooth="yes"/>
      <point x="887" y="536"/>
      <point x="888" y="551"/>
      <point x="888" y="564" type="curve" smooth="yes"/>
      <point x="888" y="650"/>
      <point x="841" y="699"/>
      <point x="745" y="699" type="curve" smooth="yes"/>
      <point x="350" y="699" type="line" smooth="yes"/>
      <point x="212" y="699"/>
      <point x="161" y="613"/>
      <point x="146" y="521" type="curve" smooth="yes"/>
    </contour>
  </outline>
</glyph>
<glyph name="A" format="2">
  <advance width="660"/>
  <unicode hex="0041"/>
  <note>
GF Latin Plus glyph
</note>
  <anchor x="459" y="810" name="top"/>
  <anchor x="307" y="-150" name="bottom"/>
  <anchor x="592" y="0" name="ogonek"/>
  <outline>
    <contour>
      <point x="218" y="276" type="line"/>
      <point x="448" y="706" type="line"/>
      <point x="535" y="276" type="line"/>
    </contour>
    <contour>
      <point x="45" y="0" type="line"/>
      <point x="70" y="0" type="line"/>
      <point x="206" y="254" type="line"/>
      <point x="539" y="254" type="line"/>
      <point x="590" y="0" type="line"/>
      <point x="615" y="0" type="line"/>
      <point x="469" y="732" type="line"/>
      <point x="435" y="732" type="line"/>
    </contour>
  </outline>
</glyph>
<glyph name="C" format="2">
  <advance width="589"/>
  <unicode hex="0043"/>
  <note>
GF Latin Plus glyph
</note>
  <anchor x="429" y="810" name="top"/>
  <anchor x="297" y="-150" name="bottom"/>
  <outline>
    <contour>
      <point x="130" y="376" type="curve" smooth="yes"/>
      <point x="122" y="328"/>
      <point x="114" y="263"/>
      <point x="114" y="210" type="curve" smooth="yes"/>
      <point x="114" y="67"/>
      <point x="168" y="-6"/>
      <point x="302" y="-6" type="curve" smooth="yes"/>
      <point x="374" y="-6"/>
      <point x="454" y="1"/>
      <point x="518" y="14" type="curve"/>
      <point x="521" y="30" type="line"/>
      <point x="466" y="21"/>
      <point x="412" y="16"/>
      <point x="307" y="16" type="curve" smooth="yes"/>
      <point x="186" y="16"/>
      <point x="139" y="73"/>
      <point x="139" y="211" type="curve" smooth="yes"/>
      <point x="139" y="256"/>
      <point x="146" y="319"/>
      <point x="154" y="366" type="curve" smooth="yes"/>
      <point x="195" y="601"/>
      <point x="263" y="716"/>
      <point x="416" y="716" type="curve" smooth="yes"/>
      <point x="498" y="716"/>
      <point x="560" y="710"/>
      <point x="628" y="700" type="curve"/>
      <point x="632" y="716" type="line"/>
      <point x="577" y="726"/>
      <point x="511" y="738"/>
      <point x="418" y="738" type="curve" smooth="yes"/>
      <point x="247" y="738"/>
      <point x="166" y="606"/>
    </contour>
  </outline>
</glyph>
<glyph name="E" format="2">
  <advance width="565"/>
  <unicode hex="0045"/>
  <note>
GF Latin Plus glyph
</note>
  <anchor x="429" y="810" name="top"/>
  <anchor x="277" y="-150" name="bottom"/>
  <anchor x="495" y="0" name="ogonek"/>
  <outline>
    <contour>
      <point x="100" y="128" type="line" smooth="yes"/>
      <point x="82" y="15"/>
      <point x="150" y="-7"/>
      <point x="216" y="-6" type="curve" smooth="yes"/>
      <point x="249" y="-5"/>
      <point x="408.763" y="-1.9980000000000002"/>
      <point x="505" y="0" type="curve"/>
      <point x="508" y="16" type="line"/>
      <point x="220" y="16" type="line" smooth="yes"/>
      <point x="156" y="16"/>
      <point x="110" y="31"/>
      <point x="124" y="123" type="curve" smooth="yes"/>
      <point x="159" y="351" type="line"/>
      <point x="519" y="353" type="line"/>
      <point x="522" y="369" type="line"/>
      <point x="163" y="375" type="line"/>
      <point x="199" y="602" type="line" smooth="yes"/>
      <point x="212" y="683"/>
      <point x="257" y="710"/>
      <point x="319" y="710" type="curve" smooth="yes"/>
      <point x="616" y="710" type="line"/>
      <point x="619" y="726" type="line"/>
      <point x="520.0989999999999" y="727.998"/>
      <point x="349" y="731"/>
      <point x="322" y="732" type="curve" smooth="yes"/>
      <point x="258" y="733"/>
      <point x="192" y="705"/>
      <point x="176" y="607" type="curve" smooth="yes"/>
    </contour>
  </outline>
</glyph>
<glyph name="F" format="2">
  <advance width="544"/>
  <unicode hex="0046"/>
  <note>
GF Latin Plus glyph
</note>
  <anchor x="419" y="810" name="top"/>
  <outline>
    <contour>
      <point x="80" y="0" type="line"/>
      <point x="104" y="0" type="line"/>
      <point x="160" y="351" type="line"/>
      <point x="519" y="353" type="line"/>
      <point x="522" y="369" type="line"/>
      <point x="163" y="375" type="line"/>
      <point x="199" y="602" type="line" smooth="yes"/>
      <point x="212" y="681"/>
      <point x="250" y="710"/>
      <point x="316" y="710" type="curve" smooth="yes"/>
      <point x="616" y="710" type="line"/>
      <point x="619" y="726" type="line"/>
      <point x="519.766" y="727.998"/>
      <point x="349" y="731"/>
      <point x="321" y="732" type="curve" smooth="yes"/>
      <point x="254" y="733"/>
      <point x="193" y="711"/>
      <point x="175" y="598" type="curve" smooth="yes"/>
    </contour>
  </outline>
</glyph>
<glyph name="G" format="2">
  <advance width="636"/>
  <unicode hex="0047"/>
  <note>
GF Latin Plus glyph
</note>
  <anchor x="449" y="810" name="top"/>
  <anchor x="297" y="-150" name="bottom"/>
  <outline>
    <contour>
      <point x="130" y="377" type="curve" smooth="yes"/>
      <point x="121" y="317"/>
      <point x="115" y="264"/>
      <point x="115" y="217" type="curve" smooth="yes"/>
      <point x="115" y="63"/>
      <point x="168" y="-6"/>
      <point x="304" y="-6" type="curve" smooth="yes"/>
      <point x="390" y="-6"/>
      <point x="510" y="38"/>
      <point x="542" y="53" type="curve"/>
      <point x="540" y="0" type="line"/>
      <point x="556" y="0" type="line"/>
      <point x="614" y="366" type="line"/>
      <point x="590" y="368"/>
      <point x="567" y="369"/>
      <point x="546" y="369" type="curve" smooth="yes"/>
      <point x="465" y="369"/>
      <point x="411" y="369"/>
      <point x="375" y="363" type="curve"/>
      <point x="373" y="347" type="line"/>
      <point x="587" y="347" type="line"/>
      <point x="543" y="69" type="line"/>
      <point x="501" y="50"/>
      <point x="383" y="16"/>
      <point x="308" y="16" type="curve" smooth="yes"/>
      <point x="188" y="16"/>
      <point x="139" y="74"/>
      <point x="139" y="209" type="curve" smooth="yes"/>
      <point x="139" y="253"/>
      <point x="144" y="306"/>
      <point x="154" y="368" type="curve" smooth="yes"/>
      <point x="188" y="585"/>
      <point x="256" y="718"/>
      <point x="423" y="718" type="curve" smooth="yes"/>
      <point x="509" y="718"/>
      <point x="588" y="707"/>
      <point x="649" y="694" type="curve"/>
      <point x="651" y="710" type="line"/>
      <point x="593" y="726"/>
      <point x="526" y="740"/>
      <point x="427" y="740" type="curve" smooth="yes"/>
      <point x="238" y="740"/>
      <point x="163" y="590"/>
    </contour>
  </outline>
</glyph>
<glyph name="H" format="2">
  <advance width="646"/>
  <unicode hex="0048"/>
  <note>
GF Latin Plus glyph
</note>
  <anchor x="451" y="810" name="top"/>
  <anchor x="299" y="-150" name="bottom"/>
  <outline>
    <contour>
      <point x="80" y="0" type="line"/>
      <point x="104" y="0" type="line"/>
      <point x="158" y="343" type="line"/>
      <point x="596" y="343" type="line"/>
      <point x="542" y="0" type="line"/>
      <point x="566" y="0" type="line"/>
      <point x="682" y="732" type="line"/>
      <point x="658" y="732" type="line"/>
      <point x="600" y="365" type="line"/>
      <point x="162" y="365" type="line"/>
      <point x="220" y="732" type="line"/>
      <point x="196" y="732" type="line"/>
    </contour>
  </outline>
</glyph>
<glyph name="I" format="2">
  <advance width="184"/>
  <unicode hex="0049"/>
  <note>
GF Latin Plus glyph
</note>
  <anchor x="220" y="810" name="top"/>
  <anchor x="68" y="-150" name="bottom"/>
  <anchor x="94" y="0" name="ogonek"/>
  <outline>
    <contour>
      <point x="80" y="0" type="line"/>
      <point x="104" y="0" type="line"/>
      <point x="220" y="732" type="line"/>
      <point x="196" y="732" type="line"/>
    </contour>
  </outline>
</glyph>
<glyph name="J" format="2">
  <advance width="319"/>
  <unicode hex="004A"/>
  <note>
GF Latin Plus glyph
</note>
  <anchor x="388" y="810" name="top"/>
  <outline>
    <contour>
      <point x="31" y="19" type="line"/>
      <point x="52" y="5"/>
      <point x="86" y="-6"/>
      <point x="130" y="-6" type="curve" smooth="yes"/>
      <point x="222" y="-6"/>
      <point x="276" y="47"/>
      <point x="295" y="165" type="curve" smooth="yes"/>
      <point x="385" y="732" type="line"/>
      <point x="361" y="732" type="line"/>
      <point x="271" y="165" type="line" smooth="yes"/>
      <point x="254" y="61"/>
      <point x="203" y="17"/>
      <point x="131" y="17" type="curve" smooth="yes"/>
      <point x="101" y="17"/>
      <point x="64" y="22"/>
      <point x="34" y="35" type="curve"/>
    </contour>
  </outline>
</glyph>
<glyph name="K" format="2">
  <advance width="561"/>
  <unicode hex="004B"/>
  <note>
GF Latin Plus glyph
</note>
  <anchor x="399" y="810" name="top"/>
  <anchor x="247" y="-150" name="bottom"/>
  <outline>
    <contour>
      <point x="80" y="0" type="line"/>
      <point x="104" y="0" type="line"/>
      <point x="160" y="356" type="line"/>
      <point x="318" y="356" type="line"/>
      <point x="499" y="0" type="line"/>
      <point x="526" y="0" type="line"/>
      <point x="339" y="367" type="line"/>
      <point x="631" y="732" type="line"/>
      <point x="603" y="732" type="line"/>
      <point x="319" y="378" type="line"/>
      <point x="164" y="378" type="line"/>
      <point x="220" y="732" type="line"/>
      <point x="196" y="732" type="line"/>
    </contour>
  </outline>
</glyph>
<glyph name="L" format="2">
  <advance width="517"/>
  <unicode hex="004C"/>
  <note>
GF Latin Plus glyph
</note>
  <anchor x="229" y="810" name="top"/>
  <anchor x="257" y="-150" name="bottom"/>
  <anchor x="287" y="580" name="altcaron"/>
  <anchor x="404" y="400" name="dot"/>
  <outline>
    <contour>
      <point x="100" y="126" type="line" smooth="yes"/>
      <point x="98.09652452171481" y="113.98431104332478"/>
      <point x="97" y="104"/>
      <point x="97" y="91" type="curve" smooth="yes"/>
      <point x="97" y="18"/>
      <point x="142.0" y="0"/>
      <point x="211" y="0" type="curve" smooth="yes"/>
      <point x="492" y="0" type="line"/>
      <point x="495" y="22" type="line"/>
      <point x="209" y="22" type="line" smooth="yes"/>
      <point x="162" y="22"/>
      <point x="121" y="32"/>
      <point x="121" y="91" type="curve" smooth="yes"/>
      <point x="121" y="104"/>
      <point x="122.09652452171481" y="113.98431104332478"/>
      <point x="124" y="126" type="curve" smooth="yes"/>
      <point x="220" y="732" type="line"/>
      <point x="196" y="732" type="line"/>
    </contour>
  </outline>
</glyph>
<glyph name="M" format="2">
  <advance width="770"/>
  <unicode hex="004D"/>
  <note>
GF Latin Plus glyph
</note>
  <anchor x="519" y="810" name="top"/>
  <anchor x="367" y="-150" name="bottom"/>
  <outline>
    <contour>
      <point x="71" y="0" type="line"/>
      <point x="96" y="0" type="line"/>
      <point x="277" y="682" type="line"/>
      <point x="390" y="0" type="line"/>
      <point x="412" y="0" type="line"/>
      <point x="740" y="682" type="line"/>
      <point x="708" y="0" type="line"/>
      <point x="732" y="0" type="line"/>
      <point x="764" y="732" type="line"/>
      <point x="742" y="732" type="line"/>
      <point x="407" y="50" type="line"/>
      <point x="290" y="732" type="line"/>
      <point x="268" y="732" type="line"/>
    </contour>
  </outline>
</glyph>
<glyph name="N" format="2">
  <advance width="649"/>
  <unicode hex="004E"/>
  <note>
GF Latin Plus glyph
</note>
  <anchor x="449" y="810" name="top"/>
  <anchor x="297" y="-150" name="bottom"/>
  <outline>
    <contour>
      <point x="80" y="0" type="line"/>
      <point x="104" y="0" type="line"/>
      <point x="214" y="692" type="line"/>
      <point x="547" y="0" type="line"/>
      <point x="569" y="0" type="line"/>
      <point x="685" y="732" type="line"/>
      <point x="661" y="732" type="line"/>
      <point x="551" y="41" type="line"/>
      <point x="218" y="732" type="line"/>
      <point x="196" y="732" type="line"/>
    </contour>
  </outline>
</glyph>
<glyph name="O" format="2">
  <advance width="678"/>
  <unicode hex="004F"/>
  <note>
GF Latin Plus glyph
</note>
  <anchor x="471" y="810" name="top"/>
  <anchor x="319" y="-150" name="bottom"/>
  <anchor x="411" y="0" name="ogonek"/>
  <outline>
    <contour>
      <point x="136" y="199" type="curve" smooth="yes"/>
      <point x="136" y="242"/>
      <point x="142" y="295"/>
      <point x="152" y="361" type="curve" smooth="yes"/>
      <point x="199" y="660"/>
      <point x="284" y="716"/>
      <point x="452" y="716" type="curve" smooth="yes"/>
      <point x="579" y="716"/>
      <point x="655" y="686"/>
      <point x="655" y="525" type="curve" smooth="yes"/>
      <point x="655" y="481"/>
      <point x="651" y="427"/>
      <point x="640" y="361" type="curve" smooth="yes"/>
      <point x="592" y="65"/>
      <point x="513" y="16"/>
      <point x="342" y="16" type="curve" smooth="yes"/>
      <point x="202" y="16"/>
      <point x="136" y="45"/>
    </contour>
    <contour>
      <point x="112" y="199" type="curve" smooth="yes"/>
      <point x="112" y="29"/>
      <point x="193" y="-6"/>
      <point x="336" y="-6" type="curve" smooth="yes"/>
      <point x="516" y="-6"/>
      <point x="616" y="51"/>
      <point x="664" y="354" type="curve" smooth="yes"/>
      <point x="675" y="422"/>
      <point x="680" y="478"/>
      <point x="680" y="524" type="curve" smooth="yes"/>
      <point x="680" y="694"/>
      <point x="596" y="738"/>
      <point x="457" y="738" type="curve" smooth="yes"/>
      <point x="270" y="738"/>
      <point x="176" y="673"/>
      <point x="128" y="368" type="curve" smooth="yes"/>
      <point x="117" y="300"/>
      <point x="112" y="245"/>
    </contour>
  </outline>
</glyph>
<glyph name="Q" format="2">
  <advance width="678"/>
  <unicode hex="0051"/>
  <note>
GF Latin Plus glyph
</note>
  <outline>
    <contour>
      <point x="352" y="-33" type="line"/>
      <point x="357" y="-116"/>
      <point x="409" y="-151"/>
      <point x="482" y="-151" type="curve" smooth="yes"/>
      <point x="503" y="-151"/>
      <point x="525" y="-147"/>
      <point x="545" y="-140" type="curve"/>
      <point x="548" y="-118" type="line"/>
      <point x="529" y="-125"/>
      <point x="506" y="-129"/>
      <point x="483" y="-129" type="curve" smooth="yes"/>
      <point x="422" y="-129"/>
      <point x="382" y="-104"/>
      <point x="368" y="-33" type="curve"/>
    </contour>
    <component base="O"/>
  </outline>
</glyph>
<glyph name="R" format="2">
  <advance width="604"/>
  <unicode hex="0052"/>
  <note>
GF Latin Plus glyph
</note>
  <anchor x="389" y="810" name="top"/>
  <anchor x="287" y="-150" name="bottom"/>
  <outline>
    <contour>
      <point x="159" y="347" type="line"/>
      <point x="216" y="710" type="line"/>
      <point x="448" y="710" type="line" smooth="yes"/>
      <point x="510" y="710"/>
      <point x="585.0" y="690.5826771653543"/>
      <point x="585" y="573" type="curve" smooth="yes"/>
      <point x="585" y="558"/>
      <point x="584" y="541"/>
      <point x="581" y="522" type="curve" smooth="yes"/>
      <point x="557.3522238353885" y="368.76241045331767"/>
      <point x="476" y="347"/>
      <point x="401" y="347" type="curve" smooth="yes"/>
    </contour>
    <contour>
      <point x="80" y="0" type="line"/>
      <point x="104" y="0" type="line"/>
      <point x="156" y="331" type="line"/>
      <point x="217" y="328"/>
      <point x="348" y="326"/>
      <point x="401" y="325" type="curve"/>
      <point x="510" y="0" type="line"/>
      <point x="534" y="0" type="line"/>
      <point x="425" y="326" type="line"/>
      <point x="487" y="330"/>
      <point x="579" y="353"/>
      <point x="606" y="518" type="curve" smooth="yes"/>
      <point x="609" y="539"/>
      <point x="611" y="558"/>
      <point x="611" y="575" type="curve" smooth="yes"/>
      <point x="611" y="708"/>
      <point x="518" y="732"/>
      <point x="452" y="732" type="curve" smooth="yes"/>
      <point x="196" y="732" type="line"/>
    </contour>
  </outline>
</glyph>
<glyph name="T" format="2">
  <advance width="602"/>
  <unicode hex="0054"/>
  <note>
GF Latin Plus glyph
</note>
  <anchor x="419" y="810" name="top"/>
  <anchor x="267" y="-150" name="bottom"/>
  <outline>
    <contour>
      <point x="142" y="710" type="line"/>
      <point x="396" y="710" type="line"/>
      <point x="284" y="0" type="line"/>
      <point x="308" y="0" type="line"/>
      <point x="420" y="710" type="line"/>
      <point x="674" y="710" type="line"/>
      <point x="678" y="732" type="line"/>
      <point x="146" y="732" type="line"/>
    </contour>
  </outline>
</glyph>
<glyph name="U" format="2">
  <advance width="667"/>
  <unicode hex="0055"/>
  <note>
GF Latin Plus glyph
</note>
  <anchor x="449" y="810" name="top"/>
  <anchor x="297" y="-150" name="bottom"/>
  <anchor x="405" y="0" name="ogonek"/>
  <outline>
    <contour>
      <point x="131" y="320" type="line" smooth="yes"/>
      <point x="123" y="272"/>
      <point x="119" y="221"/>
      <point x="119" y="186" type="curve" smooth="yes"/>
      <point x="119" y="43"/>
      <point x="195" y="-6"/>
      <point x="333" y="-6" type="curve" smooth="yes"/>
      <point x="488" y="-6"/>
      <point x="593.3054138518221" y="36.70508472231842"/>
      <point x="638" y="320" type="curve" smooth="yes"/>
      <point x="703" y="732" type="line"/>
      <point x="679" y="732" type="line"/>
      <point x="614" y="320" type="line" smooth="yes"/>
      <point x="571.6874790390495" y="51.80371329366761"/>
      <point x="479" y="16"/>
      <point x="331" y="16" type="curve" smooth="yes"/>
      <point x="209" y="16"/>
      <point x="142" y="56"/>
      <point x="142" y="185" type="curve" smooth="yes"/>
      <point x="142" y="220"/>
      <point x="147" y="271"/>
      <point x="155" y="320" type="curve" smooth="yes"/>
      <point x="220" y="732" type="line"/>
      <point x="196" y="732" type="line"/>
    </contour>
  </outline>
</glyph>
<glyph name="V" format="2">
  <advance width="660"/>
  <unicode hex="0056"/>
  <note>
GF Latin Plus glyph
</note>
  <outline>
    <contour>
      <point x="161" y="732" type="line"/>
      <point x="307" y="0" type="line"/>
      <point x="341" y="0" type="line"/>
      <point x="731" y="732" type="line"/>
      <point x="706" y="732" type="line"/>
      <point x="328" y="26" type="line"/>
      <point x="186" y="732" type="line"/>
    </contour>
  </outline>
</glyph>
<glyph name="W" format="2">
  <advance width="980"/>
  <unicode hex="0057"/>
  <note>
GF Latin Plus glyph
</note>
  <anchor x="619" y="810" name="top"/>
  <anchor x="467" y="-150" name="bottom"/>
  <outline>
    <contour>
      <point x="161" y="732" type="line"/>
      <point x="277" y="0" type="line"/>
      <point x="311" y="0" type="line"/>
      <point x="601" y="702" type="line"/>
      <point x="657" y="0" type="line"/>
      <point x="691" y="0" type="line"/>
      <point x="1051" y="732" type="line"/>
      <point x="1025" y="732" type="line"/>
      <point x="678" y="26" type="line"/>
      <point x="622" y="732" type="line"/>
      <point x="588" y="732" type="line"/>
      <point x="297" y="25" type="line"/>
      <point x="186" y="732" type="line"/>
    </contour>
  </outline>
</glyph>
<glyph name="X" format="2">
  <advance width="586"/>
  <unicode hex="0058"/>
  <note>
GF Latin Plus glyph
</note>
  <anchor x="427" y="810" name="top"/>
  <anchor x="275" y="-150" name="bottom"/>
  <outline>
    <contour>
      <point x="48" y="0" type="line"/>
      <point x="79" y="0" type="line"/>
      <point x="349" y="346" type="line"/>
      <point x="337" y="375" type="line"/>
    </contour>
    <contour>
      <point x="347" y="379" type="line"/>
      <point x="359" y="354" type="line"/>
      <point x="657" y="732" type="line"/>
      <point x="626" y="732" type="line"/>
    </contour>
    <contour>
      <point x="340" y="354" type="line"/>
      <point x="508" y="0" type="line"/>
      <point x="536" y="0" type="line"/>
      <point x="357" y="374" type="line"/>
      <point x="189" y="732" type="line"/>
      <point x="161" y="732" type="line"/>
    </contour>
  </outline>
</glyph>
<glyph name="Y" format="2">
  <advance width="590"/>
  <unicode hex="0059"/>
  <note>
GF Latin Plus glyph
</note>
  <anchor x="407" y="810" name="top"/>
  <anchor x="255" y="-150" name="bottom"/>
  <anchor x="292" y="0" name="ogonek"/>
  <outline>
    <contour>
      <point x="146" y="732" type="line"/>
      <point x="314" y="260" type="line"/>
      <point x="273" y="0" type="line"/>
      <point x="297" y="0" type="line"/>
      <point x="338" y="260" type="line"/>
      <point x="676" y="732" type="line"/>
      <point x="647" y="732" type="line"/>
      <point x="329" y="292" type="line"/>
      <point x="173" y="732" type="line"/>
    </contour>
  </outline>
</glyph>
<glyph name="Z" format="2">
  <advance width="553"/>
  <unicode hex="005A"/>
  <note>
GF Latin Plus glyph
</note>
  <anchor x="387" y="810" name="top"/>
  <anchor x="235" y="-150" name="bottom"/>
  <outline>
    <contour>
      <point x="45" y="0" type="line"/>
      <point x="508" y="0" type="line"/>
      <point x="511" y="22" type="line"/>
      <point x="76" y="22" type="line"/>
      <point x="610" y="710" type="line"/>
      <point x="614" y="732" type="line"/>
      <point x="161" y="732" type="line"/>
      <point x="157" y="710" type="line"/>
      <point x="582" y="710" type="line"/>
      <point x="48" y="22" type="line"/>
    </contour>
  </outline>
</glyph>
<glyph name="bracketleft" format="1">
  <advance width="327"/>
  <unicode hex="005B"/>
  <note>
    GF Latin Plus glyph
  </note>
  <outline>
    <contour>
      <point x="109" y="-38" type="line" smooth="yes"/>
      <point x="107" y="-52"/>
      <point x="105" y="-69"/>
      <point x="105" y="-86" type="curve" smooth="yes"/>
      <point x="105" y="-144"/>
      <point x="125" y="-210"/>
      <point x="218" y="-210" type="curve" smooth="yes"/>
      <point x="268" y="-210" type="line"/>
      <point x="271" y="-188" type="line"/>
      <point x="221" y="-188" type="line" smooth="yes"/>
      <point x="154" y="-188"/>
      <point x="129" y="-143"/>
      <point x="129" y="-82" type="curve" smooth="yes"/>
      <point x="129" y="-68"/>
      <point x="131" y="-53"/>
      <point x="133" y="-38" type="curve" smooth="yes"/>
      <point x="245" y="670" type="line" smooth="yes"/>
      <point x="262" y="776"/>
      <point x="315" y="820"/>
      <point x="381" y="820" type="curve" smooth="yes"/>
      <point x="431" y="820" type="line"/>
      <point x="434" y="842" type="line"/>
      <point x="384" y="842" type="line" smooth="yes"/>
      <point x="263" y="842"/>
      <point x="231" y="730"/>
      <point x="221" y="670" type="curve" smooth="yes"/>
    </contour>
  </outline>
</glyph>
<glyph name="backslash" format="2">
  <advance width="354"/>
  <unicode hex="005C"/>
  <note>
GF Latin Plus glyph
</note>
  <outline>
    <contour>
      <point x="149" y="770" type="line"/>
      <point x="297" y="-72" type="line"/>
      <point x="316" y="-72" type="line"/>
      <point x="168" y="770" type="line"/>
    </contour>
  </outline>
</glyph>
<glyph name="bracketright" format="1">
  <advance width="327"/>
  <unicode hex="005D"/>
  <note>
    GF Latin Plus glyph
  </note>
  <outline>
    <contour>
      <point x="-3" y="-188" type="line"/>
      <point x="-6" y="-210" type="line"/>
      <point x="44" y="-210" type="line" smooth="yes"/>
      <point x="165" y="-210"/>
      <point x="197" y="-98"/>
      <point x="207" y="-38" type="curve" smooth="yes"/>
      <point x="319" y="670" type="line" smooth="yes"/>
      <point x="321" y="684"/>
      <point x="323" y="701"/>
      <point x="323" y="718" type="curve" smooth="yes"/>
      <point x="323" y="776"/>
      <point x="303" y="842"/>
      <point x="210" y="842" type="curve" smooth="yes"/>
      <point x="160" y="842" type="line"/>
      <point x="157" y="820" type="line"/>
      <point x="207" y="820" type="line" smooth="yes"/>
      <point x="263" y="820"/>
      <point x="299" y="789"/>
      <point x="299" y="716" type="curve" smooth="yes"/>
      <point x="299" y="702"/>
      <point x="298" y="687"/>
      <point x="295" y="670" type="curve" smooth="yes"/>
      <point x="183" y="-38" type="line" smooth="yes"/>
      <point x="170" y="-119"/>
      <point x="130" y="-188"/>
      <point x="47" y="-188" type="curve" smooth="yes"/>
    </contour>
  </outline>
</glyph>
<glyph name="asciicircum" format="2">
  <advance width="407"/>
  <unicode hex="005E"/>
  <note>
GF Latin Plus glyph
</note>
  <outline>
    <contour>
      <point x="152" y="531" type="line"/>
      <point x="305" y="661" type="line"/>
      <point x="325" y="661" type="line"/>
      <point x="424" y="531" type="line"/>
      <point x="406" y="531" type="line"/>
      <point x="312" y="646" type="line"/>
      <point x="170" y="531" type="line"/>
    </contour>
  </outline>
</glyph>
<glyph name="underscore" format="2">
  <advance width="609"/>
  <unicode hex="005F"/>
  <note>
GF Latin Plus glyph
</note>
  <outline>
    <contour>
      <point x="-22" y="-141" type="line"/>
      <point x="587" y="-141" type="line"/>
      <point x="590" y="-117" type="line"/>
      <point x="-19" y="-117" type="line"/>
    </contour>
  </outline>
</glyph>
<glyph name="a" format="2">
  <advance width="559"/>
  <unicode hex="0061"/>
  <note>
GF Latin Plus glyph
</note>
  <anchor x="383" y="650" name="top"/>
  <anchor x="257" y="-150" name="bottom"/>
  <anchor x="469" y="0" name="ogonek"/>
  <outline>
    <contour>
      <point x="125" y="258" type="curve" smooth="yes"/>
      <point x="153.9720573541263" y="439.82463580865465"/>
      <point x="206" y="515"/>
      <point x="367" y="515" type="curve" smooth="yes"/>
      <point x="445" y="515"/>
      <point x="503.78862421852523" y="491.72682546888484"/>
      <point x="530" y="476" type="curve"/>
      <point x="467" y="75" type="line"/>
      <point x="400.0" y="44.0"/>
      <point x="338" y="16"/>
      <point x="258" y="16" type="curve" smooth="yes"/>
      <point x="175" y="16"/>
      <point x="116.0" y="61.999999999999986"/>
      <point x="116" y="172" type="curve" smooth="yes"/>
      <point x="116" y="196"/>
      <point x="119" y="220"/>
    </contour>
    <contour>
      <point x="102" y="268" type="curve" smooth="yes"/>
      <point x="97" y="238"/>
      <point x="92" y="202"/>
      <point x="92" y="171" type="curve" smooth="yes"/>
      <point x="92" y="46"/>
      <point x="165" y="-6"/>
      <point x="259" y="-6" type="curve" smooth="yes"/>
      <point x="336" y="-6"/>
      <point x="436" y="40"/>
      <point x="465" y="59" type="curve"/>
      <point x="463" y="0" type="line"/>
      <point x="479" y="0" type="line"/>
      <point x="555" y="481" type="line"/>
      <point x="509.67468936914184" y="524.2650692385464"/>
      <point x="426" y="537"/>
      <point x="369" y="537" type="curve" smooth="yes"/>
      <point x="203" y="537"/>
      <point x="130.97559216766564" y="453.8434532133037"/>
    </contour>
  </outline>
</glyph>
<glyph name="b" format="2">
  <advance width="561"/>
  <unicode hex="0062"/>
  <note>
GF Latin Plus glyph
</note>
  <anchor x="257" y="-150" name="bottom"/>
  <anchor x="227" y="850" name="top"/>
  <outline>
    <contour>
      <point x="116" y="73" type="curve"/>
      <point x="176" y="456" type="line"/>
      <point x="249" y="490"/>
      <point x="321" y="515"/>
      <point x="390" y="515" type="curve" smooth="yes"/>
      <point x="468" y="515"/>
      <point x="527" y="472"/>
      <point x="527" y="363" type="curve" smooth="yes"/>
      <point x="527" y="334"/>
      <point x="523" y="300"/>
      <point x="517" y="261" type="curve" smooth="yes"/>
      <point x="492" y="106"/>
      <point x="428" y="16"/>
      <point x="303" y="16" type="curve" smooth="yes"/>
      <point x="224" y="16"/>
      <point x="165" y="46"/>
    </contour>
    <contour>
      <point x="80" y="0" type="line"/>
      <point x="96" y="0" type="line"/>
      <point x="113" y="57" type="line"/>
      <point x="157" y="27"/>
      <point x="234" y="-6"/>
      <point x="302" y="-6" type="curve" smooth="yes"/>
      <point x="436" y="-6"/>
      <point x="517" y="101"/>
      <point x="541" y="254" type="curve" smooth="yes"/>
      <point x="547" y="295"/>
      <point x="551" y="333"/>
      <point x="551" y="365" type="curve" smooth="yes"/>
      <point x="551" y="481"/>
      <point x="484" y="537"/>
      <point x="393" y="537" type="curve" smooth="yes"/>
      <point x="338" y="537"/>
      <point x="250" y="514"/>
      <point x="179" y="472" type="curve"/>
      <point x="225" y="763" type="line"/>
      <point x="201" y="763" type="line"/>
    </contour>
  </outline>
</glyph>
<glyph name="c" format="1">
  <advance width="485.0"/>
  <unicode hex="0063"/>
  <note>
    GF Latin Plus glyph
  </note>
  <outline>
    <contour>
      <point x="103" y="273" type="curve" smooth="yes"/>
      <point x="97.1057643322724" y="236.79255232681618"/>
      <point x="93.0" y="205.97297297297297"/>
      <point x="93" y="180" type="curve" smooth="yes"/>
      <point x="93.0" y="28.321428571428584"/>
      <point x="168.2716049382716" y="-6.0"/>
      <point x="275" y="-6" type="curve" smooth="yes"/>
      <point x="345.6842105263158" y="-6.0"/>
      <point x="403.8203969105118" y="-2.6856262884448827"/>
      <point x="445" y="0" type="curve"/>
      <point x="447" y="16" type="line"/>
      <point x="279" y="16" type="line" smooth="yes"/>
      <point x="174.04225352112675" y="16"/>
      <point x="117.0" y="46.32876712328766"/>
      <point x="117" y="180" type="curve" smooth="yes"/>
      <point x="117.0" y="202.95999999999998"/>
      <point x="121.05496120114259" y="229.85724780742675"/>
      <point x="126" y="262" type="curve" smooth="yes"/>
      <point x="158" y="465"/>
      <point x="241.44776119402985" y="515"/>
      <point x="347" y="515" type="curve" smooth="yes"/>
      <point x="512" y="515" type="line"/>
      <point x="516" y="531" type="line"/>
      <point x="466.863862253294" y="533.6801529680022"/>
      <point x="395" y="537"/>
      <point x="349" y="537" type="curve" smooth="yes"/>
      <point x="219" y="537"/>
      <point x="133" y="462"/>
    </contour>
    <contour>
      <point x="353.0" y="650.0" type="move" name="top"/>
    </contour>
    <contour>
      <point x="227.0" y="-150.0" type="move" name="bottom"/>
    </contour>
  </outline>
</glyph>
<glyph name="e" format="2">
  <advance width="548"/>
  <unicode hex="0065"/>
  <note>
GF Latin Plus glyph
</note>
  <anchor x="381" y="650" name="top"/>
  <anchor x="275" y="-150" name="bottom"/>
  <anchor x="458" y="0" name="ogonek"/>
  <outline>
    <contour>
      <point x="126" y="270" type="curve"/>
      <point x="148" y="428"/>
      <point x="206" y="519"/>
      <point x="368" y="519" type="curve" smooth="yes"/>
      <point x="473" y="519"/>
      <point x="526" y="489"/>
      <point x="526" y="404" type="curve" smooth="yes"/>
      <point x="526" y="285"/>
      <point x="415" y="258"/>
      <point x="269" y="258" type="curve" smooth="yes"/>
      <point x="215" y="258"/>
      <point x="162" y="263"/>
    </contour>
    <contour>
      <point x="95" y="171" type="curve" smooth="yes"/>
      <point x="95" y="52"/>
      <point x="162" y="-6"/>
      <point x="315" y="-6" type="curve" smooth="yes"/>
      <point x="372" y="-6"/>
      <point x="434" y="-2"/>
      <point x="468" y="0" type="curve"/>
      <point x="471" y="16" type="line"/>
      <point x="317" y="16" type="line" smooth="yes"/>
      <point x="174" y="16"/>
      <point x="119" y="64"/>
      <point x="119" y="173" type="curve" smooth="yes"/>
      <point x="119" y="199"/>
      <point x="120" y="227"/>
      <point x="124" y="254" type="curve"/>
      <point x="151" y="246"/>
      <point x="213" y="236"/>
      <point x="287" y="236" type="curve" smooth="yes"/>
      <point x="418" y="236"/>
      <point x="550" y="269"/>
      <point x="550" y="406" type="curve" smooth="yes"/>
      <point x="550" y="503"/>
      <point x="486" y="541"/>
      <point x="370" y="541" type="curve" smooth="yes"/>
      <point x="201" y="541"/>
      <point x="128" y="443"/>
      <point x="106" y="291" type="curve" smooth="yes"/>
      <point x="100" y="254"/>
      <point x="95" y="214"/>
    </contour>
  </outline>
</glyph>
<glyph name="f" format="2">
  <advance width="360"/>
  <unicode hex="0066"/>
  <note>
GF Latin Plus glyph
</note>
  <anchor x="117" y="-150" name="bottom"/>
  <anchor x="360" y="850" name="top"/>
  <outline>
    <contour>
      <point x="113" y="507" type="line"/>
      <point x="200" y="507" type="line"/>
      <point x="120" y="0" type="line"/>
      <point x="144" y="0" type="line"/>
      <point x="224" y="507" type="line"/>
      <point x="412" y="507" type="line"/>
      <point x="416" y="531" type="line"/>
      <point x="228" y="531" type="line"/>
      <point x="242" y="616" type="line" smooth="yes"/>
      <point x="255" y="694"/>
      <point x="271" y="748"/>
      <point x="355" y="748" type="curve" smooth="yes"/>
      <point x="471" y="748" type="line"/>
      <point x="473" y="764" type="line"/>
      <point x="439" y="767"/>
      <point x="394" y="769"/>
      <point x="358" y="769" type="curve" smooth="yes"/>
      <point x="232" y="769"/>
      <point x="227" y="670"/>
      <point x="218" y="616" type="curve" smooth="yes"/>
      <point x="204" y="531" type="line"/>
      <point x="116" y="523" type="line"/>
    </contour>
  </outline>
</glyph>
<glyph name="h" format="2">
  <advance width="564"/>
  <unicode hex="0068"/>
  <note>
GF Latin Plus glyph
</note>
  <anchor x="313" y="850" name="top"/>
  <anchor x="257" y="-150" name="bottom"/>
  <outline>
    <contour>
      <point x="80" y="0" type="line"/>
      <point x="104" y="0" type="line"/>
      <point x="176" y="453" type="line"/>
      <point x="256" y="496"/>
      <point x="314" y="518"/>
      <point x="402" y="518" type="curve" smooth="yes"/>
      <point x="478" y="518"/>
      <point x="521" y="488"/>
      <point x="521" y="409" type="curve" smooth="yes"/>
      <point x="521" y="395"/>
      <point x="520" y="380"/>
      <point x="517" y="363" type="curve" smooth="yes"/>
      <point x="460" y="0" type="line"/>
      <point x="484" y="0" type="line"/>
      <point x="543" y="370" type="line" smooth="yes"/>
      <point x="545" y="385"/>
      <point x="546" y="399"/>
      <point x="546" y="412" type="curve" smooth="yes"/>
      <point x="546" y="493"/>
      <point x="500" y="540"/>
      <point x="409" y="540" type="curve" smooth="yes"/>
      <point x="324" y="540"/>
      <point x="243" y="510"/>
      <point x="178" y="469" type="curve"/>
      <point x="225" y="763" type="line"/>
      <point x="201" y="763" type="line"/>
    </contour>
  </outline>
</glyph>
<glyph name="i" format="1">
  <advance width="184.0"/>
  <unicode hex="0069"/>
  <note>
    GF Latin Plus glyph
  </note>
  <outline>
    <contour>
      <point x="178" y="652" type="line" smooth="yes"/>
      <point x="177" y="645"/>
      <point x="181" y="640"/>
      <point x="188" y="640" type="curve" smooth="yes"/>
      <point x="199" y="640" type="line" smooth="yes"/>
      <point x="206" y="640"/>
      <point x="211" y="644"/>
      <point x="212" y="652" type="curve" smooth="yes"/>
      <point x="222" y="714" type="line" smooth="yes"/>
      <point x="223" y="721"/>
      <point x="221" y="726"/>
      <point x="213" y="726" type="curve" smooth="yes"/>
      <point x="202" y="726" type="line" smooth="yes"/>
      <point x="194" y="726"/>
      <point x="189" y="722"/>
      <point x="188" y="714" type="curve" smooth="yes"/>
    </contour>
    <component base="idotless"/>
    <contour>
      <point x="76" y="-150" type="move" name="bottom"/>
    </contour>
    <contour>
      <point x="94" y="0" type="move" name="ogonek"/>
    </contour>
  </outline>
</glyph>
<glyph name="j" format="2">
  <advance width="184"/>
  <unicode hex="006A"/>
  <note>
GF Latin Plus glyph
</note>
  <outline>
    <contour>
      <point x="178" y="652" type="line" smooth="yes"/>
      <point x="177" y="645"/>
      <point x="181" y="640"/>
      <point x="188" y="640" type="curve" smooth="yes"/>
      <point x="199" y="640" type="line" smooth="yes"/>
      <point x="206" y="640"/>
      <point x="211" y="644"/>
      <point x="212" y="652" type="curve" smooth="yes"/>
      <point x="222" y="714" type="line" smooth="yes"/>
      <point x="223" y="721"/>
      <point x="221" y="726"/>
      <point x="213" y="726" type="curve" smooth="yes"/>
      <point x="202" y="726" type="line" smooth="yes"/>
      <point x="194" y="726"/>
      <point x="189" y="722"/>
      <point x="188" y="714" type="curve" smooth="yes"/>
    </contour>
    <component base="jdotless"/>
  </outline>
</glyph>
<glyph name="k" format="2">
  <advance width="497"/>
  <unicode hex="006B"/>
  <note>
GF Latin Plus glyph
</note>
  <anchor x="227" y="-150" name="bottom"/>
  <outline>
    <contour>
      <point x="80" y="0" type="line"/>
      <point x="104" y="0" type="line"/>
      <point x="148" y="275" type="line"/>
      <point x="179" y="275"/>
      <point x="228" y="280"/>
      <point x="265" y="290" type="curve"/>
      <point x="429" y="0" type="line"/>
      <point x="457" y="0" type="line"/>
      <point x="289" y="297" type="line"/>
      <point x="366" y="327"/>
      <point x="442" y="391"/>
      <point x="483" y="531" type="curve"/>
      <point x="459" y="531" type="line"/>
      <point x="405" y="354"/>
      <point x="292" y="297"/>
      <point x="151" y="297" type="curve"/>
      <point x="225" y="763" type="line"/>
      <point x="201" y="763" type="line"/>
    </contour>
  </outline>
</glyph>
<glyph name="l" format="2">
  <advance width="269"/>
  <unicode hex="006C"/>
  <note>
GF Latin Plus glyph
</note>
  <anchor x="233" y="850" name="top"/>
  <anchor x="157" y="-150" name="bottom"/>
  <anchor x="227" y="650" name="altcaron"/>
  <anchor x="283" y="400" name="dot"/>
  <outline>
    <contour>
      <point x="108" y="179" type="line" smooth="yes"/>
      <point x="104" y="155"/>
      <point x="99" y="126"/>
      <point x="99" y="96" type="curve" smooth="yes"/>
      <point x="99.0" y="33.0"/>
      <point x="133" y="0"/>
      <point x="195" y="0" type="curve" smooth="yes"/>
      <point x="250" y="0" type="line"/>
      <point x="253" y="16" type="line"/>
      <point x="190" y="22" type="line" smooth="yes"/>
      <point x="149" y="26"/>
      <point x="123.0" y="45.0"/>
      <point x="123" y="97" type="curve" smooth="yes"/>
      <point x="123" y="128"/>
      <point x="129" y="158"/>
      <point x="132" y="179" type="curve" smooth="yes"/>
      <point x="225" y="763" type="line"/>
      <point x="201" y="763" type="line"/>
    </contour>
  </outline>
</glyph>
<glyph name="m" format="2">
  <advance width="943"/>
  <unicode hex="006D"/>
  <note>
GF Latin Plus glyph
</note>
  <anchor x="563" y="650" name="top"/>
  <anchor x="437" y="-150" name="bottom"/>
  <outline>
    <contour>
      <point x="80" y="0" type="line"/>
      <point x="104" y="0" type="line"/>
      <point x="176" y="453" type="line"/>
      <point x="256" y="493"/>
      <point x="314" y="518"/>
      <point x="402" y="518" type="curve" smooth="yes"/>
      <point x="492" y="518"/>
      <point x="522" y="471"/>
      <point x="522" y="410" type="curve" smooth="yes"/>
      <point x="522" y="390"/>
      <point x="520" y="380"/>
      <point x="517" y="359" type="curve" smooth="yes"/>
      <point x="460" y="0" type="line"/>
      <point x="484" y="0" type="line"/>
      <point x="541" y="359" type="line" smooth="yes"/>
      <point x="547" y="395"/>
      <point x="547" y="421"/>
      <point x="544" y="442" type="curve"/>
      <point x="621" y="487"/>
      <point x="687" y="518"/>
      <point x="781" y="518" type="curve" smooth="yes"/>
      <point x="862" y="518"/>
      <point x="902" y="482"/>
      <point x="902" y="409" type="curve" smooth="yes"/>
      <point x="902" y="395"/>
      <point x="900" y="380"/>
      <point x="898" y="370" type="curve" smooth="yes"/>
      <point x="839" y="0" type="line"/>
      <point x="863" y="0" type="line"/>
      <point x="922" y="370" type="line" smooth="yes"/>
      <point x="924" y="380"/>
      <point x="926" y="399"/>
      <point x="926" y="409" type="curve" smooth="yes"/>
      <point x="926" y="504"/>
      <point x="870" y="540"/>
      <point x="785" y="540" type="curve" smooth="yes"/>
      <point x="698" y="540"/>
      <point x="609" y="505"/>
      <point x="541" y="458" type="curve"/>
      <point x="524" y="506"/>
      <point x="491" y="540"/>
      <point x="406" y="540" type="curve" smooth="yes"/>
      <point x="325" y="540"/>
      <point x="243" y="507"/>
      <point x="178" y="469" type="curve"/>
      <point x="180" y="531" type="line"/>
      <point x="164" y="531" type="line"/>
    </contour>
  </outline>
</glyph>
<glyph name="o" format="2">
  <advance width="560"/>
  <unicode hex="006F"/>
  <note>
GF Latin Plus glyph
</note>
  <anchor x="377" y="650" name="top"/>
  <anchor x="251" y="-150" name="bottom"/>
  <anchor x="345" y="0" name="ogonek"/>
  <outline>
    <contour>
      <point x="126" y="258" type="curve" smooth="yes"/>
      <point x="160" y="469"/>
      <point x="220" y="515"/>
      <point x="360" y="515" type="curve" smooth="yes"/>
      <point x="480" y="515"/>
      <point x="525" y="470"/>
      <point x="525" y="356" type="curve" smooth="yes"/>
      <point x="525" y="328"/>
      <point x="522" y="296"/>
      <point x="516" y="258" type="curve" smooth="yes"/>
      <point x="484" y="54"/>
      <point x="415" y="16"/>
      <point x="284" y="16" type="curve" smooth="yes"/>
      <point x="188" y="16"/>
      <point x="118" y="42"/>
      <point x="118" y="170" type="curve" smooth="yes"/>
      <point x="118" y="195"/>
      <point x="121" y="224"/>
    </contour>
    <contour>
      <point x="102" y="265" type="curve" smooth="yes"/>
      <point x="96.89472583818251" y="230.28413569964113"/>
      <point x="94" y="199"/>
      <point x="94" y="170" type="curve" smooth="yes"/>
      <point x="94" y="35"/>
      <point x="172" y="-6"/>
      <point x="279" y="-6" type="curve" smooth="yes"/>
      <point x="440" y="-6"/>
      <point x="509" y="56"/>
      <point x="540" y="251" type="curve" smooth="yes"/>
      <point x="545.8370520222785" y="289.9136801485231"/>
      <point x="550.0" y="324.8888888888889"/>
      <point x="550" y="356" type="curve" smooth="yes"/>
      <point x="550.0" y="474.9719101123596"/>
      <point x="496" y="537"/>
      <point x="365" y="537" type="curve" smooth="yes"/>
      <point x="206" y="537"/>
      <point x="136" y="477"/>
    </contour>
  </outline>
</glyph>
<glyph name="p" format="2">
  <advance width="560"/>
  <unicode hex="0070"/>
  <note>
GF Latin Plus glyph
</note>
  <anchor x="377" y="650" name="top"/>
  <outline>
    <contour>
      <point x="111" y="49" type="curve"/>
      <point x="184" y="513" type="line"/>
      <point x="384" y="515" type="line" smooth="yes"/>
      <point x="482" y="516"/>
      <point x="527" y="461"/>
      <point x="527" y="360" type="curve" smooth="yes"/>
      <point x="527" y="328"/>
      <point x="521" y="293"/>
      <point x="517" y="268" type="curve" smooth="yes"/>
      <point x="491" y="107"/>
      <point x="438" y="16"/>
      <point x="294" y="16" type="curve" smooth="yes"/>
      <point x="220" y="16"/>
      <point x="188" y="24"/>
    </contour>
    <contour>
      <point x="42" y="-237" type="line"/>
      <point x="66" y="-237" type="line"/>
      <point x="109" y="33" type="line"/>
      <point x="170" y="4"/>
      <point x="223" y="-6"/>
      <point x="293" y="-6" type="curve" smooth="yes"/>
      <point x="454" y="-6"/>
      <point x="516" y="103"/>
      <point x="541" y="261" type="curve" smooth="yes"/>
      <point x="546" y="289"/>
      <point x="551" y="326"/>
      <point x="551" y="361" type="curve" smooth="yes"/>
      <point x="551" y="482"/>
      <point x="489" y="537"/>
      <point x="385" y="537" type="curve" smooth="yes"/>
      <point x="284" y="537"/>
      <point x="210" y="534"/>
      <point x="164" y="529" type="curve"/>
    </contour>
  </outline>
</glyph>
<glyph name="q" format="2">
  <advance width="560"/>
  <unicode hex="0071"/>
  <note>
GF Latin Plus glyph
</note>
  <outline>
    <contour>
      <point x="128" y="269" type="curve" smooth="yes"/>
      <point x="155" y="442"/>
      <point x="218" y="519"/>
      <point x="392" y="515" type="curve" smooth="yes"/>
      <point x="416" y="514"/>
      <point x="488.048" y="510.331"/>
      <point x="536" y="508" type="curve"/>
      <point x="468" y="75" type="line"/>
      <point x="389" y="39"/>
      <point x="322" y="16"/>
      <point x="248" y="16" type="curve" smooth="yes"/>
      <point x="172" y="16"/>
      <point x="118" y="69"/>
      <point x="118" y="166" type="curve" smooth="yes"/>
      <point x="118" y="196"/>
      <point x="122" y="231"/>
    </contour>
    <contour>
      <point x="104" y="275" type="curve" smooth="yes"/>
      <point x="98" y="236"/>
      <point x="94" y="200"/>
      <point x="94" y="166" type="curve" smooth="yes"/>
      <point x="94" y="64"/>
      <point x="153" y="-6"/>
      <point x="243" y="-6" type="curve" smooth="yes"/>
      <point x="298" y="-6"/>
      <point x="386" y="11"/>
      <point x="465" y="59" type="curve"/>
      <point x="418" y="-237" type="line"/>
      <point x="442" y="-237" type="line"/>
      <point x="563" y="524" type="line"/>
      <point x="520" y="530"/>
      <point x="445" y="537"/>
      <point x="388" y="537" type="curve" smooth="yes"/>
      <point x="191" y="537"/>
      <point x="131" y="443"/>
    </contour>
  </outline>
</glyph>
<glyph name="r" format="2">
  <advance width="376"/>
  <unicode hex="0072"/>
  <note>
GF Latin Plus glyph
</note>
  <anchor x="293" y="650" name="top"/>
  <anchor x="71" y="-150" name="bottom"/>
  <outline>
    <contour>
      <point x="80" y="0" type="line"/>
      <point x="104" y="0" type="line"/>
      <point x="176" y="453" type="line"/>
      <point x="226" y="484"/>
      <point x="284" y="513"/>
      <point x="351" y="513" type="curve" smooth="yes"/>
      <point x="380" y="513"/>
      <point x="405" y="510"/>
      <point x="426" y="505" type="curve"/>
      <point x="430" y="529" type="line"/>
      <point x="411" y="535"/>
      <point x="384" y="537"/>
      <point x="355" y="537" type="curve" smooth="yes"/>
      <point x="285" y="537"/>
      <point x="224" y="504"/>
      <point x="178" y="469" type="curve"/>
      <point x="180" y="531" type="line"/>
      <point x="164" y="531" type="line"/>
    </contour>
  </outline>
</glyph>
<glyph name="s" format="2">
  <advance width="502"/>
  <unicode hex="0073"/>
  <note>
GF Latin Plus glyph
</note>
  <anchor x="342" y="650" name="top"/>
  <anchor x="216" y="-150" name="bottom"/>
  <outline>
    <contour>
      <point x="67" y="0" type="line"/>
      <point x="99.45113128394061" y="-3.508230409074661"/>
      <point x="235.09958506224066" y="-6.0"/>
      <point x="278" y="-6" type="curve" smooth="yes"/>
      <point x="378.6887417218543" y="-6.0"/>
      <point x="445.55072369007195" y="24.623182601690743"/>
      <point x="459" y="107" type="curve" smooth="yes"/>
      <point x="467" y="156" type="line" smooth="yes"/>
      <point x="468" y="164"/>
      <point x="469" y="171"/>
      <point x="469" y="178" type="curve" smooth="yes"/>
      <point x="469" y="243"/>
      <point x="421" y="276"/>
      <point x="355" y="276" type="curve" smooth="yes"/>
      <point x="243" y="276" type="line" smooth="yes"/>
      <point x="170" y="276"/>
      <point x="139" y="289"/>
      <point x="139" y="329" type="curve" smooth="yes"/>
      <point x="139" y="338"/>
      <point x="140" y="349"/>
      <point x="143" y="369" type="curve" smooth="yes"/>
      <point x="151" y="415" type="line" smooth="yes"/>
      <point x="162.69168563859728" y="482.2271924219344"/>
      <point x="199.48837209302326" y="515"/>
      <point x="290" y="515" type="curve" smooth="yes"/>
      <point x="487" y="515" type="line"/>
      <point x="491" y="531" type="line"/>
      <point x="444.358086295948" y="533.8556273696358"/>
      <point x="341.5845410628019" y="537.0"/>
      <point x="294" y="537" type="curve" smooth="yes"/>
      <point x="184.43949044585986" y="537.0"/>
      <point x="140.06718199040114" y="490.1362964448066"/>
      <point x="127" y="415" type="curve" smooth="yes"/>
      <point x="119" y="369" type="line" smooth="yes"/>
      <point x="116" y="354"/>
      <point x="115" y="341"/>
      <point x="115" y="329" type="curve" smooth="yes"/>
      <point x="115" y="275"/>
      <point x="153" y="252"/>
      <point x="241" y="252" type="curve" smooth="yes"/>
      <point x="354" y="252" type="line" smooth="yes"/>
      <point x="415" y="252"/>
      <point x="444" y="229"/>
      <point x="444" y="179" type="curve" smooth="yes"/>
      <point x="444" y="173"/>
      <point x="444" y="168"/>
      <point x="443" y="162" type="curve" smooth="yes"/>
      <point x="435" y="113" type="line" smooth="yes"/>
      <point x="422.98826645788756" y="39.42813205456122"/>
      <point x="367.1125827814569" y="16"/>
      <point x="282" y="16" type="curve" smooth="yes"/>
      <point x="70" y="16" type="line"/>
    </contour>
  </outline>
</glyph>
<glyph name="v" format="2">
  <advance width="529"/>
  <unicode hex="0076"/>
  <note>
GF Latin Plus glyph
</note>
  <outline>
    <contour>
      <point x="104" y="531" type="line"/>
      <point x="239" y="0" type="line"/>
      <point x="263" y="0" type="line"/>
      <point x="503" y="414" type="line" smooth="yes"/>
      <point x="529.942052050263" y="460.4750397867037"/>
      <point x="541.0" y="501.6068376068376"/>
      <point x="541" y="539" type="curve"/>
      <point x="525" y="539" type="line"/>
      <point x="517.4785988297081" y="498.16953650412967"/>
      <point x="505.9433020129416" y="463.0841307409124"/>
      <point x="485" y="427" type="curve" smooth="yes"/>
      <point x="254" y="29" type="line"/>
      <point x="128" y="531" type="line"/>
    </contour>
  </outline>
</glyph>
<glyph name="w" format="2">
  <advance width="798"/>
  <unicode hex="0077"/>
  <note>
GF Latin Plus glyph
</note>
  <anchor x="483" y="650" name="top"/>
  <anchor x="357" y="-150" name="bottom"/>
  <outline>
    <contour>
      <point x="104" y="531" type="line"/>
      <point x="216" y="0" type="line"/>
      <point x="242" y="0" type="line"/>
      <point x="457" y="499" type="line"/>
      <point x="544" y="0" type="line"/>
      <point x="571" y="0" type="line"/>
      <point x="781" y="427" type="line" smooth="yes"/>
      <point x="799" y="464"/>
      <point x="811" y="506"/>
      <point x="811" y="539" type="curve"/>
      <point x="795" y="539" type="line"/>
      <point x="790" y="508"/>
      <point x="775" y="465"/>
      <point x="764" y="443" type="curve" smooth="yes"/>
      <point x="562" y="30" type="line"/>
      <point x="473" y="531" type="line"/>
      <point x="447" y="531" type="line"/>
      <point x="233" y="32" type="line"/>
      <point x="128" y="531" type="line"/>
    </contour>
  </outline>
</glyph>
<glyph name="x" format="2">
  <advance width="506"/>
  <unicode hex="0078"/>
  <note>
GF Latin Plus glyph
</note>
  <anchor x="361" y="650" name="top"/>
  <anchor x="235" y="-150" name="bottom"/>
  <outline>
    <contour>
      <point x="45" y="0" type="line"/>
      <point x="73" y="0" type="line"/>
      <point x="294" y="250" type="line"/>
      <point x="287" y="274" type="line"/>
    </contour>
    <contour>
      <point x="298" y="282" type="line"/>
      <point x="305" y="259" type="line"/>
      <point x="545" y="531" type="line"/>
      <point x="517" y="531" type="line"/>
    </contour>
    <contour>
      <point x="289" y="254" type="line"/>
      <point x="436" y="0" type="line"/>
      <point x="461" y="0" type="line"/>
      <point x="305" y="271" type="line"/>
      <point x="154" y="531" type="line"/>
      <point x="129" y="531" type="line"/>
    </contour>
  </outline>
</glyph>
<glyph name="y" format="2">
  <advance width="543"/>
  <unicode hex="0079"/>
  <note>
GF Latin Plus glyph
</note>
  <anchor x="343" y="650" name="top"/>
  <anchor x="397" y="-150" name="bottom"/>
  <outline>
    <contour>
      <point x="104" y="531" type="line"/>
      <point x="187" y="110" type="line" smooth="yes"/>
      <point x="206" y="12"/>
      <point x="254" y="5"/>
      <point x="293" y="0" type="curve"/>
      <point x="224.93300893520558" y="-143.39446117650022"/>
      <point x="149" y="-202"/>
      <point x="97" y="-215" type="curve"/>
      <point x="97" y="-237" type="line"/>
      <point x="174" y="-222"/>
      <point x="241" y="-164"/>
      <point x="320" y="1" type="curve" smooth="yes"/>
      <point x="533" y="446" type="line" smooth="yes"/>
      <point x="550" y="481"/>
      <point x="554" y="509"/>
      <point x="554" y="539" type="curve"/>
      <point x="538" y="539" type="line"/>
      <point x="535" y="509"/>
      <point x="520" y="476"/>
      <point x="510" y="454" type="curve" smooth="yes"/>
      <point x="305" y="25" type="line"/>
      <point x="262" y="28"/>
      <point x="225" y="39"/>
      <point x="210" y="116" type="curve" smooth="yes"/>
      <point x="128" y="531" type="line"/>
    </contour>
  </outline>
</glyph>
<glyph name="z" format="2">
  <advance width="497"/>
  <unicode hex="007A"/>
  <note>
GF Latin Plus glyph
</note>
  <anchor x="347" y="650" name="top"/>
  <anchor x="221" y="-150" name="bottom"/>
  <outline>
    <contour>
      <point x="65" y="1" type="line"/>
      <point x="446" y="1" type="line"/>
      <point x="446" y="1"/>
      <point x="451" y="22"/>
      <point x="450" y="23" type="curve"/>
      <point x="95" y="23" type="line"/>
      <point x="507" y="509" type="line"/>
      <point x="510" y="531" type="line"/>
      <point x="134" y="531" type="line"/>
      <point x="131" y="509" type="line"/>
      <point x="480" y="509" type="line"/>
      <point x="68" y="22" type="line"/>
    </contour>
  </outline>
</glyph>
<glyph name="bar" format="2">
  <advance width="254"/>
  <unicode hex="007C"/>
  <note>
GF Latin Plus glyph
</note>
  <outline>
    <contour>
      <point x="104" y="-72" type="line"/>
      <point x="128" y="-72" type="line"/>
      <point x="261" y="770" type="line"/>
      <point x="237" y="770" type="line"/>
    </contour>
  </outline>
</glyph>
<glyph name="braceright" format="2">
  <advance width="304"/>
  <unicode hex="007D"/>
  <note>
GF Latin Plus glyph
</note>
  <outline>
    <contour>
      <point x="0" y="-188" type="curve"/>
      <point x="-3" y="-210" type="line"/>
      <point x="146" y="-210"/>
      <point x="173" y="-116"/>
      <point x="185" y="-38" type="curve" smooth="yes"/>
      <point x="227" y="227" type="line" smooth="yes"/>
      <point x="236" y="281"/>
      <point x="282" y="300"/>
      <point x="328" y="300" type="curve"/>
      <point x="332" y="327" type="line"/>
      <point x="302" y="330"/>
      <point x="253" y="340"/>
      <point x="253" y="388" type="curve" smooth="yes"/>
      <point x="253" y="415"/>
      <point x="299.0" y="691.6470588235294"/>
      <point x="299" y="714" type="curve" smooth="yes"/>
      <point x="299" y="785"/>
      <point x="270" y="842"/>
      <point x="164" y="842" type="curve"/>
      <point x="160" y="820" type="line"/>
      <point x="233" y="820"/>
      <point x="275" y="792"/>
      <point x="275" y="711" type="curve" smooth="yes"/>
      <point x="275" y="671"/>
      <point x="229" y="431"/>
      <point x="229" y="386" type="curve" smooth="yes"/>
      <point x="229" y="346"/>
      <point x="258" y="319"/>
      <point x="296" y="314" type="curve"/>
      <point x="242" y="308"/>
      <point x="211" y="273"/>
      <point x="204" y="231" type="curve" smooth="yes"/>
      <point x="161" y="-38" type="line" smooth="yes"/>
      <point x="142" y="-154"/>
      <point x="91" y="-188"/>
    </contour>
  </outline>
</glyph>
<glyph name="cent" format="2">
  <advance width="488"/>
  <unicode hex="00A2"/>
  <note>
GF Latin Plus glyph
</note>
  <outline>
    <contour>
      <point x="189" y="536"/>
      <point x="87" y="357"/>
      <point x="87" y="164" type="curve" smooth="yes"/>
      <point x="87" y="27"/>
      <point x="160" y="-5"/>
      <point x="251" y="-5" type="curve"/>
      <point x="239" y="-82" type="line"/>
      <point x="257" y="-82" type="line"/>
      <point x="269" y="-4" type="line"/>
      <point x="329" y="0"/>
      <point x="368" y="5"/>
      <point x="438" y="24" type="curve"/>
      <point x="440" y="40" type="line"/>
      <point x="369" y="26"/>
      <point x="326" y="17"/>
      <point x="250" y="17" type="curve" smooth="yes"/>
      <point x="166" y="17"/>
      <point x="111" y="43"/>
      <point x="111" y="164" type="curve" smooth="yes"/>
      <point x="111" y="347"/>
      <point x="201" y="514"/>
      <point x="335" y="514" type="curve" smooth="yes"/>
      <point x="397" y="514"/>
      <point x="451" y="507"/>
      <point x="506" y="496" type="curve"/>
      <point x="508" y="510" type="line"/>
      <point x="462" y="522"/>
      <point x="402" y="532"/>
      <point x="355" y="535" type="curve"/>
      <point x="368" y="618" type="line"/>
      <point x="350" y="618" type="line"/>
      <point x="337" y="536" type="line"/>
    </contour>
  </outline>
</glyph>
<glyph name="sterling" format="2">
  <advance width="609"/>
  <unicode hex="00A3"/>
  <note>
GF Latin Plus glyph
</note>
  <outline>
    <contour>
      <point x="68" y="0" type="line"/>
      <point x="532" y="0" type="line"/>
      <point x="535" y="22" type="line"/>
      <point x="217" y="22" type="line"/>
      <point x="269" y="348" type="line"/>
      <point x="510" y="351" type="line"/>
      <point x="512" y="367" type="line"/>
      <point x="273" y="370" type="line"/>
      <point x="299" y="535" type="line" smooth="yes"/>
      <point x="322" y="683"/>
      <point x="385" y="710"/>
      <point x="492" y="710" type="curve" smooth="yes"/>
      <point x="626" y="710" type="line"/>
      <point x="629" y="726" type="line"/>
      <point x="595" y="728"/>
      <point x="541" y="732"/>
      <point x="494" y="732" type="curve" smooth="yes"/>
      <point x="387" y="732"/>
      <point x="301" y="701"/>
      <point x="275" y="535" type="curve" smooth="yes"/>
      <point x="249" y="370" type="line"/>
      <point x="126" y="367" type="line"/>
      <point x="124" y="351" type="line"/>
      <point x="245" y="348" type="line"/>
      <point x="193" y="22" type="line"/>
      <point x="71" y="16" type="line"/>
    </contour>
  </outline>
</glyph>
<glyph name="currency" format="2">
  <advance width="609"/>
  <unicode hex="00A4"/>
  <note>
GF Latin Plus glyph
</note>
  <outline>
    <contour>
      <point x="383" y="511" type="curve" smooth="yes"/>
      <point x="283" y="511"/>
      <point x="205" y="438"/>
      <point x="205" y="335" type="curve" smooth="yes"/>
      <point x="205" y="261"/>
      <point x="262" y="201"/>
      <point x="339" y="201" type="curve" smooth="yes"/>
      <point x="439" y="201"/>
      <point x="518" y="274"/>
      <point x="518" y="377" type="curve" smooth="yes"/>
      <point x="518" y="451"/>
      <point x="460" y="511"/>
    </contour>
    <contour>
      <point x="283" y="469" type="line"/>
      <point x="195" y="573" type="line"/>
      <point x="176" y="556" type="line"/>
      <point x="263" y="452" type="line"/>
    </contour>
    <contour>
      <point x="487" y="450" type="line"/>
      <point x="610" y="556" type="line"/>
      <point x="595" y="573" type="line"/>
      <point x="473" y="467" type="line"/>
    </contour>
    <contour>
      <point x="546" y="156" type="line"/>
      <point x="457" y="262" type="line"/>
      <point x="437" y="245" type="line"/>
      <point x="527" y="139" type="line"/>
    </contour>
    <contour>
      <point x="127" y="139" type="line"/>
      <point x="252" y="247" type="line"/>
      <point x="237" y="264" type="line"/>
      <point x="112" y="156" type="line"/>
    </contour>
    <contour>
      <point x="382" y="487" type="curve" smooth="yes"/>
      <point x="447" y="487"/>
      <point x="494" y="439"/>
      <point x="494" y="376" type="curve" smooth="yes"/>
      <point x="494" y="279"/>
      <point x="425" y="225"/>
      <point x="340" y="225" type="curve" smooth="yes"/>
      <point x="276" y="225"/>
      <point x="230" y="274"/>
      <point x="230" y="336" type="curve" smooth="yes"/>
      <point x="230" y="426"/>
      <point x="298.47058823529414" y="487.0"/>
    </contour>
  </outline>
</glyph>
<glyph name="brokenbar" format="2">
  <advance width="254"/>
  <unicode hex="00A6"/>
  <note>
GF Latin Plus glyph
</note>
  <outline>
    <contour>
      <point x="183" y="429" type="line"/>
      <point x="207" y="429" type="line"/>
      <point x="261" y="770" type="line"/>
      <point x="237" y="770" type="line"/>
    </contour>
    <contour>
      <point x="104" y="-72" type="line"/>
      <point x="128" y="-72" type="line"/>
      <point x="180" y="256" type="line"/>
      <point x="156" y="256" type="line"/>
    </contour>
  </outline>
</glyph>
<glyph name="section" format="1">
  <advance width="559"/>
  <unicode hex="00A7"/>
  <note>
    GF Latin Plus glyph
  </note>
  <outline>
    <contour>
      <point x="144" y="353" type="curve" smooth="yes"/>
      <point x="154" y="414" type="line" smooth="yes"/>
      <point x="164" y="481"/>
      <point x="194" y="496"/>
      <point x="283" y="496" type="curve" smooth="yes"/>
      <point x="452" y="496" type="line" smooth="yes"/>
      <point x="518.8148148148148" y="496"/>
      <point x="540.0" y="486.0"/>
      <point x="540" y="444" type="curve" smooth="yes"/>
      <point x="540" y="436"/>
      <point x="539" y="427"/>
      <point x="537" y="416" type="curve" smooth="yes"/>
      <point x="527" y="354" type="line" smooth="yes"/>
      <point x="516" y="282"/>
      <point x="504" y="277"/>
      <point x="397" y="277" type="curve" smooth="yes"/>
      <point x="248" y="277" type="line" smooth="yes"/>
      <point x="165" y="277"/>
      <point x="142" y="298"/>
      <point x="142" y="334" type="curve" smooth="yes"/>
      <point x="142" y="340"/>
      <point x="143" y="346"/>
    </contour>
    <contour>
      <point x="122" y="367" type="line" smooth="yes"/>
      <point x="119" y="347"/>
      <point x="118" y="336"/>
      <point x="118" y="328" type="curve" smooth="yes"/>
      <point x="118" y="280"/>
      <point x="154" y="255"/>
      <point x="244" y="255" type="curve" smooth="yes"/>
      <point x="393" y="255" type="line" smooth="yes"/>
      <point x="473" y="255"/>
      <point x="493" y="246"/>
      <point x="493" y="212" type="curve" smooth="yes"/>
      <point x="493" y="200"/>
      <point x="488" y="174"/>
      <point x="478" y="110" type="curve" smooth="yes"/>
      <point x="470" y="56"/>
      <point x="441" y="16"/>
      <point x="320" y="16" type="curve" smooth="yes"/>
      <point x="114" y="16" type="line"/>
      <point x="111" y="0" type="line"/>
      <point x="144" y="-3"/>
      <point x="273" y="-6"/>
      <point x="316" y="-6" type="curve" smooth="yes"/>
      <point x="424" y="-6"/>
      <point x="489" y="23"/>
      <point x="502" y="110" type="curve" smooth="yes"/>
      <point x="511" y="163" type="line" smooth="yes"/>
      <point x="516" y="193"/>
      <point x="517" y="204"/>
      <point x="517" y="215" type="curve" smooth="yes"/>
      <point x="517" y="239"/>
      <point x="509" y="257"/>
      <point x="476" y="267" type="curve"/>
      <point x="523" y="272"/>
      <point x="541" y="292"/>
      <point x="551" y="354" type="curve" smooth="yes"/>
      <point x="561" y="416" type="line" smooth="yes"/>
      <point x="563" y="428"/>
      <point x="564" y="440"/>
      <point x="564" y="450" type="curve" smooth="yes"/>
      <point x="564.0" y="499.0"/>
      <point x="539" y="518"/>
      <point x="455" y="518" type="curve" smooth="yes"/>
      <point x="286" y="518" type="line" smooth="yes"/>
      <point x="224" y="518"/>
      <point x="190" y="525"/>
      <point x="190" y="571" type="curve" smooth="yes"/>
      <point x="190" y="582"/>
      <point x="193" y="603"/>
      <point x="203" y="660" type="curve" smooth="yes"/>
      <point x="218" y="748"/>
      <point x="268" y="762"/>
      <point x="345" y="762" type="curve" smooth="yes"/>
      <point x="569" y="762" type="line"/>
      <point x="571" y="778" type="line"/>
      <point x="537" y="782"/>
      <point x="393" y="784"/>
      <point x="348" y="784" type="curve" smooth="yes"/>
      <point x="249" y="784"/>
      <point x="195" y="758"/>
      <point x="179" y="660" type="curve" smooth="yes"/>
      <point x="169" y="599" type="line" smooth="yes"/>
      <point x="167" y="584"/>
      <point x="167" y="576"/>
      <point x="167" y="568" type="curve" smooth="yes"/>
      <point x="167" y="539"/>
      <point x="176" y="517"/>
      <point x="209" y="506" type="curve"/>
      <point x="167" y="499"/>
      <point x="140" y="481"/>
      <point x="130" y="415" type="curve" smooth="yes"/>
    </contour>
  </outline>
</glyph>
<glyph name="copyright" format="2">
  <advance width="864"/>
  <unicode hex="00A9"/>
  <note>
GF Latin Plus glyph
</note>
  <outline>
    <contour>
      <point x="390" y="583"/>
      <point x="301" y="458"/>
      <point x="301" y="285" type="curve" smooth="yes"/>
      <point x="301" y="175"/>
      <point x="352" y="147"/>
      <point x="417" y="147" type="curve" smooth="yes"/>
      <point x="484" y="147"/>
      <point x="538" y="150"/>
      <point x="605" y="168" type="curve"/>
      <point x="606" y="177" type="line"/>
      <point x="557" y="166"/>
      <point x="491" y="161"/>
      <point x="419" y="161" type="curve" smooth="yes"/>
      <point x="345" y="161"/>
      <point x="317" y="206"/>
      <point x="317" y="287" type="curve" smooth="yes"/>
      <point x="317" y="430"/>
      <point x="392" y="569"/>
      <point x="484" y="569" type="curve" smooth="yes"/>
      <point x="517" y="569"/>
      <point x="599" y="566"/>
      <point x="660" y="557" type="curve"/>
      <point x="662" y="566" type="line"/>
      <point x="607" y="576"/>
      <point x="527" y="583"/>
      <point x="486" y="583" type="curve" smooth="yes"/>
    </contour>
    <contour>
      <point x="139" y="519"/>
      <point x="298" y="718"/>
      <point x="429" y="718" type="curve" smooth="yes"/>
      <point x="685" y="718" type="line" smooth="yes"/>
      <point x="801" y="718"/>
      <point x="845" y="623"/>
      <point x="845" y="492" type="curve" smooth="yes"/>
      <point x="845" y="248"/>
      <point x="716" y="14"/>
      <point x="573" y="14" type="curve" smooth="yes"/>
      <point x="317" y="14" type="line" smooth="yes"/>
      <point x="180" y="14"/>
      <point x="139" y="145"/>
      <point x="139" y="279" type="curve" smooth="yes"/>
    </contour>
    <contour>
      <point x="283" y="732"/>
      <point x="123" y="512"/>
      <point x="123" y="279" type="curve" smooth="yes"/>
      <point x="123" y="150"/>
      <point x="168" y="0"/>
      <point x="315" y="0" type="curve" smooth="yes"/>
      <point x="571" y="0" type="line" smooth="yes"/>
      <point x="721" y="0"/>
      <point x="861" y="237"/>
      <point x="861" y="495" type="curve" smooth="yes"/>
      <point x="861" y="618"/>
      <point x="817" y="732"/>
      <point x="687" y="732" type="curve" smooth="yes"/>
      <point x="431" y="732" type="line" smooth="yes"/>
    </contour>
  </outline>
</glyph>
<glyph name="logicalnot" format="2">
  <advance width="609"/>
  <unicode hex="00AC"/>
  <note>
GF Latin Plus glyph
</note>
  <outline>
    <contour>
      <point x="564" y="224" type="line"/>
      <point x="606" y="488" type="line"/>
      <point x="582" y="488" type="line"/>
      <point x="540" y="224" type="line"/>
    </contour>
    <component base="minus" xOffset="19" yOffset="120"/>
  </outline>
</glyph>
<glyph name="uni00AD" format="2">
  <advance width="361"/>
  <unicode hex="00AD"/>
  <outline>
    <contour>
      <point x="60" y="278" type="line"/>
      <point x="64" y="302" type="line"/>
      <point x="378" y="302" type="line"/>
      <point x="374" y="278" type="line"/>
    </contour>
  </outline>
</glyph>
<glyph name="registered" format="1">
  <advance width="864"/>
  <unicode hex="00AE"/>
  <note>
    GF Latin Plus glyph
  </note>
  <outline>
    <contour>
      <point x="356" y="359" type="line"/>
      <point x="389" y="566" type="line"/>
      <point x="558" y="566" type="line" smooth="yes"/>
      <point x="613" y="566"/>
      <point x="647" y="546"/>
      <point x="647" y="486" type="curve" smooth="yes"/>
      <point x="647" y="420"/>
      <point x="595" y="359"/>
      <point x="524" y="359" type="curve" smooth="yes"/>
    </contour>
    <contour>
      <point x="309" y="153" type="line"/>
      <point x="323" y="153" type="line"/>
      <point x="354" y="350" type="line"/>
      <point x="517" y="345" type="line"/>
      <point x="597" y="153" type="line"/>
      <point x="610" y="153" type="line"/>
      <point x="530" y="346" type="line"/>
      <point x="606" y="351"/>
      <point x="661" y="414"/>
      <point x="661" y="490" type="curve" smooth="yes"/>
      <point x="661" y="565"/>
      <point x="612" y="580"/>
      <point x="554" y="580" type="curve" smooth="yes"/>
      <point x="377" y="580" type="line"/>
    </contour>
    <contour>
      <point x="139" y="519"/>
      <point x="298" y="718"/>
      <point x="429" y="718" type="curve" smooth="yes"/>
      <point x="685" y="718" type="line" smooth="yes"/>
      <point x="801" y="718"/>
      <point x="845" y="623"/>
      <point x="845" y="492" type="curve" smooth="yes"/>
      <point x="845" y="248"/>
      <point x="716" y="14"/>
      <point x="573" y="14" type="curve" smooth="yes"/>
      <point x="317" y="14" type="line" smooth="yes"/>
      <point x="180" y="14"/>
      <point x="139" y="145"/>
      <point x="139" y="279" type="curve" smooth="yes"/>
    </contour>
    <contour>
      <point x="283" y="732"/>
      <point x="123" y="512"/>
      <point x="123" y="279" type="curve" smooth="yes"/>
      <point x="123" y="150"/>
      <point x="168" y="0"/>
      <point x="315" y="0" type="curve" smooth="yes"/>
      <point x="571" y="0" type="line" smooth="yes"/>
      <point x="721" y="0"/>
      <point x="861" y="237"/>
      <point x="861" y="495" type="curve" smooth="yes"/>
      <point x="861" y="618"/>
      <point x="817" y="732"/>
      <point x="687" y="732" type="curve" smooth="yes"/>
      <point x="431" y="732" type="line" smooth="yes"/>
    </contour>
  </outline>
</glyph>
<glyph name="macron" format="2">
  <advance width="387"/>
  <unicode hex="00AF"/>
  <note>
GF Latin Plus glyph
</note>
  <outline>
    <contour>
      <point x="177" y="691" type="line"/>
      <point x="429" y="691" type="line"/>
      <point x="432" y="706" type="line"/>
      <point x="180" y="706" type="line"/>
    </contour>
  </outline>
</glyph>
<glyph name="degree" format="1">
  <advance width="338"/>
  <unicode hex="00B0"/>
  <note>
    GF Latin Plus glyph
  </note>
  <outline>
    <contour>
      <point x="160.0" y="684.0"/>
      <point x="213" y="741"/>
      <point x="287" y="741" type="curve" smooth="yes"/>
      <point x="343" y="741"/>
      <point x="378" y="704"/>
      <point x="378" y="652" type="curve" smooth="yes"/>
      <point x="378" y="579"/>
      <point x="326" y="524"/>
      <point x="253" y="524" type="curve" smooth="yes"/>
      <point x="196.3913043478261" y="524.0"/>
      <point x="160.0" y="561.0"/>
      <point x="160" y="613" type="curve" smooth="yes"/>
    </contour>
    <contour>
      <point x="207" y="755"/>
      <point x="146" y="697"/>
      <point x="146" y="610" type="curve" smooth="yes"/>
      <point x="146" y="551"/>
      <point x="188" y="510"/>
      <point x="251" y="510" type="curve" smooth="yes"/>
      <point x="333" y="510"/>
      <point x="392" y="566"/>
      <point x="392" y="654" type="curve" smooth="yes"/>
      <point x="392" y="714"/>
      <point x="352" y="755"/>
      <point x="290" y="755" type="curve" smooth="yes"/>
    </contour>
  </outline>
</glyph>
<glyph name="threesuperior" format="2">
  <advance width="421"/>
  <unicode hex="00B3"/>
  <outline>
    <contour>
      <point x="194.0" y="826" type="line"/>
      <point x="338.0" y="826" type="line" smooth="yes"/>
      <point x="404.0" y="826"/>
      <point x="438.0" y="798"/>
      <point x="438.0" y="752" type="curve" smooth="yes"/>
      <point x="438.0" y="746"/>
      <point x="438.0" y="740"/>
      <point x="437.0" y="734" type="curve" smooth="yes"/>
      <point x="430.0" y="690" type="line" smooth="yes"/>
      <point x="421.0" y="635"/>
      <point x="378.0" y="614"/>
      <point x="324.0" y="612" type="curve" smooth="yes"/>
      <point x="193.0" y="608" type="line"/>
      <point x="190.0" y="594" type="line"/>
      <point x="321.0" y="589" type="line" smooth="yes"/>
      <point x="361.0" y="588"/>
      <point x="409.0" y="572"/>
      <point x="410.0" y="520" type="curve" smooth="yes"/>
      <point x="410.0" y="515"/>
      <point x="409.0" y="510"/>
      <point x="408.0" y="504" type="curve" smooth="yes"/>
      <point x="401.0" y="464" type="line" smooth="yes"/>
      <point x="390.0" y="388"/>
      <point x="332.0" y="371"/>
      <point x="272.0" y="371" type="curve" smooth="yes"/>
      <point x="102.0" y="371" type="line"/>
      <point x="99.0" y="356" type="line"/>
      <point x="139.0" y="353"/>
      <point x="201.0" y="351"/>
      <point x="272.0" y="351" type="curve" smooth="yes"/>
      <point x="358.0" y="351"/>
      <point x="413.0" y="390"/>
      <point x="424.0" y="463" type="curve" smooth="yes"/>
      <point x="431.0" y="503" type="line" smooth="yes"/>
      <point x="432.0" y="510"/>
      <point x="433.0" y="515"/>
      <point x="433.0" y="521" type="curve" smooth="yes"/>
      <point x="433.0" y="577"/>
      <point x="382.0" y="597"/>
      <point x="360.0" y="601" type="curve"/>
      <point x="381.0" y="603"/>
      <point x="441.0" y="622"/>
      <point x="452.0" y="690" type="curve" smooth="yes"/>
      <point x="459.0" y="735" type="line" smooth="yes"/>
      <point x="461.0" y="743"/>
      <point x="461.0" y="750"/>
      <point x="461.0" y="757" type="curve" smooth="yes"/>
      <point x="461.0" y="808"/>
      <point x="427.0" y="846"/>
      <point x="348.0" y="846" type="curve" smooth="yes"/>
      <point x="281.0" y="846"/>
      <point x="232.0" y="844"/>
      <point x="197.0" y="841" type="curve"/>
    </contour>
  </outline>
</glyph>
<glyph name="paragraph" format="1">
  <advance width="572"/>
  <unicode hex="00B6"/>
  <note>
    GF Latin Plus glyph
  </note>
  <outline>
    <contour>
      <point x="143" y="471" type="curve" smooth="yes"/>
      <point x="161" y="590" type="line" smooth="yes"/>
      <point x="172" y="656"/>
      <point x="231" y="708"/>
      <point x="322" y="708" type="curve" smooth="yes"/>
      <point x="406" y="708" type="line"/>
      <point x="348" y="339" type="line"/>
      <point x="264" y="339" type="line" smooth="yes"/>
      <point x="208" y="339"/>
      <point x="140" y="351"/>
      <point x="140" y="445" type="curve" smooth="yes"/>
      <point x="140" y="453"/>
      <point x="141" y="462"/>
    </contour>
    <contour>
      <point x="118" y="469" type="line" smooth="yes"/>
      <point x="117" y="460"/>
      <point x="116" y="450"/>
      <point x="116" y="441" type="curve" smooth="yes"/>
      <point x="116" y="370"/>
      <point x="162" y="315"/>
      <point x="260" y="315" type="curve" smooth="yes"/>
      <point x="299" y="315"/>
      <point x="334.4117647058824" y="317.94117647058823"/>
      <point x="345" y="325" type="curve"/>
      <point x="251" y="-270" type="line"/>
      <point x="275" y="-270" type="line"/>
      <point x="430" y="708" type="line"/>
      <point x="544" y="708" type="line"/>
      <point x="432" y="0" type="line"/>
      <point x="456" y="0" type="line"/>
      <point x="568" y="706" type="line"/>
      <point x="657" y="706" type="line"/>
      <point x="661" y="732" type="line"/>
      <point x="326" y="732" type="line" smooth="yes"/>
      <point x="244" y="732"/>
      <point x="153" y="687"/>
      <point x="138" y="592" type="curve" smooth="yes"/>
    </contour>
  </outline>
</glyph>
<glyph name="cedilla" format="1">
  <advance width="267"/>
  <unicode hex="00B8"/>
  <note>
    GF Latin Plus glyph
  </note>
  <outline>
    <contour>
      <point x="41" y="-173" type="line"/>
      <point x="39" y="-183" type="line"/>
      <point x="59" y="-183" type="line" smooth="yes"/>
      <point x="124" y="-183"/>
      <point x="158" y="-134"/>
      <point x="158" y="-105" type="curve" smooth="yes"/>
      <point x="158" y="-76"/>
      <point x="139" y="-58"/>
      <point x="83" y="-58" type="curve"/>
      <point x="67" y="-68" type="line"/>
      <point x="128" y="-68"/>
      <point x="143" y="-86"/>
      <point x="143" y="-108" type="curve" smooth="yes"/>
      <point x="143" y="-128"/>
      <point x="118" y="-167"/>
      <point x="67" y="-171" type="curve" smooth="yes"/>
    </contour>
    <contour>
      <point x="147" y="10" type="line"/>
      <point x="133" y="10" type="line"/>
      <point x="67" y="-68" type="line"/>
      <point x="81" y="-68" type="line"/>
    </contour>
  </outline>
</glyph>
<glyph name="onesuperior" format="2">
  <advance width="421"/>
  <unicode hex="00B9"/>
  <outline>
    <contour>
      <point x="132.0" y="375" type="line"/>
      <point x="129.0" y="355" type="line"/>
      <point x="417.0" y="355" type="line"/>
      <point x="420.0" y="375" type="line"/>
    </contour>
    <contour>
      <point x="204.0" y="785" type="line"/>
      <point x="336.0" y="824" type="line"/>
      <point x="262.0" y="355" type="line"/>
      <point x="284.0" y="355" type="line"/>
      <point x="362.0" y="847" type="line"/>
      <point x="341.0" y="847" type="line"/>
      <point x="207.0" y="800" type="line"/>
    </contour>
  </outline>
</glyph>
<glyph name="AE" format="2">
  <advance width="896"/>
  <unicode hex="00C6"/>
  <note>
GF Latin Plus glyph
</note>
  <anchor x="609" y="810" name="top"/>
  <outline>
    <contour>
      <point x="277" y="274" type="line"/>
      <point x="583" y="661" type="line"/>
      <point x="521" y="274" type="line"/>
    </contour>
    <contour>
      <point x="30" y="0" type="line"/>
      <point x="60" y="0" type="line"/>
      <point x="259" y="252" type="line"/>
      <point x="518" y="252" type="line"/>
      <point x="497" y="121" type="line" smooth="yes"/>
      <point x="479" y="8"/>
      <point x="557" y="-5"/>
      <point x="622" y="-3" type="curve" smooth="yes"/>
      <point x="659" y="-2"/>
      <point x="788.083" y="1.0019999999999998"/>
      <point x="871" y="3" type="curve"/>
      <point x="874" y="19" type="line"/>
      <point x="617" y="19" type="line" smooth="yes"/>
      <point x="562" y="19"/>
      <point x="506" y="31"/>
      <point x="521" y="123" type="curve" smooth="yes"/>
      <point x="558" y="352" type="line"/>
      <point x="887" y="355" type="line"/>
      <point x="890" y="371" type="line"/>
      <point x="561" y="374" type="line"/>
      <point x="596" y="592" type="line" smooth="yes"/>
      <point x="608" y="667"/>
      <point x="600" y="710"/>
      <point x="716" y="710" type="curve" smooth="yes"/>
      <point x="983" y="710" type="line"/>
      <point x="986" y="726" type="line"/>
      <point x="897.422" y="727.998"/>
      <point x="755" y="732"/>
      <point x="720" y="732" type="curve" smooth="yes"/>
      <point x="610" y="734"/>
      <point x="578" y="689"/>
      <point x="499" y="590" type="curve" smooth="yes"/>
    </contour>
  </outline>
</glyph>
<glyph name="Eth" format="2">
  <advance width="663"/>
  <unicode hex="00D0"/>
  <note>
GF Latin Plus glyph
</note>
  <outline>
    <contour>
      <point x="62" y="362" type="line"/>
      <point x="386" y="362" type="line"/>
      <point x="390" y="384" type="line"/>
      <point x="66" y="384" type="line"/>
    </contour>
    <component base="D"/>
  </outline>
</glyph>
<glyph name="Oslash" format="2">
  <advance width="678"/>
  <unicode hex="00D8"/>
  <note>
GF Latin Plus glyph
</note>
  <anchor x="468" y="810" name="top"/>
  <outline>
    <contour>
      <point x="704" y="732" type="line"/>
      <point x="65" y="0" type="line"/>
      <point x="90" y="0" type="line"/>
      <point x="729" y="732" type="line"/>
    </contour>
    <component base="O"/>
  </outline>
</glyph>
<glyph name="Thorn" format="2">
  <advance width="535"/>
  <unicode hex="00DE"/>
  <note>
GF Latin Plus glyph
</note>
  <outline>
    <contour>
      <point x="218" y="732" type="line"/>
      <point x="196.0" y="732.0" type="line"/>
      <point x="80.0" y="0.0" type="line"/>
      <point x="104.0" y="0.0" type="line"/>
    </contour>
    <contour>
      <point x="183" y="560" type="line"/>
      <point x="368" y="560" type="line" smooth="yes"/>
      <point x="455.27906976744185" y="560"/>
      <point x="507.0" y="526.0"/>
      <point x="507" y="436" type="curve" smooth="yes"/>
      <point x="507" y="420"/>
      <point x="504" y="392"/>
      <point x="501" y="372" type="curve" smooth="yes"/>
      <point x="478.96860104901725" y="236.80732461896937"/>
      <point x="392.4623655913978" y="205"/>
      <point x="305" y="205" type="curve" smooth="yes"/>
      <point x="129" y="205" type="line"/>
      <point x="125" y="188" type="line"/>
      <point x="189.39020206242117" y="185.15925579136376"/>
      <point x="245.24468085106383" y="183.0"/>
      <point x="303" y="183" type="curve" smooth="yes"/>
      <point x="394.10377358490564" y="183.0"/>
      <point x="500.97388051650967" y="213.82804673368867"/>
      <point x="525" y="372" type="curve" smooth="yes"/>
      <point x="528" y="392"/>
      <point x="531" y="421"/>
      <point x="531" y="437" type="curve" smooth="yes"/>
      <point x="531.0" y="547.0"/>
      <point x="461.63758389261744" y="582"/>
      <point x="372" y="582" type="curve" smooth="yes"/>
      <point x="184" y="582" type="line"/>
    </contour>
  </outline>
</glyph>
<glyph name="germandbls" format="2">
  <advance width="566"/>
  <unicode hex="00DF"/>
  <note>
GF Latin Plus glyph
</note>
  <outline>
    <contour>
      <point x="81" y="0" type="line"/>
      <point x="105" y="0" type="line"/>
      <point x="195" y="566" type="line" smooth="yes"/>
      <point x="215.82440139905097" y="696.9623465762538"/>
      <point x="283" y="747"/>
      <point x="396" y="747" type="curve" smooth="yes"/>
      <point x="476" y="747"/>
      <point x="527" y="704"/>
      <point x="527" y="631" type="curve" smooth="yes"/>
      <point x="527" y="514"/>
      <point x="342.0" y="458.45791245791247"/>
      <point x="342" y="354" type="curve" smooth="yes"/>
      <point x="342" y="240"/>
      <point x="530.0" y="271.06666666666666"/>
      <point x="530" y="174" type="curve" smooth="yes"/>
      <point x="530" y="160"/>
      <point x="528" y="146"/>
      <point x="524" y="122" type="curve" smooth="yes"/>
      <point x="517.603169283758" y="82.70518274308529"/>
      <point x="489.5" y="16.0"/>
      <point x="386" y="16" type="curve" smooth="yes"/>
      <point x="317" y="16"/>
      <point x="251" y="19"/>
      <point x="213" y="21" type="curve"/>
      <point x="211" y="7" type="line"/>
      <point x="245" y="0"/>
      <point x="314" y="-6"/>
      <point x="382" y="-6" type="curve" smooth="yes"/>
      <point x="469.6111111111111" y="-6.0"/>
      <point x="533.1594396271194" y="38.521847902546696"/>
      <point x="548" y="122" type="curve" smooth="yes"/>
      <point x="554" y="156"/>
      <point x="554" y="167"/>
      <point x="554" y="174" type="curve" smooth="yes"/>
      <point x="554.0" y="296.51633986928107"/>
      <point x="366" y="258"/>
      <point x="366" y="354" type="curve" smooth="yes"/>
      <point x="366.0" y="444.489932885906"/>
      <point x="551" y="504"/>
      <point x="551" y="632" type="curve" smooth="yes"/>
      <point x="551" y="707"/>
      <point x="505" y="769"/>
      <point x="398" y="769" type="curve" smooth="yes"/>
      <point x="265" y="769"/>
      <point x="193.34250192952618" y="706.5095121345757"/>
      <point x="171" y="566" type="curve" smooth="yes"/>
    </contour>
  </outline>
</glyph>
<glyph name="ae" format="1">
  <advance width="915.076622116"/>
  <unicode hex="00E6"/>
  <note>
    GF Latin Plus glyph
  </note>
  <outline>
    <contour>
      <point x="492" y="269" type="curve"/>
      <point x="520" y="428"/>
      <point x="558" y="519"/>
      <point x="746" y="519" type="curve" smooth="yes"/>
      <point x="841" y="519"/>
      <point x="892" y="471"/>
      <point x="892" y="392" type="curve" smooth="yes"/>
      <point x="892" y="299"/>
      <point x="797" y="258"/>
      <point x="657" y="258" type="curve" smooth="yes"/>
      <point x="571" y="258"/>
      <point x="492" y="269"/>
    </contour>
    <contour>
      <point x="244" y="16" type="curve" smooth="yes"/>
      <point x="157" y="16"/>
      <point x="119" y="72"/>
      <point x="119" y="174" type="curve" smooth="yes"/>
      <point x="119" y="325"/>
      <point x="164" y="515"/>
      <point x="370" y="515" type="curve" smooth="yes"/>
      <point x="444" y="515"/>
      <point x="511" y="486"/>
      <point x="544" y="468" type="curve"/>
      <point x="481" y="385"/>
      <point x="462" y="258"/>
      <point x="462" y="167" type="curve" smooth="yes"/>
      <point x="462" y="147"/>
      <point x="464" y="128"/>
      <point x="468" y="112" type="curve"/>
      <point x="418" y="67"/>
      <point x="329" y="16"/>
    </contour>
    <contour>
      <point x="252" y="-6" type="curve" smooth="yes"/>
      <point x="340" y="-6"/>
      <point x="433" y="56"/>
      <point x="472" y="92" type="curve"/>
      <point x="490" y="35"/>
      <point x="540" y="-6"/>
      <point x="631" y="-6" type="curve" smooth="yes"/>
      <point x="700" y="-6"/>
      <point x="775" y="-5"/>
      <point x="837" y="0" type="curve"/>
      <point x="840" y="16" type="line"/>
      <point x="628" y="16" type="line" smooth="yes"/>
      <point x="515" y="16"/>
      <point x="486" y="74"/>
      <point x="486" y="177" type="curve" smooth="yes"/>
      <point x="486" y="205"/>
      <point x="486" y="216"/>
      <point x="490" y="255" type="curve"/>
      <point x="507" y="248"/>
      <point x="589" y="236"/>
      <point x="674" y="236" type="curve" smooth="yes"/>
      <point x="821" y="236"/>
      <point x="917" y="302"/>
      <point x="917" y="395" type="curve" smooth="yes"/>
      <point x="917" y="490"/>
      <point x="855" y="541"/>
      <point x="739" y="541" type="curve" smooth="yes"/>
      <point x="662" y="541"/>
      <point x="600" y="522"/>
      <point x="556" y="481" type="curve"/>
      <point x="513" y="516"/>
      <point x="429" y="537"/>
      <point x="371" y="537" type="curve" smooth="yes"/>
      <point x="150" y="537"/>
      <point x="95" y="344"/>
      <point x="95" y="171" type="curve" smooth="yes"/>
      <point x="95" y="46"/>
      <point x="158" y="-6"/>
    </contour>
    <contour>
      <point x="556" y="650" type="move" name="top"/>
    </contour>
  </outline>
</glyph>
<glyph name="eth" format="1">
  <advance width="560.0"/>
  <unicode hex="00F0"/>
  <note>
    GF Latin Plus glyph
  </note>
  <outline>
    <contour>
      <point x="102" y="265" type="curve" smooth="yes"/>
      <point x="97" y="230"/>
      <point x="94" y="199"/>
      <point x="94" y="170" type="curve" smooth="yes"/>
      <point x="94" y="35"/>
      <point x="172" y="-6"/>
      <point x="279" y="-6" type="curve" smooth="yes"/>
      <point x="440" y="-6"/>
      <point x="509" y="56"/>
      <point x="540" y="251" type="curve" smooth="yes"/>
      <point x="546" y="290"/>
      <point x="540" y="325"/>
      <point x="540" y="356" type="curve" smooth="yes"/>
      <point x="540" y="475"/>
      <point x="486" y="537"/>
      <point x="365" y="537" type="curve" smooth="yes"/>
      <point x="206" y="537"/>
      <point x="136" y="477"/>
    </contour>
    <contour>
      <point x="126" y="258" type="curve" smooth="yes"/>
      <point x="160" y="469"/>
      <point x="220" y="515"/>
      <point x="360" y="515" type="curve" smooth="yes"/>
      <point x="475" y="515"/>
      <point x="525" y="470"/>
      <point x="525" y="356" type="curve" smooth="yes"/>
      <point x="525" y="328"/>
      <point x="522" y="296"/>
      <point x="516" y="258" type="curve" smooth="yes"/>
      <point x="484" y="54"/>
      <point x="415" y="16"/>
      <point x="284" y="16" type="curve" smooth="yes"/>
      <point x="188" y="16"/>
      <point x="118" y="42"/>
      <point x="118" y="170" type="curve" smooth="yes"/>
      <point x="118" y="195"/>
      <point x="121" y="224"/>
    </contour>
    <contour>
      <point x="256" y="741" type="line"/>
      <point x="421" y="738"/>
      <point x="535" y="658"/>
      <point x="535" y="435" type="curve" smooth="yes"/>
      <point x="535" y="385"/>
      <point x="531" y="328"/>
      <point x="522" y="264" type="curve"/>
      <point x="542" y="266" type="line"/>
      <point x="552" y="331"/>
      <point x="556" y="389"/>
      <point x="556" y="440" type="curve" smooth="yes"/>
      <point x="556" y="666"/>
      <point x="432" y="761"/>
      <point x="260" y="763" type="curve"/>
    </contour>
    <contour>
      <point x="292" y="634" type="line"/>
      <point x="295" y="620" type="line"/>
      <point x="621" y="741" type="line"/>
      <point x="618" y="755" type="line"/>
    </contour>
  </outline>
</glyph>
<glyph name="dcroat" format="2">
  <advance width="568"/>
  <unicode hex="0111"/>
  <note>
GF Latin Plus glyph
</note>
  <outline>
    <contour>
      <point x="400" y="640" type="line"/>
      <point x="658" y="640" type="line"/>
      <point x="661" y="656" type="line"/>
      <point x="403" y="656" type="line"/>
    </contour>
    <component base="d"/>
  </outline>
</glyph>
<glyph name="Hbar" format="2">
  <advance width="646"/>
  <unicode hex="0126"/>
  <note>
GF Latin Plus glyph
</note>
  <outline>
    <contour>
      <point x="89" y="531" type="line"/>
      <point x="726" y="531" type="line"/>
      <point x="729" y="553" type="line"/>
      <point x="92" y="553" type="line"/>
    </contour>
    <component base="H"/>
  </outline>
</glyph>
<glyph name="kgreenlandic" format="2">
  <advance width="497"/>
  <unicode hex="0138"/>
  <note>
GF Latin Plus glyph
</note>
  <outline>
    <contour>
      <point x="80" y="0" type="line"/>
      <point x="104" y="0" type="line"/>
      <point x="144" y="255" type="line"/>
      <point x="175.26495726495727" y="255.0"/>
      <point x="225" y="259"/>
      <point x="262" y="270" type="curve"/>
      <point x="429" y="0" type="line"/>
      <point x="457" y="0" type="line"/>
      <point x="286" y="277" type="line"/>
      <point x="365" y="313"/>
      <point x="438.71568205568497" y="379.7852557998998"/>
      <point x="483" y="531" type="curve"/>
      <point x="459" y="531" type="line"/>
      <point x="400.7216552256729" y="339.976536573039"/>
      <point x="290.37337662337666" y="277.0"/>
      <point x="148" y="277" type="curve"/>
      <point x="188" y="531" type="line"/>
      <point x="164" y="531" type="line"/>
    </contour>
  </outline>
</glyph>
<glyph name="lslash" format="2">
  <advance width="269"/>
  <unicode hex="0142"/>
  <note>
GF Latin Plus glyph
</note>
  <outline>
    <contour>
      <point x="57" y="371" type="line"/>
      <point x="144" y="399" type="line"/>
      <point x="167" y="407" type="line"/>
      <point x="289" y="444" type="line"/>
      <point x="292" y="465" type="line"/>
      <point x="170" y="428" type="line"/>
      <point x="148" y="420" type="line"/>
      <point x="60" y="392" type="line"/>
    </contour>
    <component base="l"/>
  </outline>
</glyph>
<glyph name="Eng" format="2">
  <advance width="649"/>
  <unicode hex="014A"/>
  <note>
GF Latin Plus glyph
</note>
  <outline>
    <contour>
      <point x="262" y="-218" type="line"/>
      <point x="287" y="-232"/>
      <point x="331" y="-243"/>
      <point x="365" y="-243" type="curve" smooth="yes"/>
      <point x="469" y="-243"/>
      <point x="535" y="-211"/>
      <point x="554" y="-92" type="curve" smooth="yes"/>
      <point x="569" y="0" type="line"/>
      <point x="546" y="6" type="line"/>
      <point x="530" y="-92" type="line" smooth="yes"/>
      <point x="512" y="-200"/>
      <point x="449" y="-221"/>
      <point x="368" y="-221" type="curve" smooth="yes"/>
      <point x="337" y="-221"/>
      <point x="292" y="-211"/>
      <point x="264" y="-202" type="curve"/>
    </contour>
    <component base="N"/>
  </outline>
</glyph>
<glyph name="eng" format="2">
  <advance width="564"/>
  <unicode hex="014B"/>
  <note>
GF Latin Plus glyph
</note>
  <outline>
    <contour>
      <point x="282" y="-237" type="curve"/>
      <point x="304" y="-237" type="line"/>
      <point x="402" y="-203"/>
      <point x="465" y="-120"/>
      <point x="484" y="0" type="curve" smooth="yes"/>
      <point x="491" y="44" type="line"/>
      <point x="467" y="44" type="line"/>
      <point x="460" y="0" type="line" smooth="yes"/>
      <point x="442" y="-114"/>
      <point x="387" y="-188"/>
    </contour>
    <component base="n"/>
  </outline>
</glyph>
<glyph name="oe" format="1">
  <advance width="964.1338183622333"/>
  <unicode hex="0153"/>
  <note>
    GF Latin Plus glyph
  </note>
  <outline>
    <contour>
      <point x="885" y="0" type="curve"/>
      <point x="888" y="16" type="line"/>
      <point x="734" y="16" type="line" smooth="yes"/>
      <point x="591" y="16"/>
      <point x="536" y="64"/>
      <point x="536" y="173" type="curve" smooth="yes"/>
      <point x="536" y="199"/>
      <point x="537" y="227"/>
      <point x="541" y="254" type="curve"/>
      <point x="568" y="246"/>
      <point x="630" y="236"/>
      <point x="704" y="236" type="curve" smooth="yes"/>
      <point x="835" y="236"/>
      <point x="967" y="269"/>
      <point x="967" y="406" type="curve" smooth="yes"/>
      <point x="967" y="503"/>
      <point x="903" y="541"/>
      <point x="787" y="541" type="curve" smooth="yes"/>
      <point x="657" y="541"/>
      <point x="583" y="488"/>
      <point x="546" y="381" type="curve"/>
      <point x="536" y="477"/>
      <point x="491" y="537"/>
      <point x="365" y="537" type="curve" smooth="yes"/>
      <point x="212" y="537"/>
      <point x="136" y="477"/>
      <point x="102" y="265" type="curve" smooth="yes"/>
      <point x="97" y="230"/>
      <point x="94" y="199"/>
      <point x="94" y="170" type="curve" smooth="yes"/>
      <point x="94" y="35"/>
      <point x="172" y="-6"/>
      <point x="279" y="-6" type="curve" smooth="yes"/>
      <point x="415" y="-6"/>
      <point x="474" y="48"/>
      <point x="514" y="157" type="curve"/>
      <point x="521" y="48"/>
      <point x="592" y="-6"/>
      <point x="732" y="-6" type="curve" smooth="yes"/>
      <point x="789" y="-6"/>
      <point x="851" y="-2"/>
    </contour>
    <contour>
      <point x="543" y="270" type="curve"/>
      <point x="565" y="428"/>
      <point x="623" y="519"/>
      <point x="785" y="519" type="curve" smooth="yes"/>
      <point x="890" y="519"/>
      <point x="943" y="489"/>
      <point x="943" y="404" type="curve" smooth="yes"/>
      <point x="943" y="285"/>
      <point x="832" y="258"/>
      <point x="686" y="258" type="curve" smooth="yes"/>
      <point x="632" y="258"/>
      <point x="579" y="263"/>
    </contour>
    <contour>
      <point x="126" y="258" type="curve" smooth="yes"/>
      <point x="160" y="469"/>
      <point x="220" y="515"/>
      <point x="360" y="515" type="curve" smooth="yes"/>
      <point x="478" y="515"/>
      <point x="525" y="470"/>
      <point x="525" y="356" type="curve" smooth="yes"/>
      <point x="525" y="328"/>
      <point x="522" y="296"/>
      <point x="516" y="258" type="curve" smooth="yes"/>
      <point x="484" y="54"/>
      <point x="405" y="16"/>
      <point x="284" y="16" type="curve" smooth="yes"/>
      <point x="188" y="16"/>
      <point x="118" y="47"/>
      <point x="118" y="170" type="curve" smooth="yes"/>
      <point x="118" y="195"/>
      <point x="121" y="224"/>
    </contour>
  </outline>
</glyph>
<glyph name="Tbar" format="2">
  <advance width="602"/>
  <unicode hex="0166"/>
  <note>
GF Latin Plus glyph
</note>
  <outline>
    <contour>
      <point x="144" y="381" type="line"/>
      <point x="569" y="381" type="line"/>
      <point x="572" y="403" type="line"/>
      <point x="147" y="403" type="line"/>
    </contour>
    <component base="T"/>
  </outline>
</glyph>
<glyph name="tbar" format="1">
  <advance width="350"/>
  <unicode hex="0167"/>
  <note>
    GF Latin Plus glyph
  </note>
  <outline>
    <contour>
      <point x="90" y="318" type="line"/>
      <point x="353" y="318" type="line"/>
      <point x="356" y="334" type="line"/>
      <point x="93" y="334" type="line"/>
    </contour>
    <component base="t"/>
  </outline>
</glyph>
<glyph name="Schwa" format="2">
  <advance width="591"/>
  <unicode hex="018F"/>
  <note>
GF Latin Plus glyph
</note>
  <outline>
    <contour>
      <point x="290" y="-6" type="curve" smooth="yes"/>
      <point x="433" y="-6"/>
      <point x="532" y="70"/>
      <point x="580" y="370" type="curve" smooth="yes"/>
      <point x="591" y="437"/>
      <point x="596" y="493"/>
      <point x="596" y="538" type="curve" smooth="yes"/>
      <point x="596" y="702"/>
      <point x="524" y="738"/>
      <point x="378" y="738" type="curve" smooth="yes"/>
      <point x="311" y="738"/>
      <point x="252" y="727"/>
      <point x="208" y="718" type="curve"/>
      <point x="205" y="702" type="line"/>
      <point x="235" y="706"/>
      <point x="282" y="716"/>
      <point x="359" y="716" type="curve" smooth="yes"/>
      <point x="512" y="716"/>
      <point x="571" y="681"/>
      <point x="571" y="538" type="curve" smooth="yes"/>
      <point x="571" y="492"/>
      <point x="565" y="435"/>
      <point x="554" y="364" type="curve"/>
      <point x="128" y="364" type="line"/>
      <point x="123" y="337" type="line" smooth="yes"/>
      <point x="114" y="281"/>
      <point x="110" y="233"/>
      <point x="110" y="193" type="curve" smooth="yes"/>
      <point x="110" y="50"/>
      <point x="165" y="-6"/>
    </contour>
    <contour>
      <point x="291" y="16" type="curve" smooth="yes"/>
      <point x="179" y="16"/>
      <point x="133" y="65"/>
      <point x="133" y="191" type="curve" smooth="yes"/>
      <point x="133" y="232"/>
      <point x="138" y="282"/>
      <point x="147" y="342" type="curve"/>
      <point x="549" y="342" type="line"/>
      <point x="498" y="84"/>
      <point x="425" y="16"/>
    </contour>
  </outline>
</glyph>
<glyph name="Ohorn" format="2">
  <advance width="678"/>
  <unicode hex="01A0"/>
  <note>
GF Latin Plus glyph
</note>
  <anchor x="468" y="810" name="top"/>
  <anchor x="308" y="-150" name="bottom"/>
  <outline>
    <contour>
      <point x="491" y="716" type="line"/>
      <point x="619" y="716" type="line" smooth="yes"/>
      <point x="669" y="716"/>
      <point x="729" y="740"/>
      <point x="746" y="848" type="curve"/>
      <point x="724" y="848" type="line"/>
      <point x="710" y="761"/>
      <point x="670" y="732"/>
      <point x="622" y="732" type="curve" smooth="yes"/>
      <point x="494" y="732" type="line"/>
    </contour>
    <component base="O"/>
  </outline>
</glyph>
<glyph name="Uhorn" format="2">
  <advance width="667"/>
  <unicode hex="01AF"/>
  <note>
GF Latin Plus glyph
</note>
  <anchor x="454" y="810" name="top"/>
  <anchor x="304" y="-150" name="bottom"/>
  <outline>
    <contour>
      <point x="681" y="716" type="line"/>
      <point x="698" y="716" type="line" smooth="yes"/>
      <point x="748" y="716"/>
      <point x="808" y="740"/>
      <point x="825" y="848" type="curve"/>
      <point x="803" y="848" type="line"/>
      <point x="789" y="761"/>
      <point x="749" y="732"/>
      <point x="701" y="732" type="curve" smooth="yes"/>
      <point x="684" y="732" type="line"/>
    </contour>
    <component base="U"/>
  </outline>
</glyph>
<glyph name="uhorn" format="2">
  <advance width="582"/>
  <unicode hex="01B0"/>
  <note>
GF Latin Plus glyph
</note>
  <anchor x="370" y="650" name="top"/>
  <anchor x="250" y="-150" name="bottom"/>
  <outline>
    <contour>
      <point x="547" y="515" type="line"/>
      <point x="556" y="515" type="line" smooth="yes"/>
      <point x="606" y="515"/>
      <point x="666" y="539"/>
      <point x="683" y="647" type="curve"/>
      <point x="661" y="647" type="line"/>
      <point x="647" y="560"/>
      <point x="607" y="531"/>
      <point x="559" y="531" type="curve" smooth="yes"/>
      <point x="550" y="531" type="line"/>
    </contour>
    <component base="u"/>
  </outline>
</glyph>
<glyph name="circumflex" format="2">
  <advance width="407"/>
  <unicode hex="02C6"/>
  <note>
GF Latin Plus glyph
</note>
  <outline>
    <contour>
      <point x="321" y="761" type="line"/>
      <point x="168" y="631" type="line"/>
      <point x="186" y="631" type="line"/>
      <point x="328" y="746" type="line"/>
      <point x="422" y="631" type="line"/>
      <point x="440" y="631" type="line"/>
      <point x="341" y="761" type="line"/>
    </contour>
  </outline>
</glyph>
<glyph name="caron" format="2">
  <advance width="407"/>
  <unicode hex="02C7"/>
  <note>
GF Latin Plus glyph
</note>
  <outline>
    <contour>
      <point x="308" y="631" type="line"/>
      <point x="461" y="761" type="line"/>
      <point x="443" y="761" type="line"/>
      <point x="300" y="646" type="line"/>
      <point x="207" y="761" type="line"/>
      <point x="189" y="761" type="line"/>
      <point x="288" y="631" type="line"/>
    </contour>
  </outline>
</glyph>
<glyph name="dotaccent" format="2">
  <advance width="170"/>
  <unicode hex="02D9"/>
  <note>
GF Latin Plus glyph
</note>
  <outline>
    <contour>
      <point x="169" y="678" type="line" smooth="yes"/>
      <point x="169" y="677"/>
      <point x="169" y="677"/>
      <point x="169" y="676" type="curve" smooth="yes"/>
      <point x="169" y="670"/>
      <point x="173" y="666"/>
      <point x="179" y="666" type="curve" smooth="yes"/>
      <point x="190" y="666" type="line" smooth="yes"/>
      <point x="197" y="666"/>
      <point x="203" y="670"/>
      <point x="204" y="678" type="curve" smooth="yes"/>
      <point x="214" y="740" type="line" smooth="yes"/>
      <point x="214" y="741"/>
      <point x="214" y="742"/>
      <point x="214" y="743" type="curve" smooth="yes"/>
      <point x="214" y="748"/>
      <point x="211" y="752"/>
      <point x="204" y="752" type="curve" smooth="yes"/>
      <point x="193" y="752" type="line" smooth="yes"/>
      <point x="185" y="752"/>
      <point x="180" y="748"/>
      <point x="179" y="740" type="curve" smooth="yes"/>
    </contour>
  </outline>
</glyph>
<glyph name="ogonek" format="2">
  <advance width="258"/>
  <unicode hex="02DB"/>
  <note>
GF Latin Plus glyph
</note>
  <outline>
    <contour>
      <point x="147" y="0" type="line"/>
      <point x="73" y="-31"/>
      <point x="49" y="-79"/>
      <point x="49" y="-109" type="curve" smooth="yes"/>
      <point x="49" y="-155"/>
      <point x="86" y="-182"/>
      <point x="141" y="-182" type="curve" smooth="yes"/>
      <point x="147" y="-182"/>
      <point x="154" y="-182"/>
      <point x="162" y="-181" type="curve"/>
      <point x="165" y="-167" type="line"/>
      <point x="160" y="-167" type="line" smooth="yes"/>
      <point x="98" y="-167"/>
      <point x="68" y="-144"/>
      <point x="68" y="-105" type="curve" smooth="yes"/>
      <point x="68" y="-75"/>
      <point x="98" y="-28"/>
      <point x="159" y="0" type="curve"/>
    </contour>
  </outline>
</glyph>
<glyph name="Omega" format="1">
  <advance width="793"/>
  <unicode hex="03A9"/>
  <note>
  </note>
  <outline>
    <contour>
      <point x="246.09677419354836" y="739.0"/>
      <point x="141.0" y="515.0"/>
      <point x="141" y="319" type="curve" smooth="yes"/>
      <point x="141" y="223"/>
      <point x="197" y="109"/>
      <point x="285" y="24" type="curve"/>
      <point x="73" y="16" type="line"/>
      <point x="70" y="0" type="line"/>
      <point x="316" y="0" type="line"/>
      <point x="319" y="22" type="line"/>
      <point x="231" y="109"/>
      <point x="165.0" y="204.0"/>
      <point x="165" y="319" type="curve" smooth="yes"/>
      <point x="165.0" y="502.0"/>
      <point x="266.01149425287355" y="717.0"/>
      <point x="503" y="717" type="curve" smooth="yes"/>
      <point x="678.0" y="717.0"/>
      <point x="753.0" y="610.0"/>
      <point x="753" y="481" type="curve" smooth="yes"/>
      <point x="753" y="342"/>
      <point x="688.4094160073718" y="146.84428784982654"/>
      <point x="480" y="22" type="curve"/>
      <point x="477" y="0" type="line"/>
      <point x="723" y="0" type="line"/>
      <point x="726" y="16" type="line"/>
      <point x="518" y="23" type="line"/>
      <point x="711" y="146"/>
      <point x="777" y="346"/>
      <point x="777" y="481" type="curve" smooth="yes"/>
      <point x="777.0" y="618.0"/>
      <point x="690.8560606060606" y="739.0"/>
      <point x="503" y="739" type="curve" smooth="yes"/>
    </contour>
  </outline>
</glyph>
<glyph name="emdash" format="2">
  <advance width="750"/>
  <unicode hex="2014"/>
  <note>
GF Latin Plus glyph
</note>
  <outline>
    <contour>
      <point x="71" y="277" type="line"/>
      <point x="767" y="277" type="line"/>
      <point x="771" y="302" type="line"/>
      <point x="75" y="302" type="line"/>
    </contour>
  </outline>
</glyph>
<glyph name="dagger" format="2">
  <advance width="398"/>
  <unicode hex="2020"/>
  <note>
GF Latin Plus glyph
</note>
  <outline>
    <contour>
      <point x="108" y="512" type="line"/>
      <point x="267" y="507" type="line"/>
      <point x="180" y="-72" type="line"/>
      <point x="194" y="-72" type="line"/>
      <point x="291" y="507" type="line"/>
      <point x="452" y="512" type="line"/>
      <point x="454" y="526" type="line"/>
      <point x="295" y="530" type="line"/>
      <point x="328" y="770" type="line"/>
      <point x="314" y="770" type="line"/>
      <point x="271" y="530" type="line"/>
      <point x="110" y="526" type="line"/>
    </contour>
  </outline>
</glyph>
<glyph name="daggerdbl" format="2">
  <advance width="425"/>
  <unicode hex="2021"/>
  <note>
GF Latin Plus glyph
</note>
  <outline>
    <contour>
      <point x="58" y="194" type="line"/>
      <point x="217" y="189" type="line"/>
      <point x="181" y="-72" type="line"/>
      <point x="195" y="-72" type="line"/>
      <point x="241" y="189" type="line"/>
      <point x="402" y="194" type="line"/>
      <point x="404" y="208" type="line"/>
      <point x="245" y="212" type="line"/>
      <point x="291" y="507" type="line"/>
      <point x="452" y="512" type="line"/>
      <point x="454" y="526" type="line"/>
      <point x="295" y="530" type="line"/>
      <point x="328" y="770" type="line"/>
      <point x="314" y="770" type="line"/>
      <point x="271" y="530" type="line"/>
      <point x="110" y="526" type="line"/>
      <point x="108" y="512" type="line"/>
      <point x="267" y="507" type="line"/>
      <point x="221" y="212" type="line"/>
      <point x="60" y="208" type="line"/>
    </contour>
  </outline>
</glyph>
<glyph name="bullet" format="2">
  <advance width="337"/>
  <unicode hex="2022"/>
  <note>
GF Latin Plus glyph
</note>
  <outline>
    <contour>
      <point x="139" y="366" type="line" smooth="yes"/>
      <point x="136" y="346"/>
      <point x="146" y="334"/>
      <point x="166" y="334" type="curve" smooth="yes"/>
      <point x="190" y="334" type="line" smooth="yes"/>
      <point x="210" y="334"/>
      <point x="227" y="342"/>
      <point x="231" y="366" type="curve" smooth="yes"/>
      <point x="236" y="396" type="line" smooth="yes"/>
      <point x="240" y="418"/>
      <point x="232" y="431"/>
      <point x="207" y="431" type="curve" smooth="yes"/>
      <point x="183" y="431" type="line" smooth="yes"/>
      <point x="161" y="431"/>
      <point x="147" y="417"/>
      <point x="144" y="396" type="curve" smooth="yes"/>
    </contour>
  </outline>
</glyph>
<glyph name="ellipsis" format="2">
  <advance width="816"/>
  <unicode hex="2026"/>
  <note>
GF Latin Plus glyph
</note>
  <outline>
    <contour>
      <point x="121" y="12" type="line" smooth="yes"/>
      <point x="121" y="11"/>
      <point x="121" y="11"/>
      <point x="121" y="10" type="curve" smooth="yes"/>
      <point x="121" y="4"/>
      <point x="125" y="0"/>
      <point x="131" y="0" type="curve" smooth="yes"/>
      <point x="141" y="0" type="line" smooth="yes"/>
      <point x="148" y="0"/>
      <point x="154" y="4"/>
      <point x="155" y="12" type="curve" smooth="yes"/>
      <point x="165" y="74" type="line" smooth="yes"/>
      <point x="165" y="75"/>
      <point x="165" y="76"/>
      <point x="165" y="77" type="curve" smooth="yes"/>
      <point x="165" y="82"/>
      <point x="162" y="86"/>
      <point x="155" y="86" type="curve" smooth="yes"/>
      <point x="145" y="86" type="line" smooth="yes"/>
      <point x="137" y="86"/>
      <point x="132" y="82"/>
      <point x="131" y="74" type="curve" smooth="yes"/>
    </contour>
    <contour>
      <point x="393" y="12" type="line" smooth="yes"/>
      <point x="393" y="11"/>
      <point x="393" y="11"/>
      <point x="393" y="10" type="curve" smooth="yes"/>
      <point x="393" y="4"/>
      <point x="397" y="0"/>
      <point x="403" y="0" type="curve" smooth="yes"/>
      <point x="413" y="0" type="line" smooth="yes"/>
      <point x="420" y="0"/>
      <point x="426" y="4"/>
      <point x="427" y="12" type="curve" smooth="yes"/>
      <point x="437" y="74" type="line" smooth="yes"/>
      <point x="437" y="75"/>
      <point x="437" y="76"/>
      <point x="437" y="77" type="curve" smooth="yes"/>
      <point x="437" y="82"/>
      <point x="434" y="86"/>
      <point x="427" y="86" type="curve" smooth="yes"/>
      <point x="417" y="86" type="line" smooth="yes"/>
      <point x="409" y="86"/>
      <point x="404" y="82"/>
      <point x="403" y="74" type="curve" smooth="yes"/>
    </contour>
    <contour>
      <point x="665" y="12" type="line" smooth="yes"/>
      <point x="665" y="11"/>
      <point x="665" y="11"/>
      <point x="665" y="10" type="curve" smooth="yes"/>
      <point x="665" y="4"/>
      <point x="669" y="0"/>
      <point x="675" y="0" type="curve" smooth="yes"/>
      <point x="685" y="0" type="line" smooth="yes"/>
      <point x="692" y="0"/>
      <point x="698" y="4"/>
      <point x="699" y="12" type="curve" smooth="yes"/>
      <point x="709" y="74" type="line" smooth="yes"/>
      <point x="709" y="75"/>
      <point x="709" y="76"/>
      <point x="709" y="77" type="curve" smooth="yes"/>
      <point x="709" y="82"/>
      <point x="706" y="86"/>
      <point x="699" y="86" type="curve" smooth="yes"/>
      <point x="689" y="86" type="line" smooth="yes"/>
      <point x="681" y="86"/>
      <point x="676" y="82"/>
      <point x="675" y="74" type="curve" smooth="yes"/>
    </contour>
  </outline>
</glyph>
<glyph name="perthousand" format="2">
  <advance width="1379"/>
  <unicode hex="2030"/>
  <note>
GF Latin Plus glyph
</note>
  <outline>
    <contour>
      <point x="1002" y="128" type="curve" smooth="yes"/>
      <point x="1023" y="261" type="line" smooth="yes"/>
      <point x="1037" y="350"/>
      <point x="1075" y="370"/>
      <point x="1154" y="370" type="curve" smooth="yes"/>
      <point x="1255" y="370" type="line" smooth="yes"/>
      <point x="1326" y="370"/>
      <point x="1352" y="349"/>
      <point x="1352" y="298" type="curve" smooth="yes"/>
      <point x="1352" y="287"/>
      <point x="1350" y="275"/>
      <point x="1348" y="261" type="curve" smooth="yes"/>
      <point x="1327" y="128" type="line" smooth="yes"/>
      <point x="1313" y="39"/>
      <point x="1274" y="19"/>
      <point x="1197" y="19" type="curve" smooth="yes"/>
      <point x="1096" y="19" type="line" smooth="yes"/>
      <point x="1030" y="19"/>
      <point x="999" y="35"/>
      <point x="999" y="92" type="curve" smooth="yes"/>
      <point x="999" y="103"/>
      <point x="1000" y="115"/>
    </contour>
    <contour>
      <point x="986" y="128" type="line" smooth="yes"/>
      <point x="984" y="114"/>
      <point x="983" y="100"/>
      <point x="983" y="88" type="curve" smooth="yes"/>
      <point x="983" y="31"/>
      <point x="1012" y="3"/>
      <point x="1093" y="3" type="curve" smooth="yes"/>
      <point x="1194" y="3" type="line" smooth="yes"/>
      <point x="1295" y="3"/>
      <point x="1330" y="43"/>
      <point x="1343" y="128" type="curve" smooth="yes"/>
      <point x="1364" y="261" type="line" smooth="yes"/>
      <point x="1367" y="275"/>
      <point x="1368" y="289"/>
      <point x="1368" y="301" type="curve" smooth="yes"/>
      <point x="1368" y="358"/>
      <point x="1338" y="386"/>
      <point x="1257" y="386" type="curve" smooth="yes"/>
      <point x="1156" y="386" type="line" smooth="yes"/>
      <point x="1055" y="386"/>
      <point x="1021" y="346"/>
      <point x="1007" y="261" type="curve" smooth="yes"/>
    </contour>
    <contour>
      <point x="577" y="128" type="curve" smooth="yes"/>
      <point x="598" y="261" type="line" smooth="yes"/>
      <point x="612" y="350"/>
      <point x="650" y="370"/>
      <point x="729" y="370" type="curve" smooth="yes"/>
      <point x="830" y="370" type="line" smooth="yes"/>
      <point x="901" y="370"/>
      <point x="927" y="349"/>
      <point x="927" y="298" type="curve" smooth="yes"/>
      <point x="927" y="287"/>
      <point x="925" y="275"/>
      <point x="923" y="261" type="curve" smooth="yes"/>
      <point x="902" y="128" type="line" smooth="yes"/>
      <point x="888" y="39"/>
      <point x="849" y="19"/>
      <point x="772" y="19" type="curve" smooth="yes"/>
      <point x="671" y="19" type="line" smooth="yes"/>
      <point x="605" y="19"/>
      <point x="574" y="35"/>
      <point x="574" y="92" type="curve" smooth="yes"/>
      <point x="574" y="103"/>
      <point x="575" y="115"/>
    </contour>
    <contour>
      <point x="561" y="128" type="line" smooth="yes"/>
      <point x="559" y="114"/>
      <point x="558" y="100"/>
      <point x="558" y="88" type="curve" smooth="yes"/>
      <point x="558" y="31"/>
      <point x="587" y="3"/>
      <point x="668" y="3" type="curve" smooth="yes"/>
      <point x="769" y="3" type="line" smooth="yes"/>
      <point x="870" y="3"/>
      <point x="905" y="43"/>
      <point x="918" y="128" type="curve" smooth="yes"/>
      <point x="939" y="261" type="line" smooth="yes"/>
      <point x="942" y="275"/>
      <point x="943" y="289"/>
      <point x="943" y="301" type="curve" smooth="yes"/>
      <point x="943" y="358"/>
      <point x="913" y="386"/>
      <point x="832" y="386" type="curve" smooth="yes"/>
      <point x="731" y="386" type="line" smooth="yes"/>
      <point x="630" y="386"/>
      <point x="596" y="346"/>
      <point x="582" y="261" type="curve" smooth="yes"/>
    </contour>
    <contour>
      <point x="242" y="0" type="line"/>
      <point x="263" y="0" type="line"/>
      <point x="817" y="732" type="line"/>
      <point x="796" y="732" type="line"/>
    </contour>
    <contour>
      <point x="148" y="474" type="curve" smooth="yes"/>
      <point x="169" y="607" type="line" smooth="yes"/>
      <point x="183" y="696"/>
      <point x="220" y="716"/>
      <point x="299" y="716" type="curve" smooth="yes"/>
      <point x="400" y="716" type="line" smooth="yes"/>
      <point x="471" y="716"/>
      <point x="497" y="695"/>
      <point x="497" y="644" type="curve" smooth="yes"/>
      <point x="497" y="633"/>
      <point x="496" y="621"/>
      <point x="494" y="607" type="curve" smooth="yes"/>
      <point x="473" y="474" type="line" smooth="yes"/>
      <point x="459" y="385"/>
      <point x="420" y="365"/>
      <point x="343" y="365" type="curve" smooth="yes"/>
      <point x="242" y="365" type="line" smooth="yes"/>
      <point x="176" y="365"/>
      <point x="145" y="381"/>
      <point x="145" y="438" type="curve" smooth="yes"/>
      <point x="145" y="449"/>
      <point x="146" y="461"/>
    </contour>
    <contour>
      <point x="132" y="474" type="line" smooth="yes"/>
      <point x="130" y="460"/>
      <point x="129" y="446"/>
      <point x="129" y="434" type="curve" smooth="yes"/>
      <point x="129" y="377"/>
      <point x="158" y="349"/>
      <point x="239" y="349" type="curve" smooth="yes"/>
      <point x="340" y="349" type="line" smooth="yes"/>
      <point x="441" y="349"/>
      <point x="476" y="389"/>
      <point x="489" y="474" type="curve" smooth="yes"/>
      <point x="510" y="607" type="line" smooth="yes"/>
      <point x="512" y="621"/>
      <point x="514" y="635"/>
      <point x="514" y="647" type="curve" smooth="yes"/>
      <point x="514" y="704"/>
      <point x="484" y="732"/>
      <point x="403" y="732" type="curve" smooth="yes"/>
      <point x="302" y="732" type="line" smooth="yes"/>
      <point x="201" y="732"/>
      <point x="167" y="692"/>
      <point x="153" y="607" type="curve" smooth="yes"/>
    </contour>
  </outline>
</glyph>
<glyph name="guilsinglright" format="2">
  <advance width="354"/>
  <unicode hex="203A"/>
  <note>
GF Latin Plus glyph
</note>
  <outline>
    <contour>
      <point x="318" y="273" type="line"/>
      <point x="141" y="481" type="line"/>
      <point x="124" y="468" type="line"/>
      <point x="288" y="274" type="line"/>
      <point x="67" y="86" type="line"/>
      <point x="80" y="70" type="line"/>
    </contour>
  </outline>
</glyph>
<glyph name="fraction" format="2">
  <advance width="754"/>
  <unicode hex="2044"/>
  <note>
GF Latin Plus glyph
</note>
  <outline>
    <contour>
      <point x="90" y="0" type="line"/>
      <point x="110" y="0" type="line"/>
      <point x="618" y="770" type="line"/>
      <point x="598" y="770" type="line"/>
    </contour>
  </outline>
</glyph>
<glyph name="zerosuperior" format="2">
  <advance width="421"/>
  <unicode hex="2070"/>
  <outline>
    <contour>
      <point x="148.0" y="465" type="curve" smooth="yes"/>
      <point x="190.0" y="736" type="line" smooth="yes"/>
      <point x="199.0" y="793"/>
      <point x="243.0" y="826"/>
      <point x="302.0" y="826" type="curve" smooth="yes"/>
      <point x="383.0" y="826" type="line" smooth="yes"/>
      <point x="446" y="826"/>
      <point x="465.0" y="802"/>
      <point x="466.0" y="757" type="curve" smooth="yes"/>
      <point x="466.0" y="751"/>
      <point x="465.0" y="744"/>
      <point x="464.0" y="736" type="curve" smooth="yes"/>
      <point x="421.0" y="465" type="line" smooth="yes"/>
      <point x="412.0" y="410"/>
      <point x="380.0" y="375"/>
      <point x="312.0" y="375" type="curve" smooth="yes"/>
      <point x="230.0" y="375" type="line" smooth="yes"/>
      <point x="172" y="375"/>
      <point x="146.0" y="399"/>
      <point x="146.0" y="445" type="curve" smooth="yes"/>
      <point x="146.0" y="451"/>
      <point x="147.0" y="458"/>
    </contour>
    <contour>
      <point x="126.0" y="464" type="line" smooth="yes"/>
      <point x="124.0" y="455"/>
      <point x="124" y="447"/>
      <point x="124" y="440" type="curve" smooth="yes"/>
      <point x="124" y="381"/>
      <point x="170.0" y="355"/>
      <point x="226.0" y="355" type="curve" smooth="yes"/>
      <point x="311.0" y="355" type="line" smooth="yes"/>
      <point x="379.0" y="355"/>
      <point x="430.0" y="385"/>
      <point x="443.0" y="464" type="curve" smooth="yes"/>
      <point x="486.0" y="737" type="line" smooth="yes"/>
      <point x="487.0" y="745"/>
      <point x="488" y="754"/>
      <point x="488.0" y="762" type="curve" smooth="yes"/>
      <point x="488" y="808"/>
      <point x="460.0" y="846"/>
      <point x="389.0" y="846" type="curve" smooth="yes"/>
      <point x="304.0" y="846" type="line" smooth="yes"/>
      <point x="238.0" y="846"/>
      <point x="180.0" y="809"/>
      <point x="169.0" y="737" type="curve" smooth="yes"/>
    </contour>
  </outline>
</glyph>
<glyph name="i.superior" format="2">
  <advance width="141"/>
  <unicode hex="2071"/>
  <note>
GF Latin Plus glyph
</note>
  <anchor x="118.0" y="280" name="ogonek"/>
  <anchor x="103.0" y="169" name="bottom"/>
  <outline>
    <contour>
      <point x="176.0" y="760" type="line" smooth="yes"/>
      <point x="175.0" y="755"/>
      <point x="178.0" y="751"/>
      <point x="183.0" y="751" type="curve" smooth="yes"/>
      <point x="195.0" y="751" type="line" smooth="yes"/>
      <point x="200.0" y="751"/>
      <point x="204.0" y="754"/>
      <point x="205.0" y="760" type="curve" smooth="yes"/>
      <point x="213.0" y="807" type="line" smooth="yes"/>
      <point x="213.0" y="812"/>
      <point x="212.0" y="816"/>
      <point x="206.0" y="816" type="curve" smooth="yes"/>
      <point x="194.0" y="816" type="line" smooth="yes"/>
      <point x="188.0" y="816"/>
      <point x="184.0" y="813"/>
      <point x="183.0" y="807" type="curve" smooth="yes"/>
    </contour>
    <contour>
      <point x="187" y="672" type="line"/>
      <point x="165" y="672" type="line"/>
      <point x="103" y="280" type="line"/>
      <point x="125" y="280" type="line"/>
    </contour>
  </outline>
</glyph>
<glyph name="fivesuperior" format="2">
  <advance width="421"/>
  <unicode hex="2075"/>
  <outline>
    <contour>
      <point x="128.0" y="357" type="line"/>
      <point x="171.0" y="353"/>
      <point x="234.0" y="352"/>
      <point x="300.0" y="352" type="curve" smooth="yes"/>
      <point x="381.0" y="352"/>
      <point x="453.0" y="391"/>
      <point x="464.0" y="466" type="curve" smooth="yes"/>
      <point x="476.0" y="539" type="line" smooth="yes"/>
      <point x="477.0" y="545"/>
      <point x="478.0" y="551"/>
      <point x="478.0" y="557" type="curve" smooth="yes"/>
      <point x="477.0" y="609"/>
      <point x="439.0" y="644"/>
      <point x="369.0" y="644" type="curve" smooth="yes"/>
      <point x="307.0" y="644" type="line" smooth="yes"/>
      <point x="255.0" y="644"/>
      <point x="222.0" y="621"/>
      <point x="210.0" y="600" type="curve"/>
      <point x="256.0" y="822" type="line"/>
      <point x="506.0" y="822" type="line"/>
      <point x="509.0" y="842" type="line"/>
      <point x="239.0" y="842" type="line"/>
      <point x="180.0" y="556" type="line"/>
      <point x="200.0" y="556" type="line"/>
      <point x="217.0" y="604"/>
      <point x="251.0" y="625"/>
      <point x="300.0" y="625" type="curve" smooth="yes"/>
      <point x="363.0" y="625" type="line" smooth="yes"/>
      <point x="424.0" y="625"/>
      <point x="455.0" y="598"/>
      <point x="455.0" y="554" type="curve" smooth="yes"/>
      <point x="455.0" y="548"/>
      <point x="455.0" y="543"/>
      <point x="453.0" y="536" type="curve" smooth="yes"/>
      <point x="443.0" y="469" type="line" smooth="yes"/>
      <point x="433.0" y="405"/>
      <point x="370.0" y="372"/>
      <point x="303.0" y="372" type="curve" smooth="yes"/>
      <point x="131.0" y="372" type="line"/>
    </contour>
  </outline>
</glyph>
<glyph name="sixsuperior" format="2">
  <advance width="421"/>
  <unicode hex="2076"/>
  <outline>
    <contour>
      <point x="178.0" y="598" type="curve"/>
      <point x="331.0" y="598" type="line" smooth="yes"/>
      <point x="400.0" y="598"/>
      <point x="444.0" y="588"/>
      <point x="444.0" y="538" type="curve" smooth="yes"/>
      <point x="444.0" y="533"/>
      <point x="443.0" y="527"/>
      <point x="442.0" y="520" type="curve" smooth="yes"/>
      <point x="432.0" y="455" type="line" smooth="yes"/>
      <point x="422.0" y="388"/>
      <point x="376.0" y="374"/>
      <point x="329.0" y="374" type="curve" smooth="yes"/>
      <point x="251.0" y="374" type="line" smooth="yes"/>
      <point x="201.0" y="374"/>
      <point x="169.0" y="400"/>
      <point x="169.0" y="490" type="curve" smooth="yes"/>
      <point x="169.0" y="519"/>
      <point x="172.0" y="554"/>
    </contour>
    <contour>
      <point x="229.0" y="846"/>
      <point x="147.0" y="688"/>
      <point x="148.0" y="491" type="curve" smooth="yes"/>
      <point x="148.0" y="383"/>
      <point x="188.0" y="354"/>
      <point x="247.0" y="354" type="curve" smooth="yes"/>
      <point x="327.0" y="354" type="line" smooth="yes"/>
      <point x="385.0" y="354"/>
      <point x="442.0" y="379"/>
      <point x="453.0" y="454" type="curve" smooth="yes"/>
      <point x="464.0" y="522" type="line" smooth="yes"/>
      <point x="465.0" y="529"/>
      <point x="466.0" y="536"/>
      <point x="466.0" y="542" type="curve" smooth="yes"/>
      <point x="466.0" y="603"/>
      <point x="412.0" y="618"/>
      <point x="336.0" y="618" type="curve" smooth="yes"/>
      <point x="303.0" y="618"/>
      <point x="229.0" y="616"/>
      <point x="181.0" y="613" type="curve"/>
      <point x="207.0" y="758"/>
      <point x="284.0" y="826"/>
      <point x="368.0" y="826" type="curve" smooth="yes"/>
      <point x="482.0" y="826" type="line"/>
      <point x="485.0" y="842" type="line"/>
      <point x="450.0" y="843"/>
      <point x="398.0" y="846"/>
      <point x="364.0" y="846" type="curve" smooth="yes"/>
    </contour>
  </outline>
</glyph>
<glyph name="sevensuperior" format="2">
  <advance width="421"/>
  <unicode hex="2077"/>
  <outline>
    <contour>
      <point x="187.0" y="820" type="line"/>
      <point x="464.0" y="820" type="line"/>
      <point x="198.0" y="355" type="line"/>
      <point x="223.0" y="355" type="line"/>
      <point x="491.0" y="825" type="line"/>
      <point x="482.0" y="842" type="line"/>
      <point x="190.0" y="842" type="line"/>
    </contour>
  </outline>
</glyph>
<glyph name="eightsuperior" format="1">
  <advance width="421"/>
  <unicode hex="2078"/>
  <note>
  </note>
  <outline>
    <contour>
      <point x="195.0" y="684" type="curve" smooth="yes"/>
      <point x="204.0" y="741" type="line" smooth="yes"/>
      <point x="213.0" y="799"/>
      <point x="241.0" y="826"/>
      <point x="301.0" y="826" type="curve" smooth="yes"/>
      <point x="391.0" y="826" type="line" smooth="yes"/>
      <point x="433.0" y="826"/>
      <point x="454.0" y="809"/>
      <point x="454.0" y="768" type="curve" smooth="yes"/>
      <point x="454.0" y="760"/>
      <point x="454.0" y="751"/>
      <point x="452.0" y="741" type="curve" smooth="yes"/>
      <point x="443.0" y="684" type="line" smooth="yes"/>
      <point x="438.0" y="654"/>
      <point x="409.0" y="613"/>
      <point x="352.0" y="613" type="curve" smooth="yes"/>
      <point x="267.0" y="613" type="line" smooth="yes"/>
      <point x="216.0" y="613"/>
      <point x="194.0" y="640"/>
      <point x="194.0" y="672" type="curve" smooth="yes"/>
      <point x="194.0" y="676"/>
      <point x="194.0" y="680"/>
    </contour>
    <contour>
      <point x="148.0" y="445" type="curve" smooth="yes"/>
      <point x="160.0" y="519" type="line" smooth="yes"/>
      <point x="169.0" y="576"/>
      <point x="233.0" y="593"/>
      <point x="264.0" y="593" type="curve" smooth="yes"/>
      <point x="349.0" y="593" type="line" smooth="yes"/>
      <point x="405.0" y="593"/>
      <point x="428.0" y="579"/>
      <point x="428.0" y="540" type="curve" smooth="yes"/>
      <point x="428.0" y="534"/>
      <point x="427.0" y="527"/>
      <point x="426.0" y="519" type="curve" smooth="yes"/>
      <point x="414.0" y="445" type="line" smooth="yes"/>
      <point x="407.0" y="398"/>
      <point x="374.0" y="374"/>
      <point x="318.0" y="374" type="curve" smooth="yes"/>
      <point x="229.0" y="374" type="line" smooth="yes"/>
      <point x="183.0" y="374"/>
      <point x="147.0" y="390"/>
      <point x="147.0" y="431" type="curve" smooth="yes"/>
      <point x="147.0" y="435"/>
      <point x="147.0" y="440"/>
    </contour>
    <contour>
      <point x="126.0" y="445" type="line" smooth="yes"/>
      <point x="125.0" y="439"/>
      <point x="124" y="433"/>
      <point x="124.0" y="427" type="curve" smooth="yes"/>
      <point x="124" y="381"/>
      <point x="161.0" y="355"/>
      <point x="225.0" y="355" type="curve" smooth="yes"/>
      <point x="317.0" y="355" type="line" smooth="yes"/>
      <point x="384.0" y="355"/>
      <point x="427.0" y="385"/>
      <point x="436.0" y="445" type="curve" smooth="yes"/>
      <point x="449.0" y="523" type="line" smooth="yes"/>
      <point x="449.0" y="529"/>
      <point x="450.0" y="534"/>
      <point x="450.0" y="540" type="curve" smooth="yes"/>
      <point x="450.0" y="573"/>
      <point x="432.0" y="600"/>
      <point x="398.0" y="606" type="curve"/>
      <point x="434.0" y="618"/>
      <point x="459.0" y="652"/>
      <point x="465.0" y="687" type="curve" smooth="yes"/>
      <point x="474.0" y="744" type="line" smooth="yes"/>
      <point x="476.0" y="755"/>
      <point x="476" y="764"/>
      <point x="476.0" y="773" type="curve" smooth="yes"/>
      <point x="476" y="821"/>
      <point x="448.0" y="845"/>
      <point x="395.0" y="845" type="curve" smooth="yes"/>
      <point x="303.0" y="845" type="line" smooth="yes"/>
      <point x="242.0" y="845"/>
      <point x="194.0" y="816"/>
      <point x="182.0" y="744" type="curve" smooth="yes"/>
      <point x="174.0" y="687" type="line" smooth="yes"/>
      <point x="173.0" y="681"/>
      <point x="172.0" y="676"/>
      <point x="172.0" y="670" type="curve" smooth="yes"/>
      <point x="172.0" y="641"/>
      <point x="186.0" y="615"/>
      <point x="220.0" y="601" type="curve"/>
      <point x="194.0" y="595"/>
      <point x="146.0" y="571"/>
      <point x="137.0" y="517" type="curve" smooth="yes"/>
    </contour>
  </outline>
</glyph>
<glyph name="ninesuperior" format="2">
  <advance width="421"/>
  <unicode hex="2079"/>
  <outline>
    <contour>
      <point x="450.0" y="600" type="curve"/>
      <point x="297.0" y="600" type="line" smooth="yes"/>
      <point x="229.0" y="600"/>
      <point x="185.0" y="610"/>
      <point x="185.0" y="660" type="curve" smooth="yes"/>
      <point x="185.0" y="665"/>
      <point x="185.0" y="671"/>
      <point x="186.0" y="678" type="curve" smooth="yes"/>
      <point x="196.0" y="744" type="line" smooth="yes"/>
      <point x="207.0" y="810"/>
      <point x="252.0" y="824"/>
      <point x="300.0" y="824" type="curve" smooth="yes"/>
      <point x="377.0" y="824" type="line" smooth="yes"/>
      <point x="427.0" y="824"/>
      <point x="460.0" y="798"/>
      <point x="460.0" y="708" type="curve" smooth="yes"/>
      <point x="460.0" y="679"/>
      <point x="457.0" y="644"/>
    </contour>
    <contour>
      <point x="399.0" y="352"/>
      <point x="481" y="511"/>
      <point x="481.0" y="708" type="curve" smooth="yes"/>
      <point x="481" y="814"/>
      <point x="440.0" y="844"/>
      <point x="381.0" y="844" type="curve" smooth="yes"/>
      <point x="301.0" y="844" type="line" smooth="yes"/>
      <point x="243.0" y="844"/>
      <point x="187.0" y="819"/>
      <point x="175.0" y="744" type="curve" smooth="yes"/>
      <point x="165.0" y="676" type="line" smooth="yes"/>
      <point x="163.0" y="669"/>
      <point x="162.0" y="662"/>
      <point x="163.0" y="656" type="curve" smooth="yes"/>
      <point x="163.0" y="595"/>
      <point x="217.0" y="581"/>
      <point x="292.0" y="581" type="curve" smooth="yes"/>
      <point x="325.0" y="581"/>
      <point x="400.0" y="582"/>
      <point x="447.0" y="585" type="curve"/>
      <point x="418.0" y="441"/>
      <point x="344.0" y="372"/>
      <point x="260.0" y="372" type="curve" smooth="yes"/>
      <point x="146.0" y="372" type="line"/>
      <point x="143.0" y="357" type="line"/>
      <point x="179.0" y="355"/>
      <point x="230.0" y="352"/>
      <point x="264.0" y="352" type="curve" smooth="yes"/>
    </contour>
  </outline>
</glyph>
<glyph name="n.superior" format="2">
  <advance width="425"/>
  <unicode hex="207F"/>
  <note>
GF Latin Plus glyph
</note>
  <anchor x="332.0" y="759" name="top"/>
  <anchor x="239.0" y="169" name="bottom"/>
  <outline>
    <contour>
      <point x="103" y="280" type="line"/>
      <point x="125" y="280" type="line"/>
      <point x="178" y="611" type="line"/>
      <point x="237" y="642"/>
      <point x="280.0" y="658"/>
      <point x="344.0" y="658" type="curve" smooth="yes"/>
      <point x="412.0" y="658"/>
      <point x="433.0" y="624"/>
      <point x="433.0" y="580" type="curve" smooth="yes"/>
      <point x="433.0" y="570"/>
      <point x="432.0" y="561"/>
      <point x="426.0" y="523" type="curve" smooth="yes"/>
      <point x="388.0" y="280" type="line"/>
      <point x="410.0" y="280" type="line"/>
      <point x="449.0" y="524" type="line" smooth="yes"/>
      <point x="455.0" y="563"/>
      <point x="455.0" y="574"/>
      <point x="455.0" y="583" type="curve" smooth="yes"/>
      <point x="455.0" y="636"/>
      <point x="429.0" y="678"/>
      <point x="350.0" y="678" type="curve" smooth="yes"/>
      <point x="289.0" y="678"/>
      <point x="228.0" y="656"/>
      <point x="180.0" y="626" type="curve"/>
      <point x="181" y="672" type="line"/>
      <point x="165" y="672" type="line"/>
    </contour>
  </outline>
</glyph>
<glyph name="peseta" format="2">
  <advance width="609"/>
  <unicode hex="20A7"/>
  <note>
GF Latin Plus glyph
</note>
  <outline>
    <contour>
      <point x="171" y="247" type="line"/>
      <point x="244" y="710" type="line"/>
      <point x="456" y="710" type="line" smooth="yes"/>
      <point x="520" y="710"/>
      <point x="579" y="683"/>
      <point x="579" y="563" type="curve" smooth="yes"/>
      <point x="579" y="347"/>
      <point x="472" y="247"/>
      <point x="373" y="247" type="curve" smooth="yes"/>
    </contour>
    <contour>
      <point x="108" y="0" type="line"/>
      <point x="132" y="0" type="line"/>
      <point x="169" y="231" type="line"/>
      <point x="206" y="229"/>
      <point x="307" y="225"/>
      <point x="370" y="225" type="curve" smooth="yes"/>
      <point x="464" y="225"/>
      <point x="603" y="305"/>
      <point x="603" y="564" type="curve" smooth="yes"/>
      <point x="603" y="704"/>
      <point x="527" y="732"/>
      <point x="460" y="732" type="curve" smooth="yes"/>
      <point x="224" y="732" type="line"/>
    </contour>
    <contour>
      <point x="195" y="464" type="line"/>
      <point x="672" y="464" type="line"/>
      <point x="676" y="486" type="line"/>
      <point x="199" y="486" type="line"/>
    </contour>
    <contour>
      <point x="93" y="464" type="line"/>
      <point x="191" y="464" type="line"/>
      <point x="195" y="486" type="line"/>
      <point x="97" y="486" type="line"/>
    </contour>
  </outline>
</glyph>
<glyph name="won" format="2">
  <advance width="609"/>
  <unicode hex="20A9"/>
  <note>
GF Latin Plus glyph
</note>
  <outline>
    <contour>
      <point x="171" y="732" type="line"/>
      <point x="145" y="0" type="line"/>
      <point x="166" y="0" type="line"/>
      <point x="391" y="555" type="line"/>
      <point x="434" y="0" type="line"/>
      <point x="454" y="0" type="line"/>
      <point x="665" y="732" type="line"/>
      <point x="640" y="732" type="line"/>
      <point x="453" y="79" type="line"/>
      <point x="410" y="603" type="line"/>
      <point x="387" y="603" type="line"/>
      <point x="173" y="79" type="line"/>
      <point x="196" y="732" type="line"/>
    </contour>
    <contour>
      <point x="78" y="464" type="line"/>
      <point x="175" y="464" type="line"/>
      <point x="179" y="488" type="line"/>
      <point x="82" y="488" type="line"/>
    </contour>
    <contour>
      <point x="583" y="464" type="line"/>
      <point x="667" y="464" type="line"/>
      <point x="671" y="488" type="line"/>
      <point x="587" y="488" type="line"/>
    </contour>
    <contour>
      <point x="45" y="255" type="line"/>
      <point x="171" y="255" type="line"/>
      <point x="170" y="279" type="line"/>
      <point x="49" y="279" type="line"/>
    </contour>
    <contour>
      <point x="517" y="255" type="line"/>
      <point x="634" y="255" type="line"/>
      <point x="638" y="279" type="line"/>
      <point x="521" y="279" type="line"/>
    </contour>
  </outline>
</glyph>
<glyph name="dong" format="1">
  <advance width="609"/>
  <unicode hex="20AB"/>
  <note>
    GF Latin Plus glyph
  </note>
  <outline>
    <contour>
      <point x="76" y="-26" type="line"/>
      <point x="544" y="-26" type="line"/>
      <point x="548" y="-2" type="line"/>
      <point x="80" y="-2" type="line"/>
    </contour>
    <contour>
      <point x="428" y="680" type="line"/>
      <point x="686" y="680" type="line"/>
      <point x="688" y="696" type="line"/>
      <point x="430" y="696" type="line"/>
    </contour>
    <contour>
      <point x="162" y="411"/>
      <point x="230" y="555"/>
      <point x="380" y="555" type="curve" smooth="yes"/>
      <point x="453" y="555"/>
      <point x="497" y="542"/>
      <point x="560" y="525" type="curve"/>
      <point x="508" y="193" type="line"/>
      <point x="450" y="166"/>
      <point x="383" y="136"/>
      <point x="304" y="136" type="curve" smooth="yes"/>
      <point x="205" y="136"/>
      <point x="162" y="180"/>
      <point x="162" y="274" type="curve" smooth="yes"/>
    </contour>
    <contour>
      <point x="216" y="577"/>
      <point x="138" y="416"/>
      <point x="138" y="271" type="curve" smooth="yes"/>
      <point x="138" y="167"/>
      <point x="187" y="114"/>
      <point x="300" y="114" type="curve" smooth="yes"/>
      <point x="367" y="114"/>
      <point x="475" y="153"/>
      <point x="505" y="177" type="curve"/>
      <point x="504" y="120" type="line"/>
      <point x="520" y="120" type="line"/>
      <point x="625" y="783" type="line"/>
      <point x="601" y="783" type="line"/>
      <point x="563" y="541" type="line"/>
      <point x="517" y="558"/>
      <point x="451" y="577"/>
      <point x="383" y="577" type="curve" smooth="yes"/>
    </contour>
  </outline>
</glyph>
<glyph name="kip" format="2">
  <advance width="609"/>
  <unicode hex="20AD"/>
  <note>
GF Latin Plus glyph
</note>
  <outline>
    <contour>
      <point x="86" y="356" type="line"/>
      <point x="595" y="356" type="line"/>
      <point x="599" y="378" type="line"/>
      <point x="90" y="378" type="line"/>
    </contour>
    <contour>
      <point x="108" y="0" type="line"/>
      <point x="132" y="0" type="line"/>
      <point x="188" y="356" type="line"/>
      <point x="342" y="356" type="line"/>
      <point x="527" y="0" type="line"/>
      <point x="554" y="0" type="line"/>
      <point x="364" y="367" type="line"/>
      <point x="670" y="732" type="line"/>
      <point x="644" y="732" type="line"/>
      <point x="347" y="378" type="line"/>
      <point x="192" y="378" type="line"/>
      <point x="248" y="732" type="line"/>
      <point x="224" y="732" type="line"/>
    </contour>
  </outline>
</glyph>
<glyph name="peso" format="1">
  <advance width="609"/>
  <unicode hex="20B1"/>
  <note>
    GF Latin Plus glyph
  </note>
  <outline>
    <contour>
      <point x="586" y="559" type="line"/>
      <point x="688" y="559" type="line"/>
      <point x="691" y="581" type="line"/>
      <point x="589" y="581" type="line"/>
    </contour>
    <contour>
      <point x="99" y="559" type="line"/>
      <point x="239" y="559" type="line"/>
      <point x="242" y="581" type="line"/>
      <point x="102" y="581" type="line"/>
    </contour>
    <contour>
      <point x="538" y="392" type="line"/>
      <point x="661" y="392" type="line"/>
      <point x="665" y="414" type="line"/>
      <point x="552" y="414" type="line"/>
    </contour>
    <contour>
      <point x="72" y="392" type="line"/>
      <point x="215" y="392" type="line"/>
      <point x="219" y="414" type="line"/>
      <point x="76" y="414" type="line"/>
    </contour>
    <contour>
      <point x="211" y="307" type="line"/>
      <point x="274" y="710" type="line"/>
      <point x="446" y="710" type="line" smooth="yes"/>
      <point x="511" y="710"/>
      <point x="572" y="685"/>
      <point x="572" y="576" type="curve" smooth="yes"/>
      <point x="572" y="406"/>
      <point x="471" y="307"/>
      <point x="366" y="307" type="curve" smooth="yes"/>
    </contour>
    <contour>
      <point x="138" y="0" type="line"/>
      <point x="162" y="0" type="line"/>
      <point x="208" y="291" type="line"/>
      <point x="253" y="289"/>
      <point x="314" y="285"/>
      <point x="369" y="285" type="curve" smooth="yes"/>
      <point x="478" y="285"/>
      <point x="597" y="395"/>
      <point x="597" y="578" type="curve" smooth="yes"/>
      <point x="597" y="706"/>
      <point x="519" y="732"/>
      <point x="450" y="732" type="curve" smooth="yes"/>
      <point x="254" y="732" type="line"/>
    </contour>
  </outline>
</glyph>
<glyph name="guarani" format="2">
  <advance width="609"/>
  <unicode hex="20B2"/>
  <note>
GF Latin Plus glyph
</note>
  <outline>
    <contour>
      <point x="336" y="-110" type="line"/>
      <point x="479" y="793" type="line"/>
      <point x="454" y="793" type="line"/>
      <point x="311" y="-110" type="line"/>
    </contour>
    <contour>
      <point x="195" y="718"/>
      <point x="111" y="413"/>
      <point x="111" y="191" type="curve" smooth="yes"/>
      <point x="111" y="47"/>
      <point x="166" y="-5"/>
      <point x="306" y="-5" type="curve" smooth="yes"/>
      <point x="391" y="-5"/>
      <point x="470.5882352941176" y="22.41176470588235"/>
      <point x="540" y="53" type="curve"/>
      <point x="538" y="0" type="line"/>
      <point x="554" y="0" type="line"/>
      <point x="611" y="363" type="line"/>
      <point x="587" y="363" type="line"/>
      <point x="541" y="69" type="line"/>
      <point x="477" y="44"/>
      <point x="387" y="17"/>
      <point x="316" y="17" type="curve" smooth="yes"/>
      <point x="185" y="17"/>
      <point x="135" y="63"/>
      <point x="135" y="194" type="curve" smooth="yes"/>
      <point x="135" y="399"/>
      <point x="208" y="696"/>
      <point x="430" y="696" type="curve" smooth="yes"/>
      <point x="516" y="696"/>
      <point x="618" y="686"/>
      <point x="655" y="682" type="curve"/>
      <point x="658" y="698" type="line"/>
      <point x="596" y="709"/>
      <point x="492" y="718"/>
      <point x="434" y="718" type="curve" smooth="yes"/>
    </contour>
  </outline>
</glyph>
<glyph name="cedi" format="2">
  <advance width="609"/>
  <unicode hex="20B5"/>
  <note>
GF Latin Plus glyph
</note>
  <outline>
    <contour>
      <point x="347" y="-110" type="line"/>
      <point x="490" y="793" type="line"/>
      <point x="465" y="793" type="line"/>
      <point x="322" y="-110" type="line"/>
    </contour>
    <contour>
      <point x="273.6438356164383" y="730.0"/>
      <point x="119.0" y="528.9499036608863"/>
      <point x="119" y="221" type="curve" smooth="yes"/>
      <point x="119.0" y="41.07373271889401"/>
      <point x="215" y="-6"/>
      <point x="338" y="-6" type="curve" smooth="yes"/>
      <point x="426" y="-6"/>
      <point x="510" y="8"/>
      <point x="557" y="26" type="curve"/>
      <point x="560" y="42" type="line"/>
      <point x="481" y="22"/>
      <point x="433" y="16"/>
      <point x="347" y="16" type="curve" smooth="yes"/>
      <point x="228" y="16"/>
      <point x="143.0" y="58.061855670103114"/>
      <point x="143" y="220" type="curve" smooth="yes"/>
      <point x="143.0" y="515.9112903225807"/>
      <point x="285.68914956011724" y="706.0"/>
      <point x="474" y="706" type="curve" smooth="yes"/>
      <point x="547.9325842696629" y="706.0"/>
      <point x="609.9827840866003" y="692.0043039783499"/>
      <point x="662" y="679" type="curve"/>
      <point x="664" y="695" type="line"/>
      <point x="632.9721243987042" y="710.0134881941755"/>
      <point x="551.0555555555555" y="730.0"/>
      <point x="474" y="730" type="curve" smooth="yes"/>
    </contour>
  </outline>
</glyph>
<glyph name="manat" format="2">
  <advance width="609"/>
  <unicode hex="20BC"/>
  <note>
GF Latin Plus glyph
</note>
  <outline>
    <contour>
      <point x="306" y="80" type="line"/>
      <point x="329" y="80" type="line"/>
      <point x="440" y="783" type="line"/>
      <point x="417" y="783" type="line"/>
    </contour>
    <contour>
      <point x="55" y="0" type="curve"/>
      <point x="79" y="0" type="line"/>
      <point x="121" y="199" type="line" smooth="yes"/>
      <point x="163" y="402"/>
      <point x="239" y="647"/>
      <point x="406" y="647" type="curve" smooth="yes"/>
      <point x="529" y="647"/>
      <point x="562" y="515"/>
      <point x="562" y="364" type="curve" smooth="yes"/>
      <point x="562" y="310"/>
      <point x="557" y="253"/>
      <point x="552" y="199" type="curve" smooth="yes"/>
      <point x="530" y="0" type="line"/>
      <point x="554" y="0" type="line"/>
      <point x="572" y="134"/>
      <point x="585" y="257"/>
      <point x="585" y="359" type="curve" smooth="yes"/>
      <point x="585" y="549"/>
      <point x="541" y="669"/>
      <point x="410" y="669" type="curve" smooth="yes"/>
      <point x="208" y="669"/>
      <point x="125" y="384"/>
    </contour>
  </outline>
</glyph>
<glyph name="ruble" format="2">
  <advance width="609"/>
  <unicode hex="20BD"/>
  <note>
GF Latin Plus glyph
</note>
  <outline>
    <contour>
      <point x="172" y="132" type="line"/>
      <point x="500" y="132" type="line"/>
      <point x="503" y="154" type="line"/>
      <point x="175" y="154" type="line"/>
    </contour>
    <contour>
      <point x="41" y="132" type="line"/>
      <point x="168" y="132" type="line"/>
      <point x="171" y="154" type="line"/>
      <point x="44" y="154" type="line"/>
    </contour>
    <contour>
      <point x="209" y="316" type="line"/>
      <point x="271" y="710" type="line"/>
      <point x="443" y="710" type="line" smooth="yes"/>
      <point x="551" y="710"/>
      <point x="600" y="677"/>
      <point x="600" y="581" type="curve" smooth="yes"/>
      <point x="600" y="457"/>
      <point x="524" y="316"/>
      <point x="381" y="316" type="curve" smooth="yes"/>
    </contour>
    <contour>
      <point x="135" y="0" type="line"/>
      <point x="159" y="0" type="line"/>
      <point x="206" y="294" type="line"/>
      <point x="264" y="294.0"/>
      <point x="321" y="294.0"/>
      <point x="379" y="294" type="curve"/>
      <point x="541" y="294"/>
      <point x="624" y="452"/>
      <point x="624" y="578" type="curve" smooth="yes"/>
      <point x="624" y="694"/>
      <point x="558" y="732"/>
      <point x="467" y="732" type="curve" smooth="yes"/>
      <point x="251" y="732" type="line"/>
    </contour>
    <contour>
      <point x="67" y="294" type="line"/>
      <point x="188" y="294" type="line"/>
      <point x="191" y="316" type="line"/>
      <point x="70" y="316" type="line"/>
    </contour>
  </outline>
</glyph>
<glyph name="literSign" format="2">
  <advance width="417"/>
  <unicode hex="2113"/>
  <outline>
    <contour>
      <point x="160" y="321" type="curve"/>
      <point x="198" y="626" type="line" smooth="yes"/>
      <point x="205" y="684"/>
      <point x="252" y="717"/>
      <point x="296" y="717" type="curve" smooth="yes"/>
      <point x="355" y="717"/>
      <point x="387" y="675"/>
      <point x="387" y="622" type="curve" smooth="yes"/>
      <point x="387" y="555"/>
      <point x="286" y="425"/>
    </contour>
    <contour>
      <point x="70" y="248" type="curve"/>
      <point x="77" y="236" type="line"/>
      <point x="88" y="241"/>
      <point x="118" y="260"/>
      <point x="132" y="273" type="curve"/>
      <point x="121" y="188" type="line" smooth="yes"/>
      <point x="118" y="164"/>
      <point x="117" y="143"/>
      <point x="117" y="125" type="curve" smooth="yes"/>
      <point x="117" y="33"/>
      <point x="152" y="0"/>
      <point x="216" y="0" type="curve" smooth="yes"/>
      <point x="288" y="0" type="line"/>
      <point x="290" y="16" type="line"/>
      <point x="217" y="24" type="line" smooth="yes"/>
      <point x="173" y="29"/>
      <point x="140" y="46"/>
      <point x="140" y="129" type="curve" smooth="yes"/>
      <point x="140" y="146"/>
      <point x="141" y="166"/>
      <point x="144" y="188" type="curve" smooth="yes"/>
      <point x="157" y="294" type="line"/>
      <point x="311" y="416"/>
      <point x="410" y="551"/>
      <point x="410" y="625" type="curve" smooth="yes"/>
      <point x="410" y="688"/>
      <point x="371" y="739"/>
      <point x="301" y="739" type="curve" smooth="yes"/>
      <point x="240" y="739"/>
      <point x="184" y="699"/>
      <point x="175" y="625" type="curve" smooth="yes"/>
      <point x="135" y="302" type="line"/>
      <point x="114" y="282"/>
      <point x="92" y="265"/>
    </contour>
  </outline>
</glyph>
<glyph name="literSign" format="1">
  <advance width="417"/>
  <unicode hex="2113"/>
  <note>
  </note>
  <outline>
    <contour>
      <point x="160" y="321" type="curve"/>
      <point x="198" y="626" type="line" smooth="yes"/>
      <point x="205" y="684"/>
      <point x="252" y="717"/>
      <point x="296" y="717" type="curve" smooth="yes"/>
      <point x="355" y="717"/>
      <point x="387" y="675"/>
      <point x="387" y="622" type="curve" smooth="yes"/>
      <point x="387" y="555"/>
      <point x="286" y="425"/>
    </contour>
    <contour>
      <point x="70" y="248" type="curve"/>
      <point x="77" y="236" type="line"/>
      <point x="88" y="241"/>
      <point x="118" y="260"/>
      <point x="132" y="273" type="curve"/>
      <point x="121" y="188" type="line" smooth="yes"/>
      <point x="118" y="164"/>
      <point x="117" y="143"/>
      <point x="117" y="125" type="curve" smooth="yes"/>
      <point x="117" y="33"/>
      <point x="152" y="0"/>
      <point x="216" y="0" type="curve" smooth="yes"/>
      <point x="288" y="0" type="line"/>
      <point x="290" y="16" type="line"/>
      <point x="217" y="24" type="line" smooth="yes"/>
      <point x="173" y="29"/>
      <point x="140" y="46"/>
      <point x="140" y="129" type="curve" smooth="yes"/>
      <point x="140" y="146"/>
      <point x="141" y="166"/>
      <point x="144" y="188" type="curve" smooth="yes"/>
      <point x="157" y="294" type="line"/>
      <point x="311" y="416"/>
      <point x="410" y="551"/>
      <point x="410" y="625" type="curve" smooth="yes"/>
      <point x="410" y="688"/>
      <point x="371" y="739"/>
      <point x="301" y="739" type="curve" smooth="yes"/>
      <point x="240" y="739"/>
      <point x="184" y="699"/>
      <point x="175" y="625" type="curve" smooth="yes"/>
      <point x="135" y="302" type="line"/>
      <point x="114" y="282"/>
      <point x="92" y="265"/>
    </contour>
  </outline>
</glyph>
<glyph name="numero" format="2">
  <advance width="1101"/>
  <unicode hex="2116"/>
  <note>
GF Latin Plus glyph
</note>
  <outline>
    <contour>
      <point x="108" y="0" type="line"/>
      <point x="132" y="0" type="line"/>
      <point x="234" y="645" type="line" smooth="yes"/>
      <point x="242" y="697"/>
      <point x="267" y="715"/>
      <point x="298" y="715" type="curve" smooth="yes"/>
      <point x="326" y="715"/>
      <point x="343" y="701"/>
      <point x="350" y="668" type="curve" smooth="yes"/>
      <point x="473" y="49" type="line" smooth="yes"/>
      <point x="481" y="10"/>
      <point x="509" y="-6"/>
      <point x="539" y="-6" type="curve" smooth="yes"/>
      <point x="590" y="-6"/>
      <point x="627" y="27"/>
      <point x="636" y="79" type="curve" smooth="yes"/>
      <point x="709" y="544" type="line" smooth="yes"/>
      <point x="732" y="689"/>
      <point x="814" y="720"/>
      <point x="898" y="720" type="curve" smooth="yes"/>
      <point x="1013" y="720" type="line" smooth="yes"/>
      <point x="1068" y="720"/>
      <point x="1117" y="693"/>
      <point x="1117" y="605" type="curve" smooth="yes"/>
      <point x="1117" y="511"/>
      <point x="1066" y="407"/>
      <point x="968" y="407" type="curve" smooth="yes"/>
      <point x="930" y="407" type="line" smooth="yes"/>
      <point x="876" y="407"/>
      <point x="849" y="437"/>
      <point x="849" y="525" type="curve" smooth="yes"/>
      <point x="849" y="553"/>
      <point x="852" y="587"/>
      <point x="859" y="629" type="curve"/>
      <point x="837" y="629" type="line"/>
      <point x="830" y="586"/>
      <point x="826" y="550"/>
      <point x="826" y="519" type="curve" smooth="yes"/>
      <point x="826" y="429"/>
      <point x="862" y="385"/>
      <point x="930" y="385" type="curve" smooth="yes"/>
      <point x="966" y="385" type="line" smooth="yes"/>
      <point x="1077" y="385"/>
      <point x="1140" y="506"/>
      <point x="1140" y="608" type="curve" smooth="yes"/>
      <point x="1140" y="701"/>
      <point x="1077" y="742"/>
      <point x="1015" y="742" type="curve" smooth="yes"/>
      <point x="904" y="742" type="line" smooth="yes"/>
      <point x="809" y="742"/>
      <point x="709" y="697"/>
      <point x="685" y="542" type="curve" smooth="yes"/>
      <point x="613" y="86" type="line" smooth="yes"/>
      <point x="606" y="42"/>
      <point x="581" y="16"/>
      <point x="542" y="16" type="curve" smooth="yes"/>
      <point x="520" y="16"/>
      <point x="500" y="31"/>
      <point x="495" y="57" type="curve" smooth="yes"/>
      <point x="372" y="680" type="line" smooth="yes"/>
      <point x="364" y="719"/>
      <point x="341" y="737"/>
      <point x="301" y="737" type="curve" smooth="yes"/>
      <point x="255" y="737"/>
      <point x="220" y="707"/>
      <point x="211" y="650" type="curve" smooth="yes"/>
    </contour>
  </outline>
</glyph>
<glyph name="trademark" format="2">
  <advance width="704"/>
  <unicode hex="2122"/>
  <note>
GF Latin Plus glyph
</note>
  <outline>
    <contour>
      <point x="386" y="383" type="line"/>
      <point x="400" y="383" type="line"/>
      <point x="474" y="701" type="line"/>
      <point x="565" y="383" type="line"/>
      <point x="574" y="383" type="line"/>
      <point x="753" y="700" type="line"/>
      <point x="732" y="383" type="line"/>
      <point x="745" y="383" type="line"/>
      <point x="769" y="732" type="line"/>
      <point x="757" y="732" type="line"/>
      <point x="572" y="405" type="line"/>
      <point x="479" y="732" type="line"/>
      <point x="468" y="732" type="line"/>
    </contour>
    <contour>
      <point x="211" y="383" type="line"/>
      <point x="225" y="383" type="line"/>
      <point x="278" y="718" type="line"/>
      <point x="400" y="718" type="line"/>
      <point x="402" y="732" type="line"/>
      <point x="143" y="732" type="line"/>
      <point x="141" y="718" type="line"/>
      <point x="264" y="718" type="line"/>
    </contour>
  </outline>
</glyph>
<glyph name="estimated" format="1">
  <advance width="890"/>
  <unicode hex="212E"/>
  <note>
  </note>
  <outline>
    <contour>
      <point x="238" y="353" type="curve" smooth="yes"/>
      <point x="238" y="540" type="line" smooth="yes"/>
      <point x="238" y="572"/>
      <point x="347" y="673"/>
      <point x="493" y="673" type="curve" smooth="yes"/>
      <point x="609" y="673"/>
      <point x="751" y="594"/>
      <point x="751" y="536" type="curve" smooth="yes"/>
      <point x="751" y="350" type="line" smooth="yes"/>
      <point x="751" y="336"/>
      <point x="750" y="340"/>
      <point x="733" y="340" type="curve" smooth="yes"/>
      <point x="250" y="340" type="line" smooth="yes"/>
      <point x="243" y="340"/>
      <point x="238" y="340"/>
    </contour>
    <contour>
      <point x="90" y="327" type="curve" smooth="yes"/>
      <point x="90" y="219"/>
      <point x="127" y="132"/>
      <point x="201" y="62" type="curve" smooth="yes"/>
      <point x="275" y="-8"/>
      <point x="368" y="-41"/>
      <point x="494" y="-41" type="curve" smooth="yes"/>
      <point x="578" y="-41"/>
      <point x="619" y="-32"/>
      <point x="676" y="-10" type="curve" smooth="yes"/>
      <point x="730" y="12"/>
      <point x="776" y="50"/>
      <point x="827" y="105" type="curve"/>
      <point x="752" y="105" type="line"/>
      <point x="694" y="39"/>
      <point x="597" y="-13"/>
      <point x="494" y="-13" type="curve" smooth="yes"/>
      <point x="340" y="-13"/>
      <point x="238" y="80"/>
      <point x="238" y="117" type="curve" smooth="yes"/>
      <point x="238" y="301" type="line" smooth="yes"/>
      <point x="238" y="318"/>
      <point x="244" y="317"/>
      <point x="254" y="317" type="curve" smooth="yes"/>
      <point x="900" y="317" type="line"/>
      <point x="895" y="439"/>
      <point x="853" y="542"/>
      <point x="775" y="604" type="curve" smooth="yes"/>
      <point x="696" y="666"/>
      <point x="614" y="698"/>
      <point x="494" y="698" type="curve" smooth="yes"/>
      <point x="363" y="698"/>
      <point x="276" y="661"/>
      <point x="201" y="591" type="curve" smooth="yes"/>
      <point x="126" y="521"/>
      <point x="90" y="434"/>
    </contour>
  </outline>
</glyph>
<glyph name="increment" format="1">
  <advance width="660.0"/>
  <unicode hex="2206"/>
  <outline>
    <contour>
      <point x="82" y="22" type="line"/>
      <point x="448" y="706" type="line"/>
      <point x="585" y="22" type="line"/>
    </contour>
    <contour>
      <point x="45" y="0" type="line"/>
      <point x="615" y="0" type="line"/>
      <point x="469" y="732" type="line"/>
      <point x="435" y="732" type="line"/>
    </contour>
  </outline>
</glyph>
<glyph name="product" format="2">
  <advance width="579"/>
  <unicode hex="220F"/>
  <outline>
    <contour>
      <point x="106" y="0" type="line"/>
      <point x="130" y="0" type="line"/>
      <point x="242" y="710" type="line"/>
      <point x="555" y="710" type="line"/>
      <point x="443" y="0" type="line"/>
      <point x="467" y="0" type="line"/>
      <point x="579" y="710" type="line"/>
      <point x="666" y="710" type="line"/>
      <point x="670" y="732" type="line"/>
      <point x="136" y="732" type="line"/>
      <point x="132" y="710" type="line"/>
      <point x="218" y="710" type="line"/>
    </contour>
  </outline>
</glyph>
<glyph name="summation" format="2">
  <advance width="497"/>
  <unicode hex="2211"/>
  <outline>
    <contour>
      <point x="8" y="-200" type="line"/>
      <point x="494" y="-200" type="line"/>
      <point x="498" y="-173" type="line"/>
      <point x="45" y="-173" type="line"/>
      <point x="326" y="266" type="line"/>
      <point x="180" y="708" type="line"/>
      <point x="638" y="708" type="line"/>
      <point x="642" y="732" type="line"/>
      <point x="156" y="732" type="line"/>
      <point x="152" y="708" type="line"/>
      <point x="295" y="269" type="line"/>
      <point x="12" y="-173" type="line"/>
    </contour>
  </outline>
</glyph>
<glyph name="minus" format="2">
  <advance width="609"/>
  <unicode hex="2212"/>
  <note>
GF Latin Plus glyph
</note>
  <outline>
    <contour>
      <point x="135" y="344" type="line"/>
      <point x="583" y="344" type="line"/>
      <point x="587" y="368" type="line"/>
      <point x="139" y="368" type="line"/>
    </contour>
  </outline>
</glyph>
<glyph name="divisionslash" format="2">
  <advance width="609"/>
  <unicode hex="2215"/>
  <note>
GF Latin Plus glyph
</note>
  <outline>
    <contour>
      <point x="625" y="713" type="line"/>
      <point x="70" y="0" type="line"/>
      <point x="96" y="0" type="line"/>
      <point x="651" y="713" type="line"/>
    </contour>
  </outline>
</glyph>
<glyph name="bulletoperator" format="2">
  <advance width="609"/>
  <unicode hex="2219"/>
  <note>
GF Latin Plus glyph
</note>
  <outline>
    <contour>
      <point x="328" y="343" type="line" smooth="yes"/>
      <point x="328" y="342"/>
      <point x="328" y="340"/>
      <point x="328" y="339" type="curve" smooth="yes"/>
      <point x="328" y="327"/>
      <point x="336" y="320"/>
      <point x="349" y="320" type="curve" smooth="yes"/>
      <point x="361" y="320" type="line" smooth="yes"/>
      <point x="375" y="320"/>
      <point x="386" y="325"/>
      <point x="389" y="343" type="curve" smooth="yes"/>
      <point x="393" y="367" type="line" smooth="yes"/>
      <point x="394" y="369"/>
      <point x="394" y="372"/>
      <point x="394" y="374" type="curve" smooth="yes"/>
      <point x="394" y="386"/>
      <point x="387" y="392"/>
      <point x="372" y="392" type="curve" smooth="yes"/>
      <point x="360" y="392" type="line" smooth="yes"/>
      <point x="344" y="392"/>
      <point x="335" y="382"/>
      <point x="332" y="367" type="curve" smooth="yes"/>
    </contour>
  </outline>
</glyph>
<glyph name="radical" format="1">
  <advance width="545"/>
  <unicode hex="221A"/>
  <outline>
    <contour>
      <point x="64" y="334" type="line"/>
      <point x="154" y="334" type="line"/>
      <point x="247" y="0" type="line"/>
      <point x="265" y="0" type="line"/>
      <point x="676" y="800" type="line"/>
      <point x="652" y="800" type="line"/>
      <point x="261" y="41" type="line"/>
      <point x="171" y="358" type="line"/>
      <point x="68" y="358" type="line"/>
    </contour>
  </outline>
</glyph>
<glyph name="infinity" format="2">
  <advance width="691"/>
  <unicode hex="221E"/>
  <outline>
    <contour>
      <point x="414" y="343" type="curve"/>
      <point x="465" y="407"/>
      <point x="564" y="490"/>
      <point x="623" y="490" type="curve" smooth="yes"/>
      <point x="728" y="490"/>
      <point x="735" y="430"/>
      <point x="721" y="341" type="curve" smooth="yes"/>
      <point x="708" y="256"/>
      <point x="680" y="193"/>
      <point x="576" y="193" type="curve" smooth="yes"/>
      <point x="503" y="193"/>
      <point x="445" y="267"/>
    </contour>
    <contour>
      <point x="83" y="343" type="curve" smooth="yes"/>
      <point x="100" y="452"/>
      <point x="132" y="490"/>
      <point x="228" y="490" type="curve" smooth="yes"/>
      <point x="296" y="490"/>
      <point x="353" y="414"/>
      <point x="390" y="343" type="curve"/>
      <point x="354" y="295"/>
      <point x="269" y="193"/>
      <point x="182" y="193" type="curve" smooth="yes"/>
      <point x="91" y="193"/>
      <point x="67" y="241"/>
    </contour>
    <contour>
      <point x="58" y="345" type="curve" smooth="yes"/>
      <point x="43" y="253"/>
      <point x="54" y="169"/>
      <point x="181" y="169" type="curve" smooth="yes"/>
      <point x="271" y="169"/>
      <point x="351" y="251"/>
      <point x="398" y="322" type="curve"/>
      <point x="422" y="261"/>
      <point x="486" y="168"/>
      <point x="576" y="168" type="curve" smooth="yes"/>
      <point x="703" y="168"/>
      <point x="731" y="243"/>
      <point x="746" y="335" type="curve" smooth="yes"/>
      <point x="758" y="412"/>
      <point x="765" y="514"/>
      <point x="627" y="514" type="curve" smooth="yes"/>
      <point x="550" y="514"/>
      <point x="449" y="419"/>
      <point x="406" y="364" type="curve"/>
      <point x="378" y="423"/>
      <point x="310" y="514"/>
      <point x="228" y="514" type="curve" smooth="yes"/>
      <point x="89" y="514"/>
      <point x="72" y="432"/>
    </contour>
  </outline>
</glyph>
<glyph name="approxequal" format="1">
  <advance width="609"/>
  <unicode hex="2248"/>
  <note>
    GF Latin Plus glyph
  </note>
  <outline>
    <contour>
      <point x="149" y="434" type="line"/>
      <point x="183" y="460"/>
      <point x="225" y="474"/>
      <point x="265" y="474" type="curve" smooth="yes"/>
      <point x="334" y="474"/>
      <point x="407" y="434"/>
      <point x="487" y="434" type="curve" smooth="yes"/>
      <point x="544" y="434"/>
      <point x="581" y="456"/>
      <point x="603" y="474" type="curve"/>
      <point x="607" y="498" type="line"/>
      <point x="583" y="478"/>
      <point x="546" y="458"/>
      <point x="491" y="458" type="curve" smooth="yes"/>
      <point x="411" y="458"/>
      <point x="347" y="498"/>
      <point x="269" y="498" type="curve" smooth="yes"/>
      <point x="229" y="498"/>
      <point x="185" y="482"/>
      <point x="153" y="458" type="curve"/>
    </contour>
    <contour>
      <point x="111" y="194" type="line"/>
      <point x="145" y="220"/>
      <point x="187" y="234"/>
      <point x="227" y="234" type="curve" smooth="yes"/>
      <point x="296" y="234"/>
      <point x="369" y="194"/>
      <point x="449" y="194" type="curve" smooth="yes"/>
      <point x="506" y="194"/>
      <point x="543" y="216"/>
      <point x="565" y="234" type="curve"/>
      <point x="569" y="258" type="line"/>
      <point x="545" y="238"/>
      <point x="508" y="218"/>
      <point x="453" y="218" type="curve" smooth="yes"/>
      <point x="373" y="218"/>
      <point x="309" y="258"/>
      <point x="231" y="258" type="curve" smooth="yes"/>
      <point x="191" y="258"/>
      <point x="147" y="242"/>
      <point x="115" y="218" type="curve"/>
    </contour>
  </outline>
</glyph>
<glyph name="lessequal" format="2">
  <advance width="609"/>
  <unicode hex="2264"/>
  <note>
GF Latin Plus glyph
</note>
  <outline>
    <contour>
      <point x="142" y="386" type="line"/>
      <point x="536" y="250" type="line"/>
      <point x="539" y="270" type="line"/>
      <point x="164" y="399" type="line"/>
      <point x="579" y="526" type="line"/>
      <point x="582" y="546" type="line"/>
      <point x="146" y="410" type="line"/>
    </contour>
    <component base="minus" xOffset="-40" yOffset="-250"/>
  </outline>
</glyph>
<glyph name="greaterequal" format="2">
  <advance width="609"/>
  <unicode hex="2265"/>
  <note>
GF Latin Plus glyph
</note>
  <outline>
    <contour>
      <point x="153" y="250" type="line"/>
      <point x="589" y="386" type="line"/>
      <point x="593" y="410" type="line"/>
      <point x="199" y="546" type="line"/>
      <point x="196" y="526" type="line"/>
      <point x="571" y="397" type="line"/>
      <point x="156" y="270" type="line"/>
    </contour>
    <component base="minus" xOffset="-40" yOffset="-250"/>
  </outline>
</glyph>
<glyph name="lozenge" format="1">
  <advance width="544"/>
  <unicode hex="25CA"/>
  <outline>
    <contour>
      <point x="106" y="370" type="line"/>
      <point x="267" y="26" type="line"/>
      <point x="533" y="375" type="line"/>
      <point x="378" y="709" type="line"/>
    </contour>
    <contour>
      <point x="79" y="373" type="line"/>
      <point x="368" y="732" type="line"/>
      <point x="392" y="732" type="line"/>
      <point x="561" y="373" type="line"/>
      <point x="276" y="0" type="line"/>
      <point x="252" y="0" type="line"/>
    </contour>
  </outline>
</glyph>
<glyph name="fi" format="1">
  <advance width="544"/>
  <unicode hex="FB01"/>
  <note>
    GF Latin Plus glyph
  </note>
  <outline>
    <contour>
      <point x="113" y="507" type="line"/>
      <point x="200" y="507" type="line"/>
      <point x="120" y="0" type="line"/>
      <point x="144" y="0" type="line"/>
      <point x="224" y="507" type="line"/>
      <point x="533" y="507" type="line"/>
      <point x="537" y="531" type="line"/>
      <point x="228" y="531" type="line"/>
      <point x="242" y="616" type="line" smooth="yes"/>
      <point x="255" y="694"/>
      <point x="271" y="748"/>
      <point x="355" y="748" type="curve" smooth="yes"/>
      <point x="471" y="748" type="line"/>
      <point x="473" y="764" type="line"/>
      <point x="439" y="767"/>
      <point x="394" y="769"/>
      <point x="358" y="769" type="curve" smooth="yes"/>
      <point x="232" y="769"/>
      <point x="227" y="670"/>
      <point x="218" y="616" type="curve" smooth="yes"/>
      <point x="204" y="531" type="line"/>
      <point x="116" y="523" type="line"/>
    </contour>
    <component base="i" xOffset="360"/>
  </outline>
</glyph>
<glyph name="fl" format="2">
  <advance width="685"/>
  <unicode hex="FB02"/>
  <note>
GF Latin Plus glyph
</note>
  <outline>
    <contour>
      <point x="113" y="507" type="line"/>
      <point x="200" y="507" type="line"/>
      <point x="120" y="0" type="line"/>
      <point x="144" y="0" type="line"/>
      <point x="224" y="507" type="line"/>
      <point x="412" y="507" type="line"/>
      <point x="416" y="531" type="line"/>
      <point x="228" y="531" type="line"/>
      <point x="242" y="616" type="line" smooth="yes"/>
      <point x="255" y="695"/>
      <point x="281" y="748"/>
      <point x="395" y="748" type="curve" smooth="yes"/>
      <point x="577" y="748" type="line"/>
      <point x="585" y="763" type="line"/>
      <point x="516" y="767"/>
      <point x="464" y="769"/>
      <point x="398" y="769" type="curve" smooth="yes"/>
      <point x="262" y="769"/>
      <point x="232" y="700"/>
      <point x="218" y="616" type="curve" smooth="yes"/>
      <point x="204" y="531" type="line"/>
      <point x="116" y="523" type="line"/>
    </contour>
    <contour>
      <point x="468" y="179" type="line" smooth="yes"/>
      <point x="464" y="155"/>
      <point x="459" y="126"/>
      <point x="459" y="96" type="curve" smooth="yes"/>
      <point x="459" y="33"/>
      <point x="493" y="0"/>
      <point x="555" y="0" type="curve" smooth="yes"/>
      <point x="610" y="0" type="line"/>
      <point x="613" y="16" type="line"/>
      <point x="550" y="22" type="line" smooth="yes"/>
      <point x="509" y="26"/>
      <point x="483" y="45"/>
      <point x="483" y="97" type="curve" smooth="yes"/>
      <point x="483" y="128"/>
      <point x="489" y="158"/>
      <point x="492" y="179" type="curve" smooth="yes"/>
      <point x="585" y="763" type="line"/>
      <point x="561" y="763" type="line"/>
    </contour>
  </outline>
</glyph>
